M48
;Layer_Color=9474304
;FILE_FORMAT=4:4
METRIC,LZ
;TYPE=PLATED
T01F00S00C0.3000
T02F00S00C3.2000
%
T01
X0000875Y00046
X0029Y00046
Y00106
X00305Y00076
X00335
X00365
X00395
X00425
X0041Y00046
X0038
Y00106
X0041
X00395Y00136
X00365
X00335
X00305
X00425
X0041Y00166
X0038
X00365Y00196
X00335
X00305
Y00256
X00335
X00365
X00395
X00425
X0041Y00226
X0038
X00395Y00196
X00425
X0041Y00286
X0038
X00365Y00316
X00335
X00305
Y00376
X00335
X003325Y0039175
X00346669Y00416731
X0038Y00406
X00365Y00376
X003475Y0036475
X0038Y00346
X0041
X00395Y00316
X00425
Y00376
X00395
Y00436
Y00496
X0039875Y0052525
X0035Y00526
X0033875Y00514823
X0032Y00526
X0030425Y00514823
Y00502822
Y00452118
Y00440118
X00279Y004495
X0026Y00466
X002315Y0047725
X00251Y00523
X0029Y00526
X00204581Y00520919
X0016625Y005025
X001675Y004705
Y004545
X0013454Y00486872
X001275Y0049875
X0012275Y0052325
X00117Y00536
X0014Y00526
X0007813Y0053025
Y0052025
X0007775Y005105
X0007813Y0049437
X00075Y0048625
X00053Y004785
X0005075Y004625
X00050679Y00446457
X00053981Y00438581
X000375Y0043575
X0003675Y0047125
X0002Y00466
X0003404Y0050175
X00034Y0051125
X0002Y00526
X0004725Y005345
X0000875Y0037575
X001425Y0037325
X0014158Y00383
X001415Y003935
X00157581Y00364669
X001775Y0036475
X001675Y0034475
X00237582Y00344669
X00247581Y00364669
X002775Y0034475
X0029Y00346
Y00286
Y00226
Y00166
Y00406
X0026125Y0040975
X002175Y004245
X001975Y00402
X0000875Y002025
X0002Y00586
X0002354Y00607331
X0002Y00646
X00035Y00676
X00065
X00095
X00125
X00155
X0017Y00646
X002
X0023
X0026
X0029
Y00706
X00275Y00736
X00185
X00155
X00125
X0011Y00706
X0005
X0002
X00035Y00736
X00065Y00616
X000775Y00605
X0008Y00586
X0011
X0014
X00155Y00556
X002Y00586
X002325Y00594
X0025875Y0058625
X0028575Y00578
X00095Y00616
X0017Y00706
X0032
X0035
X00335Y00676
X00305
X0032Y00646
Y00586
X003125Y0057
X0035Y00586
X0038
X00375Y00605
X00365Y00616
X00395
X00425
X0043925Y00605
X00425Y00556
X00395Y00676
X00365
X0041Y00706
X00335Y00736
X00305
T02
X002275Y0073
M30
