G04*
G04 #@! TF.GenerationSoftware,Altium Limited,Altium Designer,25.4.2 (15)*
G04*
G04 Layer_Physical_Order=1*
G04 Layer_Color=255*
%FSLAX44Y44*%
%MOMM*%
G71*
G04*
G04 #@! TF.SameCoordinates,8BB3DE61-D15D-4615-A688-D497E92F8216*
G04*
G04*
G04 #@! TF.FilePolarity,Positive*
G04*
G01*
G75*
%ADD10C,0.3000*%
G04:AMPARAMS|DCode=12|XSize=1.1mm|YSize=1.35mm|CornerRadius=0.1375mm|HoleSize=0mm|Usage=FLASHONLY|Rotation=90.000|XOffset=0mm|YOffset=0mm|HoleType=Round|Shape=RoundedRectangle|*
%AMROUNDEDRECTD12*
21,1,1.1000,1.0750,0,0,90.0*
21,1,0.8250,1.3500,0,0,90.0*
1,1,0.2750,0.5375,0.4125*
1,1,0.2750,0.5375,-0.4125*
1,1,0.2750,-0.5375,-0.4125*
1,1,0.2750,-0.5375,0.4125*
%
%ADD12ROUNDEDRECTD12*%
G04:AMPARAMS|DCode=13|XSize=0.6mm|YSize=0.45mm|CornerRadius=0.0563mm|HoleSize=0mm|Usage=FLASHONLY|Rotation=90.000|XOffset=0mm|YOffset=0mm|HoleType=Round|Shape=RoundedRectangle|*
%AMROUNDEDRECTD13*
21,1,0.6000,0.3375,0,0,90.0*
21,1,0.4875,0.4500,0,0,90.0*
1,1,0.1125,0.1688,0.2438*
1,1,0.1125,0.1688,-0.2438*
1,1,0.1125,-0.1688,-0.2438*
1,1,0.1125,-0.1688,0.2438*
%
%ADD13ROUNDEDRECTD13*%
G04:AMPARAMS|DCode=14|XSize=0.6mm|YSize=0.45mm|CornerRadius=0.0563mm|HoleSize=0mm|Usage=FLASHONLY|Rotation=180.000|XOffset=0mm|YOffset=0mm|HoleType=Round|Shape=RoundedRectangle|*
%AMROUNDEDRECTD14*
21,1,0.6000,0.3375,0,0,180.0*
21,1,0.4875,0.4500,0,0,180.0*
1,1,0.1125,-0.2438,0.1688*
1,1,0.1125,0.2438,0.1688*
1,1,0.1125,0.2438,-0.1688*
1,1,0.1125,-0.2438,-0.1688*
%
%ADD14ROUNDEDRECTD14*%
G04:AMPARAMS|DCode=15|XSize=0.65mm|YSize=1.65mm|CornerRadius=0.0813mm|HoleSize=0mm|Usage=FLASHONLY|Rotation=90.000|XOffset=0mm|YOffset=0mm|HoleType=Round|Shape=RoundedRectangle|*
%AMROUNDEDRECTD15*
21,1,0.6500,1.4875,0,0,90.0*
21,1,0.4875,1.6500,0,0,90.0*
1,1,0.1625,0.7438,0.2438*
1,1,0.1625,0.7438,-0.2438*
1,1,0.1625,-0.7438,-0.2438*
1,1,0.1625,-0.7438,0.2438*
%
%ADD15ROUNDEDRECTD15*%
%ADD16R,0.6000X3.0500*%
G04:AMPARAMS|DCode=17|XSize=1.36mm|YSize=0.51mm|CornerRadius=0.0638mm|HoleSize=0mm|Usage=FLASHONLY|Rotation=0.000|XOffset=0mm|YOffset=0mm|HoleType=Round|Shape=RoundedRectangle|*
%AMROUNDEDRECTD17*
21,1,1.3600,0.3825,0,0,0.0*
21,1,1.2325,0.5100,0,0,0.0*
1,1,0.1275,0.6163,-0.1913*
1,1,0.1275,-0.6163,-0.1913*
1,1,0.1275,-0.6163,0.1913*
1,1,0.1275,0.6163,0.1913*
%
%ADD17ROUNDEDRECTD17*%
G04:AMPARAMS|DCode=18|XSize=1.778mm|YSize=3.556mm|CornerRadius=0.2223mm|HoleSize=0mm|Usage=FLASHONLY|Rotation=0.000|XOffset=0mm|YOffset=0mm|HoleType=Round|Shape=RoundedRectangle|*
%AMROUNDEDRECTD18*
21,1,1.7780,3.1115,0,0,0.0*
21,1,1.3335,3.5560,0,0,0.0*
1,1,0.4445,0.6668,-1.5558*
1,1,0.4445,-0.6668,-1.5558*
1,1,0.4445,-0.6668,1.5558*
1,1,0.4445,0.6668,1.5558*
%
%ADD18ROUNDEDRECTD18*%
%ADD27C,0.4000*%
%ADD28C,0.6000*%
%ADD29C,6.0000*%
%ADD30C,0.6000*%
G36*
X438202Y776097D02*
X441281Y775163D01*
X444118Y773646D01*
X446605Y771605D01*
X448646Y769118D01*
X450163Y766281D01*
X451097Y763202D01*
X451405Y760072D01*
X451390Y760000D01*
Y602507D01*
X450217Y602021D01*
X443244Y608994D01*
X442781Y609303D01*
X442388Y609697D01*
X441874Y609910D01*
X441412Y610219D01*
X440866Y610327D01*
X440352Y610540D01*
X439796D01*
X439250Y610649D01*
X438704Y610540D01*
X438148D01*
X437634Y610327D01*
X437088Y610219D01*
X436626Y609910D01*
X436112Y609697D01*
X435718Y609303D01*
X435256Y608994D01*
X434947Y608531D01*
X434553Y608138D01*
X434341Y607624D01*
X434031Y607162D01*
X433923Y606616D01*
X433710Y606102D01*
Y605546D01*
X433601Y605000D01*
X433710Y604454D01*
Y603898D01*
X433923Y603384D01*
X434031Y602838D01*
X434341Y602376D01*
X434553Y601862D01*
X434947Y601469D01*
X435256Y601006D01*
X441852Y594410D01*
Y529879D01*
X422879D01*
Y533698D01*
X423101Y534813D01*
Y539688D01*
X422860Y540898D01*
X422174Y541925D01*
X421148Y542610D01*
X419938Y542851D01*
X416562D01*
X415352Y542610D01*
X414326Y541925D01*
X414264Y541832D01*
X412736D01*
X412674Y541925D01*
X411648Y542610D01*
X410437Y542851D01*
X407062D01*
X405852Y542610D01*
X404826Y541925D01*
X404455Y541369D01*
X387750D01*
X386174Y541056D01*
X384838Y540163D01*
X372337Y527663D01*
X371444Y526326D01*
X371131Y524750D01*
Y503706D01*
X361694Y494269D01*
X357096D01*
X356604Y495004D01*
X355496Y495745D01*
X354957Y495853D01*
Y497147D01*
X355496Y497254D01*
X356604Y497995D01*
X357346Y499104D01*
X357606Y500412D01*
Y505287D01*
X357346Y506595D01*
X356604Y507704D01*
X355496Y508445D01*
X354188Y508706D01*
X341777D01*
X341524Y509976D01*
X341888Y510126D01*
X343447Y511685D01*
X344290Y513721D01*
Y515925D01*
X343447Y517961D01*
X341888Y519520D01*
X339852Y520363D01*
X337648D01*
X335612Y519520D01*
X335034Y518942D01*
X328045D01*
X327674Y519497D01*
X326648Y520183D01*
X325438Y520424D01*
X322063D01*
X320852Y520183D01*
X319826Y519497D01*
X319764Y519404D01*
X318236D01*
X318174Y519497D01*
X317148Y520183D01*
X315937Y520424D01*
X315520D01*
Y514823D01*
X314250D01*
Y513553D01*
X309399D01*
Y512385D01*
X309640Y511175D01*
X310326Y510149D01*
X311335Y509474D01*
X311352Y509383D01*
Y508263D01*
X311335Y508171D01*
X310326Y507497D01*
X309640Y506470D01*
X309399Y505260D01*
Y504092D01*
X314250D01*
Y502822D01*
X315520D01*
Y497222D01*
X315937D01*
X317148Y497463D01*
X318174Y498148D01*
X318236Y498241D01*
X319764D01*
X319826Y498148D01*
X320852Y497463D01*
X322063Y497222D01*
X325438D01*
X326648Y497463D01*
X327674Y498148D01*
X328045Y498703D01*
X336423D01*
X336895Y497995D01*
X338004Y497254D01*
X338543Y497147D01*
Y495853D01*
X338004Y495745D01*
X336895Y495004D01*
X336404Y494269D01*
X318900D01*
X317324Y493955D01*
X315987Y493063D01*
X277965Y455040D01*
X277898D01*
X275862Y454197D01*
X274303Y452638D01*
X273460Y450602D01*
Y448398D01*
X274303Y446362D01*
X275862Y444803D01*
X277898Y443960D01*
X280102D01*
X282138Y444803D01*
X283697Y446362D01*
X284540Y448398D01*
Y449965D01*
X320606Y486031D01*
X336404D01*
X336895Y485295D01*
X338004Y484554D01*
X338543Y484447D01*
Y483153D01*
X338004Y483045D01*
X336895Y482304D01*
X336155Y481195D01*
X335894Y479887D01*
Y475012D01*
X336155Y473704D01*
X336895Y472595D01*
X338004Y471854D01*
X338543Y471747D01*
Y470452D01*
X338004Y470345D01*
X336895Y469604D01*
X336155Y468495D01*
X335894Y467187D01*
Y462312D01*
X336155Y461004D01*
X336895Y459895D01*
X338004Y459154D01*
X338543Y459047D01*
Y457752D01*
X338004Y457645D01*
X336895Y456904D01*
X336449Y456237D01*
X328045D01*
X327674Y456792D01*
X326648Y457477D01*
X325438Y457718D01*
X322063D01*
X320852Y457477D01*
X319826Y456792D01*
X319764Y456699D01*
X318236D01*
X318174Y456792D01*
X317148Y457477D01*
X315937Y457718D01*
X315520D01*
Y452117D01*
X314250D01*
Y450847D01*
X309399D01*
Y449680D01*
X309640Y448470D01*
X310326Y447443D01*
X311335Y446769D01*
X311352Y446674D01*
Y445561D01*
X311335Y445466D01*
X310326Y444792D01*
X309640Y443766D01*
X309399Y442555D01*
Y441388D01*
X314250D01*
Y440118D01*
X315520D01*
Y434517D01*
X315937D01*
X317148Y434758D01*
X318174Y435443D01*
X319322Y434981D01*
X319631Y434772D01*
Y429456D01*
X314587Y424413D01*
X313694Y423077D01*
X313381Y421500D01*
Y359045D01*
X312826Y358674D01*
X312140Y357648D01*
X311899Y356438D01*
Y353063D01*
X312140Y351852D01*
X312826Y350826D01*
X312919Y350764D01*
Y349236D01*
X312826Y349174D01*
X312140Y348148D01*
X311899Y346937D01*
Y343563D01*
X312140Y342352D01*
X312826Y341326D01*
X313381Y340955D01*
Y33040D01*
X281619D01*
Y320955D01*
X282174Y321326D01*
X282860Y322352D01*
X283101Y323563D01*
Y326937D01*
X282860Y328148D01*
X282174Y329174D01*
X282082Y329236D01*
Y330764D01*
X282174Y330826D01*
X282860Y331852D01*
X283101Y333063D01*
Y336438D01*
X282860Y337648D01*
X282174Y338674D01*
X281619Y339045D01*
Y341035D01*
X282197Y341612D01*
X283040Y343648D01*
Y345852D01*
X282197Y347888D01*
X280638Y349447D01*
X278602Y350290D01*
X276398D01*
X274362Y349447D01*
X273857Y348942D01*
X272222Y349103D01*
X272174Y349174D01*
X272082Y349236D01*
Y350764D01*
X272174Y350826D01*
X272860Y351852D01*
X273101Y353063D01*
Y356438D01*
X272860Y357648D01*
X272174Y358674D01*
X271619Y359045D01*
Y403500D01*
X271306Y405076D01*
X270413Y406413D01*
X266790Y410035D01*
Y410852D01*
X265947Y412888D01*
X264388Y414447D01*
X262352Y415290D01*
X260148D01*
X258112Y414447D01*
X256889Y413224D01*
X255619Y413699D01*
Y424500D01*
X255306Y426077D01*
X254413Y427413D01*
X216413Y465413D01*
X215077Y466306D01*
X213500Y466619D01*
X187580D01*
X186763Y467889D01*
X186902Y468587D01*
Y472412D01*
X186864Y472601D01*
X187907Y473871D01*
X195134D01*
X195437Y472347D01*
X196302Y471053D01*
X197597Y470187D01*
X199125Y469883D01*
X209875D01*
X211402Y470187D01*
X212698Y471053D01*
X213563Y472347D01*
X213867Y473875D01*
Y482125D01*
X213563Y483653D01*
X212698Y484948D01*
X211402Y485813D01*
X209875Y486117D01*
X199125D01*
X197597Y485813D01*
X196302Y484948D01*
X195437Y483653D01*
X195333Y483129D01*
X187907D01*
X186864Y484399D01*
X186902Y484587D01*
Y488412D01*
X186655Y489652D01*
X186089Y490500D01*
X186655Y491348D01*
X186902Y492587D01*
Y496412D01*
X186655Y497652D01*
X186089Y498500D01*
X186655Y499348D01*
X186902Y500587D01*
Y504412D01*
X186655Y505652D01*
X186089Y506500D01*
X186655Y507348D01*
X186902Y508587D01*
Y509230D01*
X177500D01*
Y511770D01*
X186902D01*
Y512412D01*
X186655Y513652D01*
X186089Y514500D01*
X186655Y515348D01*
X186902Y516587D01*
Y520412D01*
X186655Y521652D01*
X186089Y522500D01*
X186655Y523348D01*
X186902Y524587D01*
Y528412D01*
X186763Y529111D01*
X187580Y530381D01*
X212294D01*
X227131Y515544D01*
Y480716D01*
X226803Y480388D01*
X225960Y478352D01*
Y476148D01*
X226803Y474112D01*
X228362Y472553D01*
X230398Y471710D01*
X232602D01*
X234638Y472553D01*
X236197Y474112D01*
X237040Y476148D01*
Y478352D01*
X236197Y480388D01*
X235369Y481215D01*
Y517250D01*
X235056Y518826D01*
X234163Y520163D01*
X217214Y537111D01*
X217615Y538302D01*
X217677Y538381D01*
X241000D01*
X241001Y538381D01*
X245654D01*
X245863Y538072D01*
X246326Y536924D01*
X245640Y535898D01*
X245399Y534688D01*
Y534270D01*
X256601D01*
Y534688D01*
X256360Y535898D01*
X255674Y536924D01*
X256136Y538072D01*
X256345Y538381D01*
X372250D01*
X373826Y538695D01*
X375163Y539588D01*
X412913Y577337D01*
X413806Y578674D01*
X414119Y580250D01*
Y611294D01*
X433163Y630337D01*
X434056Y631674D01*
X434369Y633250D01*
Y749750D01*
X434056Y751326D01*
X433163Y752663D01*
X429573Y756253D01*
X428236Y757146D01*
X426660Y757459D01*
X414423D01*
Y768897D01*
X414054Y770756D01*
X413001Y772331D01*
X411426Y773384D01*
X409567Y773753D01*
X396232D01*
X394374Y773384D01*
X392799Y772331D01*
X391746Y770756D01*
X391377Y768897D01*
Y737783D01*
X391746Y735924D01*
X392799Y734349D01*
X394374Y733296D01*
X396232Y732927D01*
X409567D01*
X411426Y733296D01*
X413001Y734349D01*
X414054Y735924D01*
X414423Y737783D01*
Y749221D01*
X424954D01*
X426131Y748044D01*
Y634956D01*
X408289Y617114D01*
X407019Y617640D01*
Y626247D01*
X409567D01*
X411426Y626616D01*
X413001Y627669D01*
X414054Y629244D01*
X414423Y631102D01*
Y662217D01*
X414054Y664076D01*
X413001Y665651D01*
X411426Y666704D01*
X409567Y667073D01*
X396232D01*
X394374Y666704D01*
X392799Y665651D01*
X391746Y664076D01*
X391377Y662217D01*
Y631102D01*
X391746Y629244D01*
X392799Y627669D01*
X394374Y626616D01*
X396232Y626247D01*
X398781D01*
Y585106D01*
X368294Y554619D01*
X317846D01*
X317637Y554928D01*
X317174Y556076D01*
X317860Y557102D01*
X318101Y558312D01*
Y558730D01*
X312500D01*
X306899D01*
Y558312D01*
X307140Y557102D01*
X307826Y556076D01*
X307364Y554928D01*
X307155Y554619D01*
X296677D01*
X296614Y554699D01*
X296215Y555889D01*
X302663Y562337D01*
X303556Y563674D01*
X303869Y565250D01*
Y602544D01*
X308706Y607381D01*
X342250D01*
X343826Y607694D01*
X345163Y608587D01*
X355013Y618437D01*
X355906Y619774D01*
X356219Y621350D01*
Y626247D01*
X358768D01*
X360626Y626616D01*
X362201Y627669D01*
X363254Y629244D01*
X363623Y631102D01*
Y662217D01*
X363254Y664076D01*
X362201Y665651D01*
X360626Y666704D01*
X358768Y667073D01*
X345433D01*
X343574Y666704D01*
X341999Y665651D01*
X340946Y664076D01*
X340577Y662217D01*
Y631102D01*
X340946Y629244D01*
X341999Y627669D01*
X343574Y626616D01*
X345433Y626247D01*
X347981D01*
Y623056D01*
X340544Y615619D01*
X307000D01*
X305424Y615306D01*
X304087Y614413D01*
X296837Y607163D01*
X295944Y605826D01*
X295631Y604250D01*
Y566956D01*
X291873Y563198D01*
X291115Y563299D01*
X290681Y564459D01*
X291110Y565102D01*
X291351Y566312D01*
Y566730D01*
X285750D01*
X280149D01*
Y566312D01*
X280390Y565102D01*
X281076Y564076D01*
X280613Y562928D01*
X280405Y562620D01*
X269626D01*
X269228Y563666D01*
X269215Y563890D01*
X275663Y570337D01*
X276556Y571674D01*
X276869Y573250D01*
Y611500D01*
X276556Y613076D01*
X275663Y614413D01*
X256413Y633663D01*
X255076Y634556D01*
X253500Y634869D01*
X148956D01*
X140119Y643706D01*
Y749000D01*
X139806Y750576D01*
X138913Y751913D01*
X134573Y756253D01*
X133236Y757146D01*
X131660Y757459D01*
X114423D01*
Y768897D01*
X114054Y770756D01*
X113001Y772331D01*
X111426Y773384D01*
X109567Y773753D01*
X96233D01*
X94374Y773384D01*
X92799Y772331D01*
X91746Y770756D01*
X91377Y768897D01*
Y737783D01*
X91746Y735924D01*
X92799Y734349D01*
X94374Y733296D01*
X96233Y732927D01*
X109567D01*
X111426Y733296D01*
X113001Y734349D01*
X114054Y735924D01*
X114423Y737783D01*
Y749221D01*
X129954D01*
X131881Y747294D01*
Y642000D01*
X132194Y640424D01*
X133087Y639087D01*
X144337Y627837D01*
X145674Y626944D01*
X147250Y626631D01*
X251794D01*
X268631Y609794D01*
Y574956D01*
X265050Y571375D01*
X263857Y571502D01*
X263632Y571809D01*
X263424Y572325D01*
X264110Y573352D01*
X264351Y574562D01*
Y574980D01*
X258750D01*
X253149D01*
Y574562D01*
X253390Y573352D01*
X254076Y572325D01*
X253614Y571177D01*
X253405Y570869D01*
X245490D01*
X244965Y572139D01*
X248663Y575837D01*
X249556Y577174D01*
X249869Y578750D01*
Y604750D01*
X249556Y606326D01*
X248663Y607663D01*
X242163Y614163D01*
X240826Y615056D01*
X239250Y615369D01*
X113206D01*
X107019Y621556D01*
Y626247D01*
X109567D01*
X111426Y626616D01*
X113001Y627669D01*
X114054Y629244D01*
X114423Y631102D01*
Y662217D01*
X114054Y664076D01*
X113001Y665651D01*
X111426Y666704D01*
X109567Y667073D01*
X96233D01*
X94374Y666704D01*
X92799Y665651D01*
X91746Y664076D01*
X91377Y662217D01*
Y631102D01*
X91746Y629244D01*
X92799Y627669D01*
X94374Y626616D01*
X96233Y626247D01*
X98781D01*
Y619850D01*
X99094Y618274D01*
X99987Y616937D01*
X108587Y608337D01*
X109924Y607444D01*
X111500Y607131D01*
X237544D01*
X241631Y603044D01*
Y580456D01*
X239794Y578619D01*
X237845D01*
X237636Y578928D01*
X237174Y580076D01*
X237860Y581102D01*
X238101Y582313D01*
Y582730D01*
X232500D01*
X226899D01*
Y582313D01*
X227140Y581102D01*
X227826Y580076D01*
X227363Y578928D01*
X227154Y578619D01*
X207545D01*
X207174Y579174D01*
X206148Y579860D01*
X204937Y580101D01*
X201562D01*
X200352Y579860D01*
X199325Y579174D01*
X199263Y579082D01*
X197736D01*
X197674Y579174D01*
X196648Y579860D01*
X195438Y580101D01*
X192062D01*
X190852Y579860D01*
X189826Y579174D01*
X189455Y578619D01*
X187580D01*
X186763Y579889D01*
X186902Y580588D01*
Y584413D01*
X186655Y585653D01*
X186089Y586500D01*
X186655Y587348D01*
X186902Y588588D01*
Y592413D01*
X186655Y593652D01*
X185953Y594704D01*
X184902Y595406D01*
X183662Y595653D01*
X171337D01*
X170098Y595406D01*
X169046Y594704D01*
X168344Y593652D01*
X168098Y592413D01*
Y588588D01*
X168344Y587348D01*
X168911Y586500D01*
X168344Y585653D01*
X168098Y584413D01*
Y580588D01*
X168344Y579348D01*
X168911Y578500D01*
X168344Y577653D01*
X168098Y576413D01*
Y572588D01*
X168344Y571348D01*
X168911Y570500D01*
X168344Y569653D01*
X168098Y568413D01*
Y564588D01*
X168344Y563348D01*
X168911Y562500D01*
X168344Y561652D01*
X168098Y560412D01*
Y556587D01*
X168344Y555348D01*
X168911Y554500D01*
X168344Y553652D01*
X168098Y552412D01*
Y548587D01*
X168344Y547347D01*
X168911Y546500D01*
X168344Y545652D01*
X168098Y544412D01*
Y540587D01*
X168344Y539347D01*
X168911Y538500D01*
X168344Y537652D01*
X168098Y536412D01*
Y532587D01*
X168237Y531889D01*
X167420Y530619D01*
X160250D01*
X158673Y530305D01*
X157337Y529412D01*
X138587Y510663D01*
X137694Y509327D01*
X137381Y507750D01*
Y492834D01*
X136325Y492129D01*
X135642Y492412D01*
X133438D01*
X132675Y492096D01*
X131619Y492801D01*
Y495034D01*
X132197Y495612D01*
X133040Y497648D01*
Y499852D01*
X132197Y501888D01*
X130638Y503447D01*
X128602Y504290D01*
X126398D01*
X124679Y503578D01*
X123409Y504153D01*
Y517710D01*
X123852D01*
X125888Y518553D01*
X127447Y520112D01*
X128290Y522148D01*
Y524352D01*
X127447Y526388D01*
X125888Y527947D01*
X123852Y528790D01*
X121648D01*
X119612Y527947D01*
X119139Y527474D01*
X117869Y528000D01*
Y530460D01*
X118102D01*
X120138Y531304D01*
X121697Y532862D01*
X122540Y534898D01*
Y537102D01*
X121697Y539138D01*
X120138Y540697D01*
X118102Y541540D01*
X115898D01*
X113862Y540697D01*
X112799Y539634D01*
X111529Y540160D01*
Y563840D01*
X111216Y565416D01*
X110656Y566254D01*
X110323Y566752D01*
X99663Y577413D01*
X98327Y578306D01*
X98327Y578306D01*
X96750Y578619D01*
X74480D01*
X73664Y579889D01*
X73802Y580588D01*
Y584413D01*
X73556Y585653D01*
X72989Y586500D01*
X73556Y587348D01*
X73802Y588588D01*
Y592413D01*
X73556Y593652D01*
X72854Y594704D01*
X71803Y595406D01*
X70563Y595653D01*
X58238D01*
X56998Y595406D01*
X55947Y594704D01*
X55245Y593652D01*
X54998Y592413D01*
Y588588D01*
X55137Y587889D01*
X54320Y586619D01*
X47345D01*
X47136Y586928D01*
X46674Y588076D01*
X47360Y589102D01*
X47601Y590312D01*
Y593687D01*
X47360Y594898D01*
X46674Y595924D01*
X46119Y596295D01*
Y602868D01*
X46295Y603131D01*
X48750D01*
X50326Y603445D01*
X51663Y604338D01*
X55013Y607687D01*
X55906Y609024D01*
X56219Y610600D01*
Y626247D01*
X58767D01*
X60626Y626616D01*
X62201Y627669D01*
X63254Y629244D01*
X63623Y631102D01*
Y662217D01*
X63254Y664076D01*
X62201Y665651D01*
X60626Y666704D01*
X58767Y667073D01*
X45433D01*
X43574Y666704D01*
X41999Y665651D01*
X40946Y664076D01*
X40577Y662217D01*
Y631102D01*
X40946Y629244D01*
X41999Y627669D01*
X43574Y626616D01*
X45433Y626247D01*
X47981D01*
Y612772D01*
X47144Y611982D01*
X45924Y611924D01*
X44898Y612610D01*
X43687Y612851D01*
X40312D01*
X39102Y612610D01*
X38076Y611924D01*
X38014Y611832D01*
X36486D01*
X36424Y611924D01*
X35398Y612610D01*
X34187Y612851D01*
X33770D01*
Y607250D01*
Y601649D01*
X34187D01*
X35398Y601890D01*
X36424Y602576D01*
X37572Y602114D01*
X37881Y601905D01*
Y596295D01*
X37326Y595924D01*
X36640Y594898D01*
X36399Y593687D01*
Y590312D01*
X36640Y589102D01*
X37326Y588076D01*
X37418Y588014D01*
Y586486D01*
X37326Y586424D01*
X36640Y585398D01*
X36399Y584188D01*
Y580813D01*
X36640Y579602D01*
X37326Y578576D01*
X38352Y577890D01*
X39562Y577649D01*
X44437D01*
X45648Y577890D01*
X46382Y578381D01*
X54320D01*
X55137Y577111D01*
X54998Y576413D01*
Y572588D01*
X55245Y571348D01*
X55811Y570500D01*
X55245Y569653D01*
X54998Y568413D01*
Y564588D01*
X55245Y563348D01*
X55811Y562500D01*
X55245Y561652D01*
X54998Y560412D01*
Y556587D01*
X55245Y555348D01*
X55811Y554500D01*
X55245Y553652D01*
X54998Y552412D01*
Y548587D01*
X55245Y547347D01*
X55811Y546500D01*
X55245Y545652D01*
X54998Y544412D01*
Y540587D01*
X55137Y539889D01*
X54320Y538619D01*
X50966D01*
X50388Y539196D01*
X48352Y540040D01*
X46148D01*
X44112Y539196D01*
X42554Y537638D01*
X41710Y535602D01*
Y533398D01*
X42554Y531362D01*
X44112Y529803D01*
X46148Y528960D01*
X48352D01*
X50388Y529803D01*
X50966Y530381D01*
X54320D01*
X55137Y529111D01*
X54998Y528412D01*
Y524587D01*
X55245Y523348D01*
X55811Y522500D01*
X55245Y521652D01*
X54998Y520412D01*
Y516587D01*
X55035Y516399D01*
X53993Y515129D01*
X52867D01*
X52272Y515527D01*
X50500Y515879D01*
X50500Y515879D01*
X47552D01*
X46437Y516101D01*
X41562D01*
X40447Y515879D01*
X37206D01*
X37138Y515947D01*
X35102Y516790D01*
X32898D01*
X30862Y515947D01*
X29303Y514388D01*
X28460Y512352D01*
Y510148D01*
X29303Y508112D01*
X30862Y506554D01*
X32898Y505710D01*
X35102D01*
X37138Y506554D01*
X37206Y506621D01*
X38547D01*
X38702Y506433D01*
X39110Y505351D01*
X38640Y504648D01*
X38399Y503438D01*
Y503020D01*
X44000D01*
X49601D01*
Y503438D01*
X49360Y504648D01*
X49066Y505088D01*
X49889Y506142D01*
X51251Y505871D01*
X51251Y505871D01*
X53993D01*
X55035Y504601D01*
X54998Y504412D01*
Y503770D01*
X64400D01*
Y501230D01*
X54998D01*
Y500587D01*
X55245Y499348D01*
X55811Y498500D01*
X55245Y497652D01*
X54998Y496412D01*
Y492587D01*
X55245Y491348D01*
X55811Y490500D01*
X55245Y489652D01*
X54998Y488412D01*
Y485043D01*
X54306Y484268D01*
X53812Y484040D01*
X51898D01*
X49862Y483196D01*
X48304Y481638D01*
X47460Y479602D01*
Y477398D01*
X48304Y475362D01*
X49862Y473803D01*
X51898Y472960D01*
X53812D01*
X54306Y472732D01*
X54998Y471956D01*
Y468587D01*
X55147Y467836D01*
X55054Y467646D01*
X53888Y467197D01*
X51852Y468040D01*
X49648D01*
X47612Y467197D01*
X46053Y465638D01*
X45210Y463602D01*
Y461398D01*
X45835Y459889D01*
X45137Y458619D01*
X37604D01*
X37118Y459793D01*
X39663Y462337D01*
X40556Y463674D01*
X40869Y465250D01*
Y467534D01*
X41447Y468112D01*
X42290Y470148D01*
Y472352D01*
X41447Y474388D01*
X39888Y475947D01*
X37852Y476790D01*
X35648D01*
X33612Y475947D01*
X32053Y474388D01*
X31210Y472352D01*
Y470148D01*
X32053Y468112D01*
X32631Y467534D01*
Y466956D01*
X17337Y451663D01*
X16444Y450326D01*
X16131Y448750D01*
Y368456D01*
X14587Y366913D01*
X13694Y365577D01*
X13381Y364000D01*
Y359045D01*
X12826Y358674D01*
X12140Y357648D01*
X11899Y356438D01*
Y353063D01*
X12140Y351852D01*
X12826Y350826D01*
X12919Y350764D01*
Y349236D01*
X12826Y349174D01*
X12140Y348148D01*
X11899Y346937D01*
Y343563D01*
X12140Y342352D01*
X12826Y341326D01*
X13381Y340955D01*
Y33040D01*
X8770D01*
Y15250D01*
X6230D01*
Y33040D01*
X3609D01*
Y760000D01*
X3595Y760072D01*
X3903Y763202D01*
X4837Y766281D01*
X6354Y769118D01*
X8395Y771605D01*
X10882Y773646D01*
X13719Y775163D01*
X16798Y776097D01*
X19928Y776405D01*
X20000Y776391D01*
X435000D01*
X435072Y776405D01*
X438202Y776097D01*
D02*
G37*
G36*
X404826Y532576D02*
X405835Y531902D01*
X405852Y531809D01*
Y530691D01*
X405835Y530599D01*
X404826Y529924D01*
X404140Y528898D01*
X403899Y527687D01*
Y526520D01*
X408750D01*
Y525250D01*
X410020D01*
Y519649D01*
X410437D01*
X411648Y519890D01*
X412351Y520360D01*
X413433Y519952D01*
X413621Y519797D01*
Y508706D01*
X410812D01*
X409504Y508445D01*
X408396Y507704D01*
X407654Y506595D01*
X407394Y505287D01*
Y500412D01*
X407654Y499104D01*
X408396Y497995D01*
X409504Y497254D01*
X410043Y497147D01*
Y495853D01*
X409504Y495745D01*
X408396Y495004D01*
X407904Y494269D01*
X404150D01*
X402573Y493955D01*
X401237Y493063D01*
X378337Y470163D01*
X377444Y468827D01*
X377131Y467250D01*
Y455956D01*
X364644Y443469D01*
X357096D01*
X356604Y444204D01*
X355496Y444945D01*
X354957Y445052D01*
Y446347D01*
X355496Y446454D01*
X356604Y447195D01*
X357346Y448304D01*
X357606Y449612D01*
Y454487D01*
X357346Y455796D01*
X356604Y456904D01*
X355496Y457645D01*
X354957Y457752D01*
Y459047D01*
X355496Y459154D01*
X356604Y459895D01*
X357346Y461004D01*
X357606Y462312D01*
Y467187D01*
X357346Y468495D01*
X356604Y469604D01*
X355496Y470345D01*
X354957Y470452D01*
Y471747D01*
X355496Y471854D01*
X356604Y472595D01*
X357346Y473704D01*
X357606Y475012D01*
Y479887D01*
X357346Y481195D01*
X356604Y482304D01*
X355496Y483045D01*
X354957Y483153D01*
Y484447D01*
X355496Y484554D01*
X356604Y485295D01*
X357096Y486031D01*
X363400D01*
X364976Y486344D01*
X366313Y487237D01*
X378163Y499087D01*
X379056Y500424D01*
X379369Y502000D01*
Y523044D01*
X389456Y533131D01*
X404455D01*
X404826Y532576D01*
D02*
G37*
G36*
X441852Y33040D02*
X438770D01*
Y15250D01*
X436230D01*
Y33040D01*
X351619D01*
Y340955D01*
X352174Y341326D01*
X352860Y342352D01*
X353101Y343563D01*
Y346937D01*
X352860Y348148D01*
X352174Y349174D01*
X352081Y349236D01*
Y350764D01*
X352174Y350826D01*
X352860Y351852D01*
X353101Y353063D01*
Y356438D01*
X352860Y357648D01*
X352174Y358674D01*
X351619Y359045D01*
Y361035D01*
X352197Y361612D01*
X353040Y363648D01*
Y365852D01*
X352197Y367888D01*
X350638Y369447D01*
X348602Y370290D01*
X346398D01*
X344362Y369447D01*
X342803Y367888D01*
X341960Y365852D01*
Y363648D01*
X342803Y361612D01*
X343381Y361035D01*
Y359045D01*
X342826Y358674D01*
X342140Y357648D01*
X341899Y356438D01*
Y353063D01*
X342140Y351852D01*
X342826Y350826D01*
X342919Y350764D01*
Y349236D01*
X342826Y349174D01*
X342140Y348148D01*
X341899Y346937D01*
Y343563D01*
X342140Y342352D01*
X342826Y341326D01*
X343381Y340955D01*
Y33040D01*
X321619D01*
Y340955D01*
X322174Y341326D01*
X322860Y342352D01*
X323101Y343563D01*
Y346937D01*
X322860Y348148D01*
X322174Y349174D01*
X322081Y349236D01*
Y350764D01*
X322174Y350826D01*
X322860Y351852D01*
X323101Y353063D01*
Y356438D01*
X322860Y357648D01*
X322174Y358674D01*
X321619Y359045D01*
Y419794D01*
X326663Y424837D01*
X327556Y426174D01*
X327869Y427750D01*
Y435735D01*
X328360Y436470D01*
X328601Y437680D01*
Y442555D01*
X328360Y443766D01*
X327869Y444500D01*
Y447735D01*
X328045Y447998D01*
X336359D01*
X336895Y447195D01*
X338004Y446454D01*
X338543Y446347D01*
Y445052D01*
X338004Y444945D01*
X336895Y444204D01*
X336155Y443096D01*
X335894Y441787D01*
Y436912D01*
X336155Y435604D01*
X336895Y434495D01*
X338004Y433754D01*
X338543Y433647D01*
Y432352D01*
X338004Y432245D01*
X336895Y431504D01*
X336155Y430396D01*
X335894Y429087D01*
Y427920D01*
X346750D01*
X357606D01*
Y429087D01*
X357346Y430396D01*
X356604Y431504D01*
X355496Y432245D01*
X354957Y432352D01*
Y433647D01*
X355496Y433754D01*
X356604Y434495D01*
X357096Y435231D01*
X366350D01*
X367926Y435544D01*
X369263Y436437D01*
X384163Y451338D01*
X385055Y452674D01*
X385369Y454250D01*
Y465544D01*
X405856Y486031D01*
X407904D01*
X408396Y485295D01*
X409504Y484554D01*
X410043Y484447D01*
Y483153D01*
X409504Y483045D01*
X408396Y482304D01*
X407654Y481195D01*
X407394Y479887D01*
Y475012D01*
X407654Y473704D01*
X408396Y472595D01*
X409504Y471854D01*
X410043Y471747D01*
Y470452D01*
X409504Y470345D01*
X408396Y469604D01*
X407654Y468495D01*
X407394Y467187D01*
Y462312D01*
X407654Y461004D01*
X408396Y459895D01*
X409504Y459154D01*
X410043Y459047D01*
Y457752D01*
X409504Y457645D01*
X408396Y456904D01*
X407654Y455796D01*
X407394Y454487D01*
Y449612D01*
X407654Y448304D01*
X408396Y447195D01*
X409504Y446454D01*
X410043Y446347D01*
Y445052D01*
X409504Y444945D01*
X408396Y444204D01*
X407654Y443096D01*
X407394Y441787D01*
Y436912D01*
X407654Y435604D01*
X408396Y434495D01*
X409504Y433754D01*
X410043Y433647D01*
Y432352D01*
X409504Y432245D01*
X408396Y431504D01*
X407654Y430396D01*
X407394Y429087D01*
Y424212D01*
X407654Y422904D01*
X408396Y421795D01*
X409504Y421054D01*
X410812Y420794D01*
X414131D01*
Y410206D01*
X399794Y395869D01*
X336216D01*
X335638Y396447D01*
X333602Y397290D01*
X331398D01*
X329362Y396447D01*
X327803Y394888D01*
X326960Y392852D01*
Y390648D01*
X327803Y388612D01*
X329362Y387053D01*
X331398Y386210D01*
X333602D01*
X335638Y387053D01*
X336216Y387631D01*
X401500D01*
X403076Y387944D01*
X404413Y388837D01*
X421163Y405587D01*
X422056Y406924D01*
X422369Y408500D01*
Y420794D01*
X425687D01*
X426996Y421054D01*
X428105Y421795D01*
X428845Y422904D01*
X429106Y424212D01*
Y429087D01*
X428845Y430396D01*
X428105Y431504D01*
X426996Y432245D01*
X426457Y432352D01*
Y433647D01*
X426996Y433754D01*
X428105Y434495D01*
X428845Y435604D01*
X429106Y436912D01*
Y441787D01*
X428845Y443096D01*
X428105Y444204D01*
X426996Y444945D01*
X426457Y445052D01*
Y446347D01*
X426996Y446454D01*
X428105Y447195D01*
X428845Y448304D01*
X429106Y449612D01*
Y454487D01*
X428845Y455796D01*
X428105Y456904D01*
X426996Y457645D01*
X426457Y457752D01*
Y459047D01*
X426996Y459154D01*
X428105Y459895D01*
X428845Y461004D01*
X429106Y462312D01*
Y467187D01*
X428845Y468495D01*
X428105Y469604D01*
X426996Y470345D01*
X426457Y470452D01*
Y471747D01*
X426996Y471854D01*
X428105Y472595D01*
X428845Y473704D01*
X429106Y475012D01*
Y479887D01*
X428845Y481195D01*
X428105Y482304D01*
X426996Y483045D01*
X426457Y483153D01*
Y484447D01*
X426996Y484554D01*
X428105Y485295D01*
X428845Y486404D01*
X429106Y487712D01*
Y492587D01*
X428845Y493895D01*
X428105Y495004D01*
X426996Y495745D01*
X426457Y495853D01*
Y497147D01*
X426996Y497254D01*
X428105Y497995D01*
X428845Y499104D01*
X429106Y500412D01*
Y505287D01*
X428845Y506595D01*
X428105Y507704D01*
X426996Y508445D01*
X425687Y508706D01*
X422879D01*
Y520621D01*
X441852D01*
Y33040D01*
D02*
G37*
%LPC*%
G36*
X358768Y773753D02*
X345433D01*
X343574Y773384D01*
X341999Y772331D01*
X340946Y770756D01*
X340577Y768897D01*
Y737783D01*
X340946Y735924D01*
X341999Y734349D01*
X343574Y733296D01*
X345433Y732927D01*
X358768D01*
X360626Y733296D01*
X362201Y734349D01*
X363254Y735924D01*
X363623Y737783D01*
Y768897D01*
X363254Y770756D01*
X362201Y772331D01*
X360626Y773384D01*
X358768Y773753D01*
D02*
G37*
G36*
X58767D02*
X45433D01*
X43574Y773384D01*
X41999Y772331D01*
X40946Y770756D01*
X40577Y768897D01*
Y737783D01*
X40946Y735924D01*
X41999Y734349D01*
X43574Y733296D01*
X45433Y732927D01*
X58767D01*
X60626Y733296D01*
X62201Y734349D01*
X63254Y735924D01*
X63623Y737783D01*
Y768897D01*
X63254Y770756D01*
X62201Y772331D01*
X60626Y773384D01*
X58767Y773753D01*
D02*
G37*
G36*
X31230Y612851D02*
X30812D01*
X29602Y612610D01*
X28575Y611924D01*
X27890Y610898D01*
X27649Y609688D01*
Y608520D01*
X31230D01*
Y612851D01*
D02*
G37*
G36*
Y605980D02*
X27649D01*
Y604813D01*
X27890Y603602D01*
X28575Y602576D01*
X29602Y601890D01*
X30812Y601649D01*
X31230D01*
Y605980D01*
D02*
G37*
G36*
X384168Y773753D02*
X370832D01*
X368974Y773384D01*
X367399Y772331D01*
X366346Y770756D01*
X365977Y768897D01*
Y737783D01*
X366346Y735924D01*
X367399Y734349D01*
X368974Y733296D01*
X370832Y732927D01*
X372871D01*
Y667073D01*
X370832D01*
X368974Y666704D01*
X367399Y665651D01*
X366346Y664076D01*
X365977Y662217D01*
Y631102D01*
X366346Y629244D01*
X367399Y627669D01*
X368974Y626616D01*
X370832Y626247D01*
X372871D01*
Y610115D01*
X371862Y609697D01*
X370303Y608138D01*
X369460Y606102D01*
Y603898D01*
X370303Y601862D01*
X371862Y600303D01*
X373898Y599460D01*
X376102D01*
X378138Y600303D01*
X379697Y601862D01*
X380540Y603898D01*
Y604535D01*
X380773Y604768D01*
X381777Y606270D01*
X382129Y608041D01*
X382129Y608041D01*
Y626247D01*
X384168D01*
X386026Y626616D01*
X387601Y627669D01*
X388654Y629244D01*
X389023Y631102D01*
Y662217D01*
X388654Y664076D01*
X387601Y665651D01*
X386026Y666704D01*
X384168Y667073D01*
X382129D01*
Y732927D01*
X384168D01*
X386026Y733296D01*
X387601Y734349D01*
X388654Y735924D01*
X389023Y737783D01*
Y768897D01*
X388654Y770756D01*
X387601Y772331D01*
X386026Y773384D01*
X384168Y773753D01*
D02*
G37*
G36*
X84167D02*
X70833D01*
X68974Y773384D01*
X67399Y772331D01*
X66346Y770756D01*
X65977Y768897D01*
Y737783D01*
X66346Y735924D01*
X67399Y734349D01*
X68974Y733296D01*
X70833Y732927D01*
X72871D01*
Y667073D01*
X70833D01*
X68974Y666704D01*
X67399Y665651D01*
X66346Y664076D01*
X65977Y662217D01*
Y631102D01*
X66346Y629244D01*
X67399Y627669D01*
X68974Y626616D01*
X70833Y626247D01*
X72871D01*
Y608206D01*
X72803Y608138D01*
X71960Y606102D01*
Y603898D01*
X72803Y601862D01*
X74362Y600303D01*
X76398Y599460D01*
X78602D01*
X80638Y600303D01*
X82197Y601862D01*
X83040Y603898D01*
Y606102D01*
X82197Y608138D01*
X82129Y608206D01*
Y626247D01*
X84167D01*
X86026Y626616D01*
X87601Y627669D01*
X88654Y629244D01*
X89023Y631102D01*
Y662217D01*
X88654Y664076D01*
X87601Y665651D01*
X86026Y666704D01*
X84167Y667073D01*
X82129D01*
Y732927D01*
X84167D01*
X86026Y733296D01*
X87601Y734349D01*
X88654Y735924D01*
X89023Y737783D01*
Y768897D01*
X88654Y770756D01*
X87601Y772331D01*
X86026Y773384D01*
X84167Y773753D01*
D02*
G37*
G36*
X234937Y588851D02*
X233770D01*
Y585270D01*
X238101D01*
Y585688D01*
X237860Y586898D01*
X237174Y587924D01*
X236148Y588610D01*
X234937Y588851D01*
D02*
G37*
G36*
X231230D02*
X230062D01*
X228852Y588610D01*
X227826Y587924D01*
X227140Y586898D01*
X226899Y585688D01*
Y585270D01*
X231230D01*
Y588851D01*
D02*
G37*
G36*
X261188Y581100D02*
X260020D01*
Y577520D01*
X264351D01*
Y577937D01*
X264110Y579148D01*
X263424Y580174D01*
X262398Y580860D01*
X261188Y581100D01*
D02*
G37*
G36*
X257480D02*
X256313D01*
X255102Y580860D01*
X254076Y580174D01*
X253390Y579148D01*
X253149Y577937D01*
Y577520D01*
X257480D01*
Y581100D01*
D02*
G37*
G36*
X288187Y572851D02*
X287020D01*
Y569270D01*
X291351D01*
Y569688D01*
X291110Y570898D01*
X290424Y571924D01*
X289398Y572610D01*
X288187Y572851D01*
D02*
G37*
G36*
X284480D02*
X283312D01*
X282102Y572610D01*
X281076Y571924D01*
X280390Y570898D01*
X280149Y569688D01*
Y569270D01*
X284480D01*
Y572851D01*
D02*
G37*
G36*
X314938Y564851D02*
X313770D01*
Y561270D01*
X318101D01*
Y561687D01*
X317860Y562898D01*
X317174Y563924D01*
X316148Y564610D01*
X314938Y564851D01*
D02*
G37*
G36*
X311230D02*
X310063D01*
X308852Y564610D01*
X307826Y563924D01*
X307140Y562898D01*
X306899Y561687D01*
Y561270D01*
X311230D01*
Y564851D01*
D02*
G37*
G36*
X256601Y531730D02*
X252270D01*
Y528149D01*
X253437D01*
X254648Y528390D01*
X255674Y529076D01*
X256360Y530102D01*
X256601Y531313D01*
Y531730D01*
D02*
G37*
G36*
X249730D02*
X245399D01*
Y531313D01*
X245640Y530102D01*
X246326Y529076D01*
X247352Y528390D01*
X248562Y528149D01*
X249730D01*
Y531730D01*
D02*
G37*
G36*
X312980Y520424D02*
X312563D01*
X311352Y520183D01*
X310326Y519497D01*
X309640Y518471D01*
X309399Y517260D01*
Y516093D01*
X312980D01*
Y520424D01*
D02*
G37*
G36*
X209875Y519117D02*
X205770D01*
Y512270D01*
X213867D01*
Y515125D01*
X213563Y516653D01*
X212698Y517948D01*
X211402Y518813D01*
X209875Y519117D01*
D02*
G37*
G36*
X203230D02*
X199125D01*
X197597Y518813D01*
X196302Y517948D01*
X195437Y516653D01*
X195133Y515125D01*
Y512270D01*
X203230D01*
Y519117D01*
D02*
G37*
G36*
X213867Y509730D02*
X205770D01*
Y502884D01*
X209875D01*
X211402Y503187D01*
X212698Y504053D01*
X213563Y505348D01*
X213867Y506875D01*
Y509730D01*
D02*
G37*
G36*
X203230D02*
X195133D01*
Y506875D01*
X195437Y505348D01*
X196302Y504053D01*
X197597Y503187D01*
X199125Y502884D01*
X203230D01*
Y509730D01*
D02*
G37*
G36*
X312980Y501552D02*
X309399D01*
Y500385D01*
X309640Y499174D01*
X310326Y498148D01*
X311352Y497463D01*
X312563Y497222D01*
X312980D01*
Y501552D01*
D02*
G37*
G36*
X49601Y500480D02*
X45270D01*
Y496899D01*
X46437D01*
X47648Y497140D01*
X48674Y497826D01*
X49360Y498852D01*
X49601Y500063D01*
Y500480D01*
D02*
G37*
G36*
X42730D02*
X38399D01*
Y500063D01*
X38640Y498852D01*
X39325Y497826D01*
X40352Y497140D01*
X41562Y496899D01*
X42730D01*
Y500480D01*
D02*
G37*
G36*
X312980Y457718D02*
X312563D01*
X311352Y457477D01*
X310326Y456792D01*
X309640Y455765D01*
X309399Y454555D01*
Y453387D01*
X312980D01*
Y457718D01*
D02*
G37*
G36*
X312980Y438848D02*
X309399D01*
Y437680D01*
X309640Y436470D01*
X310326Y435443D01*
X311352Y434758D01*
X312563Y434517D01*
X312980D01*
Y438848D01*
D02*
G37*
G36*
X407480Y523980D02*
X403899D01*
Y522812D01*
X404140Y521602D01*
X404826Y520576D01*
X405852Y519890D01*
X407062Y519649D01*
X407480D01*
Y523980D01*
D02*
G37*
G36*
X357606Y425380D02*
X348020D01*
Y420794D01*
X354188D01*
X355496Y421054D01*
X356604Y421795D01*
X357346Y422904D01*
X357606Y424212D01*
Y425380D01*
D02*
G37*
G36*
X345480D02*
X335894D01*
Y424212D01*
X336155Y422904D01*
X336895Y421795D01*
X338004Y421054D01*
X339313Y420794D01*
X345480D01*
Y425380D01*
D02*
G37*
%LPD*%
D10*
X314250Y502822D02*
Y514823D01*
X50500Y501750D02*
X51250Y502500D01*
X7500Y37688D02*
X8426Y38614D01*
X232500Y584000D02*
Y594000D01*
X251000Y523000D02*
Y533000D01*
X312500Y560000D02*
Y570000D01*
X285750Y568000D02*
Y578000D01*
X304250Y502822D02*
X314250D01*
X398750Y525250D02*
X408750D01*
X304250Y514823D02*
X314250D01*
X258750Y576250D02*
Y586250D01*
X44000Y501750D02*
X50500D01*
X51250Y502500D02*
X64400D01*
X346750Y416812D02*
Y426650D01*
X314250Y440118D02*
Y452118D01*
X304250Y440118D02*
X314250D01*
X304250Y452118D02*
X314250D01*
Y438867D02*
Y440118D01*
X34040Y501750D02*
X44000D01*
X23540Y607250D02*
X32500D01*
X50679Y446457D02*
X64357D01*
X53981Y438500D02*
X64400D01*
X37500Y435750D02*
X37500Y435750D01*
Y354750D02*
Y435750D01*
X137500Y354750D02*
Y361500D01*
X134460Y364540D02*
X137500Y361500D01*
X134460Y364540D02*
Y486792D01*
X251000Y542500D02*
X372250D01*
X410000Y580250D01*
Y613000D01*
X430250Y633250D01*
X370000Y550500D02*
X402900Y583400D01*
Y646660D01*
X147250Y630750D02*
X253500D01*
X136000Y642000D02*
X147250Y630750D01*
X253500D02*
X272750Y611500D01*
X136000Y642000D02*
Y749000D01*
X41250Y607250D02*
X48750D01*
X52100Y610600D02*
Y646660D01*
X48750Y607250D02*
X52100Y610600D01*
X42000Y582500D02*
X64400D01*
X102900Y619850D02*
X111500Y611250D01*
X102900Y619850D02*
Y646660D01*
X426660Y753340D02*
X430250Y749750D01*
Y633250D02*
Y749750D01*
X400400Y753340D02*
X426660D01*
X342250Y611500D02*
X352100Y621350D01*
Y646660D01*
X387750Y537250D02*
X408750D01*
X375250Y524750D02*
X387750Y537250D01*
X312500Y550500D02*
X370000D01*
X299750Y565250D02*
Y604250D01*
X307000Y611500D02*
X342250D01*
X299750Y604250D02*
X307000Y611500D01*
X42000Y592000D02*
Y608000D01*
X272750Y573250D02*
Y611500D01*
X111500Y611250D02*
X239250D01*
X245750Y578750D02*
Y604750D01*
X239250Y611250D02*
X245750Y604750D01*
X131660Y753340D02*
X136000Y749000D01*
X105400Y753340D02*
X131660D01*
X375250Y502000D02*
Y524750D01*
X346750Y490150D02*
X363400D01*
X375250Y502000D01*
X142500Y373250D02*
X154080Y384830D01*
Y488330D01*
X141580Y383000D02*
X148540Y389960D01*
Y490625D01*
X47250Y534500D02*
X64400D01*
X332500Y391750D02*
X401500D01*
X418250Y408500D01*
X231250Y477500D02*
X231500Y477250D01*
X231250Y477500D02*
Y517250D01*
X279000Y449500D02*
Y450250D01*
X318900Y490150D01*
X159620Y377620D02*
Y483370D01*
X162750Y486500D02*
X177500D01*
X154080Y488330D02*
X160250Y494500D01*
X177500D01*
X159620Y483370D02*
X162750Y486500D01*
X20250Y448750D02*
X36750Y465250D01*
X20250Y366750D02*
Y448750D01*
X17500Y364000D02*
X20250Y366750D01*
X17500Y354750D02*
Y364000D01*
X381250Y467250D02*
X404150Y490150D01*
X418250D01*
X381250Y454250D02*
Y467250D01*
X53000Y478500D02*
X64400D01*
X85170Y404170D02*
Y535830D01*
X96750Y574500D02*
X107410Y563840D01*
X90710Y397970D02*
Y540541D01*
X101870Y397366D02*
Y542634D01*
X96250Y394261D02*
Y548250D01*
X107410Y386923D02*
Y563840D01*
X318900Y490150D02*
X346750D01*
X261250Y409750D02*
X267500Y403500D01*
X75563Y518494D02*
X77318Y520250D01*
X74464Y526500D02*
X78130Y530166D01*
X77318Y520250D02*
X78130D01*
X64400Y526500D02*
X74464D01*
X78130Y530166D02*
Y530250D01*
X64406Y518494D02*
X75563D01*
X317500Y421500D02*
X323750Y427750D01*
Y440118D01*
X317500Y354750D02*
Y421500D01*
X323750Y514823D02*
X338750D01*
X241000Y542500D02*
X251000D01*
X266250Y566750D02*
X272750Y573250D01*
X203250Y574500D02*
X241500D01*
X203250Y558500D02*
X285750D01*
X258750Y566750D02*
X266250D01*
X221750D02*
X258750D01*
X310250Y550500D02*
X312500D01*
X177500Y566500D02*
X177750Y566750D01*
X212250D01*
X241500Y574500D02*
X245750Y578750D01*
X134460Y486792D02*
X134540Y486872D01*
X141500Y489868D02*
Y507750D01*
X141580Y483956D02*
Y489788D01*
X141500Y393500D02*
Y483876D01*
X141580Y483956D01*
X141500Y507750D02*
X160250Y526500D01*
X141500Y489868D02*
X141580Y489788D01*
X127500Y334750D02*
Y498750D01*
X293000Y558500D02*
X299750Y565250D01*
X286000Y558500D02*
X293000D01*
X241000Y542500D02*
X241000Y542500D01*
X203250Y542500D02*
X241000D01*
X310250Y550500D02*
X310250Y550500D01*
X221749Y550500D02*
X310250D01*
X193750Y574500D02*
X193750Y574500D01*
X177500Y574500D02*
X193750D01*
X193750Y558500D02*
X193750Y558500D01*
X177500Y558500D02*
X193750D01*
X177500Y550500D02*
X212250D01*
X193750Y542500D02*
X193750Y542500D01*
X177500Y542500D02*
X193750D01*
X214000Y534500D02*
X231250Y517250D01*
X177500Y534500D02*
X214000D01*
X197500Y402000D02*
X197500Y402000D01*
Y334750D02*
Y402000D01*
X148540Y503040D02*
X164000Y518500D01*
X148540Y490625D02*
X148540Y490625D01*
Y503040D01*
X160250Y526500D02*
X160250D01*
X64400Y486500D02*
X64525Y486375D01*
X74875D01*
X75000Y486250D01*
X64400Y494500D02*
X78000D01*
X78130Y494370D01*
X57500Y376500D02*
X85170Y404170D01*
X78500Y542500D02*
X85170Y535830D01*
X86000Y558500D02*
X96250Y548250D01*
X80751Y550500D02*
X90710Y540541D01*
X67250Y374510D02*
X90710Y397970D01*
X77500Y375511D02*
X96250Y394261D01*
X101870Y397366D02*
X101870Y397366D01*
X101870Y390632D02*
Y397366D01*
Y542634D02*
Y554630D01*
Y542634D02*
X101870Y542634D01*
X106410Y385923D02*
X107410Y386923D01*
X113750Y378000D02*
Y532743D01*
X119290Y366290D02*
Y519790D01*
X117500Y364500D02*
X119290Y366290D01*
Y519790D02*
X122750Y523250D01*
X64400Y542500D02*
X78500D01*
X90550Y565950D02*
X101870Y554630D01*
X64400Y550500D02*
X80751D01*
X36750Y465250D02*
Y471250D01*
X27500Y334750D02*
Y447750D01*
X34250Y454500D01*
X64400D01*
X50750Y462500D02*
X50803Y462447D01*
X64347D01*
X247500Y354750D02*
Y364588D01*
X237500Y334750D02*
Y344588D01*
X207500Y354750D02*
Y428750D01*
X217500Y334750D02*
Y424500D01*
X64347Y462447D02*
X64400Y462500D01*
Y518500D02*
X64406Y518494D01*
X147500Y365500D02*
X159620Y377620D01*
X147500Y334750D02*
Y365500D01*
X251500Y405000D02*
Y424500D01*
X257500Y334750D02*
Y399000D01*
X251500Y405000D02*
X257500Y399000D01*
X213500Y462500D02*
X251500Y424500D01*
X267500Y354750D02*
Y403500D01*
X87500Y376262D02*
X101870Y390632D01*
X117500Y354750D02*
Y364500D01*
X64649Y470251D02*
X73491D01*
X77750Y465993D01*
X64400Y470500D02*
X64649Y470251D01*
X77750Y412000D02*
Y465993D01*
X47500Y381750D02*
X77750Y412000D01*
X47500Y334750D02*
Y381750D01*
X113750Y532743D02*
X117000Y535993D01*
X157500Y364588D02*
X157581Y364669D01*
X157500Y354750D02*
Y364588D01*
X167500Y470500D02*
X177500D01*
X167500Y454500D02*
X177500D01*
X107500Y371750D02*
X113750Y378000D01*
X107500Y334750D02*
Y371750D01*
X210250Y446500D02*
X227500Y429250D01*
Y354750D02*
Y429250D01*
X197750Y438500D02*
X207500Y428750D01*
X177500Y438500D02*
X197750D01*
X57500Y354750D02*
Y376500D01*
X106410Y385910D02*
Y385923D01*
X97500Y377000D02*
X106410Y385910D01*
X64400Y558500D02*
X86000D01*
X64950Y565950D02*
X90550D01*
X64400Y574500D02*
X96750D01*
X160250Y526500D02*
X177500D01*
Y354750D02*
Y364750D01*
X164000Y518500D02*
X177500D01*
X167500Y334750D02*
Y344750D01*
X177500Y446500D02*
X210250D01*
X177500Y462500D02*
X213500D01*
X277500Y334750D02*
Y344750D01*
X87500Y334750D02*
Y376262D01*
X77500Y354750D02*
Y375511D01*
X97500Y354750D02*
Y377000D01*
X67250Y335000D02*
X67500Y334750D01*
X67250Y335000D02*
Y374510D01*
X64400Y566500D02*
X64950Y565950D01*
X418250Y408500D02*
Y426650D01*
X366350Y439350D02*
X381250Y454250D01*
X346750Y439350D02*
X366350D01*
X323750Y440118D02*
Y452118D01*
X341683D01*
X347500Y354750D02*
Y364750D01*
X346723Y502822D02*
X346750Y502850D01*
X323750Y502822D02*
X341723D01*
X323750D02*
Y514823D01*
X418250Y439350D02*
Y452050D01*
X346683Y452118D02*
X346750Y452050D01*
X204000Y478500D02*
X204500Y478000D01*
X418250Y464750D02*
Y477450D01*
Y452050D02*
Y464750D01*
X346750D02*
Y477450D01*
Y452050D02*
Y464750D01*
X347500Y15250D02*
Y345250D01*
X317500Y15250D02*
Y345250D01*
X277500Y15250D02*
Y325250D01*
X267500Y15250D02*
Y345250D01*
X257500Y15250D02*
Y325250D01*
X247500Y15250D02*
Y345250D01*
X237500Y15250D02*
Y325250D01*
X227500Y15250D02*
Y345250D01*
X217500Y15250D02*
Y325250D01*
X207500Y15250D02*
Y345250D01*
X197500Y15250D02*
Y325250D01*
X177500Y15250D02*
Y345250D01*
X167500Y15250D02*
Y325250D01*
X157500Y15250D02*
Y345250D01*
X147500Y15250D02*
Y325250D01*
X127500Y15250D02*
Y325250D01*
X107500Y15250D02*
Y325250D01*
X87500Y15250D02*
Y325250D01*
X67500Y15250D02*
Y325250D01*
X47500Y15250D02*
Y325250D01*
X27500Y15250D02*
Y325250D01*
X137500Y15250D02*
Y345250D01*
X117500Y15250D02*
Y345250D01*
X97500Y15250D02*
Y345250D01*
X77500Y15250D02*
Y345250D01*
X57500Y15250D02*
Y345250D01*
X37500Y15250D02*
Y345250D01*
X17500Y15250D02*
Y345250D01*
D12*
X204500Y511000D02*
D03*
Y478000D02*
D03*
D13*
X314250Y514823D02*
D03*
Y502822D02*
D03*
X408750Y525250D02*
D03*
X314250Y440118D02*
D03*
Y452118D02*
D03*
X32500Y607250D02*
D03*
X418250Y537250D02*
D03*
X408750D02*
D03*
X42000Y607250D02*
D03*
X323750Y452118D02*
D03*
Y440118D02*
D03*
X193750Y574500D02*
D03*
X203250D02*
D03*
X212250Y566750D02*
D03*
X221750D02*
D03*
X193750Y558500D02*
D03*
X203250D02*
D03*
X212250Y550500D02*
D03*
X221749D02*
D03*
X193750Y542500D02*
D03*
X203250D02*
D03*
X418250Y525250D02*
D03*
X323750Y502822D02*
D03*
Y514823D02*
D03*
D14*
X44000Y501750D02*
D03*
X312500Y560000D02*
D03*
X285750Y568000D02*
D03*
X232500Y584000D02*
D03*
X258750Y576250D02*
D03*
X251000Y533000D02*
D03*
Y542500D02*
D03*
X42000Y592000D02*
D03*
Y582500D02*
D03*
X258750Y566750D02*
D03*
X17500Y345250D02*
D03*
Y354750D02*
D03*
X27500Y325250D02*
D03*
Y334750D02*
D03*
X37500Y345250D02*
D03*
Y354750D02*
D03*
X232500Y574500D02*
D03*
X47500Y325250D02*
D03*
Y334750D02*
D03*
X57500Y345250D02*
D03*
Y354750D02*
D03*
X285750Y558500D02*
D03*
X67500Y325250D02*
D03*
Y334750D02*
D03*
X312500Y550500D02*
D03*
X77500Y345250D02*
D03*
Y354750D02*
D03*
X87500Y325250D02*
D03*
Y334750D02*
D03*
X97500Y345250D02*
D03*
Y354750D02*
D03*
X107500Y325250D02*
D03*
Y334750D02*
D03*
X117500Y345250D02*
D03*
Y354750D02*
D03*
X127500Y325250D02*
D03*
Y334750D02*
D03*
X137500Y345250D02*
D03*
Y354750D02*
D03*
X147500Y325250D02*
D03*
Y334750D02*
D03*
X157500Y345250D02*
D03*
Y354750D02*
D03*
X167500Y325250D02*
D03*
Y334750D02*
D03*
X177500Y345250D02*
D03*
Y354750D02*
D03*
X197500Y325250D02*
D03*
Y334750D02*
D03*
X207500Y345250D02*
D03*
Y354750D02*
D03*
X217500Y325250D02*
D03*
Y334750D02*
D03*
X227500Y345250D02*
D03*
Y354750D02*
D03*
X237500Y325250D02*
D03*
Y334750D02*
D03*
X247500Y345250D02*
D03*
Y354750D02*
D03*
X257500Y325250D02*
D03*
Y334750D02*
D03*
X267500Y345250D02*
D03*
Y354750D02*
D03*
X277500Y325250D02*
D03*
Y334750D02*
D03*
X317500Y345250D02*
D03*
Y354750D02*
D03*
X44000Y511250D02*
D03*
X347500Y345250D02*
D03*
Y354750D02*
D03*
D15*
X346750Y426650D02*
D03*
Y502850D02*
D03*
Y490150D02*
D03*
Y477450D02*
D03*
Y464750D02*
D03*
Y452050D02*
D03*
Y439350D02*
D03*
X418250Y502850D02*
D03*
Y490150D02*
D03*
Y477450D02*
D03*
Y464750D02*
D03*
Y452050D02*
D03*
Y439350D02*
D03*
Y426650D02*
D03*
D16*
X437500Y15250D02*
D03*
X7500D02*
D03*
X27500D02*
D03*
X37500D02*
D03*
X47500D02*
D03*
X57500D02*
D03*
X67500D02*
D03*
X77500D02*
D03*
X87500D02*
D03*
X97500D02*
D03*
X107500D02*
D03*
X117500D02*
D03*
X127500D02*
D03*
X137500D02*
D03*
X147500D02*
D03*
X157500D02*
D03*
X167500D02*
D03*
X177500D02*
D03*
X187500D02*
D03*
X197500D02*
D03*
X207500D02*
D03*
X217500D02*
D03*
X227500D02*
D03*
X237500D02*
D03*
X247500D02*
D03*
X257500D02*
D03*
X267500D02*
D03*
X277500D02*
D03*
X287500D02*
D03*
X297500D02*
D03*
X307500D02*
D03*
X317500D02*
D03*
X327500D02*
D03*
X337500D02*
D03*
X347500D02*
D03*
X357500D02*
D03*
X367500D02*
D03*
X377500D02*
D03*
X387500D02*
D03*
X397500D02*
D03*
X407500D02*
D03*
X417500D02*
D03*
X427500D02*
D03*
X447500D02*
D03*
X17500D02*
D03*
D17*
X64400Y502500D02*
D03*
X177500Y510500D02*
D03*
Y590500D02*
D03*
Y582500D02*
D03*
Y574500D02*
D03*
Y566500D02*
D03*
Y558500D02*
D03*
Y550500D02*
D03*
Y542500D02*
D03*
Y534500D02*
D03*
Y526500D02*
D03*
Y518500D02*
D03*
Y502500D02*
D03*
Y494500D02*
D03*
Y486500D02*
D03*
Y478500D02*
D03*
Y470500D02*
D03*
Y462500D02*
D03*
Y454500D02*
D03*
Y446500D02*
D03*
Y438500D02*
D03*
Y430500D02*
D03*
Y422500D02*
D03*
X64400D02*
D03*
Y430500D02*
D03*
Y438500D02*
D03*
Y446500D02*
D03*
Y454500D02*
D03*
Y462500D02*
D03*
Y470500D02*
D03*
Y478500D02*
D03*
Y486500D02*
D03*
Y494500D02*
D03*
Y510500D02*
D03*
Y518500D02*
D03*
Y526500D02*
D03*
Y534500D02*
D03*
Y542500D02*
D03*
Y550500D02*
D03*
Y558500D02*
D03*
Y566500D02*
D03*
Y574500D02*
D03*
Y582500D02*
D03*
Y590500D02*
D03*
D18*
X352100Y646660D02*
D03*
X377500D02*
D03*
X402900D02*
D03*
Y753340D02*
D03*
X377500D02*
D03*
X352100D02*
D03*
X52100Y646660D02*
D03*
X77500D02*
D03*
X102900D02*
D03*
Y753340D02*
D03*
X77500D02*
D03*
X52100D02*
D03*
D27*
X177500Y510500D02*
X204000D01*
X204500Y511000D01*
Y520838D01*
X77500Y605000D02*
Y753340D01*
X375000Y605541D02*
X377500Y608041D01*
Y753340D01*
X375000Y605000D02*
Y605541D01*
X166250Y502500D02*
X177500D01*
X418250Y525250D02*
Y537250D01*
Y502850D02*
Y525250D01*
X444750D02*
X447500Y528000D01*
X418250Y525250D02*
X444750D01*
X44000Y511250D02*
X50500D01*
X34000D02*
X44000D01*
X64400Y510500D02*
X77750D01*
X51251D02*
X64400D01*
X50500Y511250D02*
X51251Y510500D01*
X177500Y478500D02*
X204000D01*
D28*
X7500Y15250D02*
Y37688D01*
X437500Y15250D02*
Y40750D01*
X7500Y37688D02*
Y375750D01*
Y607000D01*
X447500Y528000D02*
Y596750D01*
Y15250D02*
Y528000D01*
X439250Y605000D02*
X447500Y596750D01*
D29*
X227500Y730000D02*
D03*
D30*
X8750Y202500D02*
D03*
Y375750D02*
D03*
Y46000D02*
D03*
X232500Y594000D02*
D03*
X251000Y523000D02*
D03*
X312500Y570000D02*
D03*
X285750Y578000D02*
D03*
X304250Y502822D02*
D03*
X398750Y525250D02*
D03*
X304250Y514823D02*
D03*
X258750Y586250D02*
D03*
X346669Y416731D02*
D03*
X23540Y607331D02*
D03*
X204581Y520919D02*
D03*
X304250Y452118D02*
D03*
Y440118D02*
D03*
X34040Y501750D02*
D03*
X20000Y466000D02*
D03*
Y526000D02*
D03*
Y586000D02*
D03*
Y646000D02*
D03*
X35000Y676000D02*
D03*
X20000Y706000D02*
D03*
X35000Y736000D02*
D03*
X65000Y616000D02*
D03*
Y676000D02*
D03*
X50000Y706000D02*
D03*
X80000Y586000D02*
D03*
X95000Y616000D02*
D03*
Y676000D02*
D03*
X110000Y586000D02*
D03*
X125000Y676000D02*
D03*
X110000Y706000D02*
D03*
X125000Y736000D02*
D03*
X140000Y526000D02*
D03*
X155000Y556000D02*
D03*
X140000Y586000D02*
D03*
X155000Y676000D02*
D03*
Y736000D02*
D03*
X170000Y646000D02*
D03*
Y706000D02*
D03*
X185000Y736000D02*
D03*
X200000Y586000D02*
D03*
Y646000D02*
D03*
X230000D02*
D03*
X260000Y466000D02*
D03*
Y646000D02*
D03*
X275000Y736000D02*
D03*
X290000Y46000D02*
D03*
X305000Y76000D02*
D03*
X290000Y106000D02*
D03*
X305000Y136000D02*
D03*
X290000Y166000D02*
D03*
X305000Y196000D02*
D03*
X290000Y226000D02*
D03*
X305000Y256000D02*
D03*
X290000Y286000D02*
D03*
X305000Y316000D02*
D03*
X290000Y346000D02*
D03*
X305000Y376000D02*
D03*
X290000Y406000D02*
D03*
Y526000D02*
D03*
Y646000D02*
D03*
X305000Y676000D02*
D03*
X290000Y706000D02*
D03*
X305000Y736000D02*
D03*
X335000Y76000D02*
D03*
Y136000D02*
D03*
Y196000D02*
D03*
Y256000D02*
D03*
Y316000D02*
D03*
Y376000D02*
D03*
X320000Y526000D02*
D03*
Y586000D02*
D03*
Y646000D02*
D03*
X335000Y676000D02*
D03*
X320000Y706000D02*
D03*
X335000Y736000D02*
D03*
X365000Y76000D02*
D03*
Y136000D02*
D03*
Y196000D02*
D03*
Y256000D02*
D03*
Y316000D02*
D03*
Y376000D02*
D03*
X350000Y526000D02*
D03*
Y586000D02*
D03*
X365000Y616000D02*
D03*
Y676000D02*
D03*
X350000Y706000D02*
D03*
X380000Y46000D02*
D03*
X395000Y76000D02*
D03*
X380000Y106000D02*
D03*
X395000Y136000D02*
D03*
X380000Y166000D02*
D03*
X395000Y196000D02*
D03*
X380000Y226000D02*
D03*
X395000Y256000D02*
D03*
X380000Y286000D02*
D03*
X395000Y316000D02*
D03*
X380000Y346000D02*
D03*
X395000Y376000D02*
D03*
X380000Y406000D02*
D03*
X395000Y436000D02*
D03*
Y496000D02*
D03*
X380000Y586000D02*
D03*
X395000Y616000D02*
D03*
Y676000D02*
D03*
X410000Y46000D02*
D03*
X425000Y76000D02*
D03*
X410000Y106000D02*
D03*
X425000Y136000D02*
D03*
X410000Y166000D02*
D03*
X425000Y196000D02*
D03*
X410000Y226000D02*
D03*
X425000Y256000D02*
D03*
X410000Y286000D02*
D03*
X425000Y316000D02*
D03*
X410000Y346000D02*
D03*
X425000Y376000D02*
D03*
Y556000D02*
D03*
Y616000D02*
D03*
X410000Y706000D02*
D03*
X50679Y446457D02*
D03*
X53981Y438581D02*
D03*
X37500Y435750D02*
D03*
X77500Y605000D02*
D03*
X439250D02*
D03*
X375000D02*
D03*
X47250Y534500D02*
D03*
X332500Y391750D02*
D03*
X231500Y477250D02*
D03*
X279000Y449500D02*
D03*
X166250Y502500D02*
D03*
X77750Y510500D02*
D03*
X261250Y409750D02*
D03*
X78130Y520250D02*
D03*
X338750Y514823D02*
D03*
X134540Y486872D02*
D03*
X197500Y402000D02*
D03*
X141500Y393500D02*
D03*
X142500Y373250D02*
D03*
X141580Y383000D02*
D03*
X127500Y498750D02*
D03*
X75000Y486250D02*
D03*
X78130Y494370D02*
D03*
Y530250D02*
D03*
X50750Y462500D02*
D03*
X36750Y471250D02*
D03*
X247581Y364669D02*
D03*
X237582Y344669D02*
D03*
X117000Y536000D02*
D03*
X122750Y523250D02*
D03*
X157581Y364669D02*
D03*
X167500Y470500D02*
D03*
Y454500D02*
D03*
X53000Y478500D02*
D03*
X217500Y424500D02*
D03*
X177500Y364750D02*
D03*
X167500Y344750D02*
D03*
X277500D02*
D03*
X34000Y511250D02*
D03*
X347500Y364750D02*
D03*
M02*
