G04*
G04 #@! TF.GenerationSoftware,Altium Limited,Altium Designer,25.4.2 (15)*
G04*
G04 Layer_Color=8421504*
%FSLAX44Y44*%
%MOMM*%
G71*
G04*
G04 #@! TF.SameCoordinates,8BB3DE61-D15D-4615-A688-D497E92F8216*
G04*
G04*
G04 #@! TF.FilePolarity,Positive*
G04*
G01*
G75*
G04:AMPARAMS|DCode=12|XSize=1.1mm|YSize=1.35mm|CornerRadius=0.1375mm|HoleSize=0mm|Usage=FLASHONLY|Rotation=90.000|XOffset=0mm|YOffset=0mm|HoleType=Round|Shape=RoundedRectangle|*
%AMROUNDEDRECTD12*
21,1,1.1000,1.0750,0,0,90.0*
21,1,0.8250,1.3500,0,0,90.0*
1,1,0.2750,0.5375,0.4125*
1,1,0.2750,0.5375,-0.4125*
1,1,0.2750,-0.5375,-0.4125*
1,1,0.2750,-0.5375,0.4125*
%
%ADD12ROUNDEDRECTD12*%
G04:AMPARAMS|DCode=13|XSize=0.6mm|YSize=0.45mm|CornerRadius=0.0563mm|HoleSize=0mm|Usage=FLASHONLY|Rotation=90.000|XOffset=0mm|YOffset=0mm|HoleType=Round|Shape=RoundedRectangle|*
%AMROUNDEDRECTD13*
21,1,0.6000,0.3375,0,0,90.0*
21,1,0.4875,0.4500,0,0,90.0*
1,1,0.1125,0.1688,0.2438*
1,1,0.1125,0.1688,-0.2438*
1,1,0.1125,-0.1688,-0.2438*
1,1,0.1125,-0.1688,0.2438*
%
%ADD13ROUNDEDRECTD13*%
G04:AMPARAMS|DCode=14|XSize=0.6mm|YSize=0.45mm|CornerRadius=0.0563mm|HoleSize=0mm|Usage=FLASHONLY|Rotation=180.000|XOffset=0mm|YOffset=0mm|HoleType=Round|Shape=RoundedRectangle|*
%AMROUNDEDRECTD14*
21,1,0.6000,0.3375,0,0,180.0*
21,1,0.4875,0.4500,0,0,180.0*
1,1,0.1125,-0.2438,0.1688*
1,1,0.1125,0.2438,0.1688*
1,1,0.1125,0.2438,-0.1688*
1,1,0.1125,-0.2438,-0.1688*
%
%ADD14ROUNDEDRECTD14*%
G04:AMPARAMS|DCode=15|XSize=0.65mm|YSize=1.65mm|CornerRadius=0.0813mm|HoleSize=0mm|Usage=FLASHONLY|Rotation=90.000|XOffset=0mm|YOffset=0mm|HoleType=Round|Shape=RoundedRectangle|*
%AMROUNDEDRECTD15*
21,1,0.6500,1.4875,0,0,90.0*
21,1,0.4875,1.6500,0,0,90.0*
1,1,0.1625,0.7438,0.2438*
1,1,0.1625,0.7438,-0.2438*
1,1,0.1625,-0.7438,-0.2438*
1,1,0.1625,-0.7438,0.2438*
%
%ADD15ROUNDEDRECTD15*%
%ADD16R,0.6000X3.0500*%
G04:AMPARAMS|DCode=17|XSize=1.36mm|YSize=0.51mm|CornerRadius=0.0638mm|HoleSize=0mm|Usage=FLASHONLY|Rotation=0.000|XOffset=0mm|YOffset=0mm|HoleType=Round|Shape=RoundedRectangle|*
%AMROUNDEDRECTD17*
21,1,1.3600,0.3825,0,0,0.0*
21,1,1.2325,0.5100,0,0,0.0*
1,1,0.1275,0.6163,-0.1913*
1,1,0.1275,-0.6163,-0.1913*
1,1,0.1275,-0.6163,0.1913*
1,1,0.1275,0.6163,0.1913*
%
%ADD17ROUNDEDRECTD17*%
G04:AMPARAMS|DCode=18|XSize=1.778mm|YSize=3.556mm|CornerRadius=0.2223mm|HoleSize=0mm|Usage=FLASHONLY|Rotation=0.000|XOffset=0mm|YOffset=0mm|HoleType=Round|Shape=RoundedRectangle|*
%AMROUNDEDRECTD18*
21,1,1.7780,3.1115,0,0,0.0*
21,1,1.3335,3.5560,0,0,0.0*
1,1,0.4445,0.6668,-1.5558*
1,1,0.4445,-0.6668,-1.5558*
1,1,0.4445,-0.6668,1.5558*
1,1,0.4445,0.6668,1.5558*
%
%ADD18ROUNDEDRECTD18*%
D12*
X204500Y511000D02*
D03*
Y478000D02*
D03*
D13*
X314250Y514823D02*
D03*
Y502822D02*
D03*
X408750Y525250D02*
D03*
X314250Y440118D02*
D03*
Y452118D02*
D03*
X32500Y607250D02*
D03*
X418250Y537250D02*
D03*
X408750D02*
D03*
X42000Y607250D02*
D03*
X323750Y452118D02*
D03*
Y440118D02*
D03*
X193750Y574500D02*
D03*
X203250D02*
D03*
X212250Y566750D02*
D03*
X221750D02*
D03*
X193750Y558500D02*
D03*
X203250D02*
D03*
X212250Y550500D02*
D03*
X221749D02*
D03*
X193750Y542500D02*
D03*
X203250D02*
D03*
X418250Y525250D02*
D03*
X323750Y502822D02*
D03*
Y514823D02*
D03*
D14*
X44000Y501750D02*
D03*
X312500Y560000D02*
D03*
X285750Y568000D02*
D03*
X232500Y584000D02*
D03*
X258750Y576250D02*
D03*
X251000Y533000D02*
D03*
Y542500D02*
D03*
X42000Y592000D02*
D03*
Y582500D02*
D03*
X258750Y566750D02*
D03*
X17500Y345250D02*
D03*
Y354750D02*
D03*
X27500Y325250D02*
D03*
Y334750D02*
D03*
X37500Y345250D02*
D03*
Y354750D02*
D03*
X232500Y574500D02*
D03*
X47500Y325250D02*
D03*
Y334750D02*
D03*
X57500Y345250D02*
D03*
Y354750D02*
D03*
X285750Y558500D02*
D03*
X67500Y325250D02*
D03*
Y334750D02*
D03*
X312500Y550500D02*
D03*
X77500Y345250D02*
D03*
Y354750D02*
D03*
X87500Y325250D02*
D03*
Y334750D02*
D03*
X97500Y345250D02*
D03*
Y354750D02*
D03*
X107500Y325250D02*
D03*
Y334750D02*
D03*
X117500Y345250D02*
D03*
Y354750D02*
D03*
X127500Y325250D02*
D03*
Y334750D02*
D03*
X137500Y345250D02*
D03*
Y354750D02*
D03*
X147500Y325250D02*
D03*
Y334750D02*
D03*
X157500Y345250D02*
D03*
Y354750D02*
D03*
X167500Y325250D02*
D03*
Y334750D02*
D03*
X177500Y345250D02*
D03*
Y354750D02*
D03*
X197500Y325250D02*
D03*
Y334750D02*
D03*
X207500Y345250D02*
D03*
Y354750D02*
D03*
X217500Y325250D02*
D03*
Y334750D02*
D03*
X227500Y345250D02*
D03*
Y354750D02*
D03*
X237500Y325250D02*
D03*
Y334750D02*
D03*
X247500Y345250D02*
D03*
Y354750D02*
D03*
X257500Y325250D02*
D03*
Y334750D02*
D03*
X267500Y345250D02*
D03*
Y354750D02*
D03*
X277500Y325250D02*
D03*
Y334750D02*
D03*
X317500Y345250D02*
D03*
Y354750D02*
D03*
X44000Y511250D02*
D03*
X347500Y345250D02*
D03*
Y354750D02*
D03*
D15*
X346750Y426650D02*
D03*
Y502850D02*
D03*
Y490150D02*
D03*
Y477450D02*
D03*
Y464750D02*
D03*
Y452050D02*
D03*
Y439350D02*
D03*
X418250Y502850D02*
D03*
Y490150D02*
D03*
Y477450D02*
D03*
Y464750D02*
D03*
Y452050D02*
D03*
Y439350D02*
D03*
Y426650D02*
D03*
D16*
X437500Y15250D02*
D03*
X7500D02*
D03*
X27500D02*
D03*
X37500D02*
D03*
X47500D02*
D03*
X57500D02*
D03*
X67500D02*
D03*
X77500D02*
D03*
X87500D02*
D03*
X97500D02*
D03*
X107500D02*
D03*
X117500D02*
D03*
X127500D02*
D03*
X137500D02*
D03*
X147500D02*
D03*
X157500D02*
D03*
X167500D02*
D03*
X177500D02*
D03*
X187500D02*
D03*
X197500D02*
D03*
X207500D02*
D03*
X217500D02*
D03*
X227500D02*
D03*
X237500D02*
D03*
X247500D02*
D03*
X257500D02*
D03*
X267500D02*
D03*
X277500D02*
D03*
X287500D02*
D03*
X297500D02*
D03*
X307500D02*
D03*
X317500D02*
D03*
X327500D02*
D03*
X337500D02*
D03*
X347500D02*
D03*
X357500D02*
D03*
X367500D02*
D03*
X377500D02*
D03*
X387500D02*
D03*
X397500D02*
D03*
X407500D02*
D03*
X417500D02*
D03*
X427500D02*
D03*
X447500D02*
D03*
X17500D02*
D03*
D17*
X64400Y502500D02*
D03*
X177500Y510500D02*
D03*
Y590500D02*
D03*
Y582500D02*
D03*
Y574500D02*
D03*
Y566500D02*
D03*
Y558500D02*
D03*
Y550500D02*
D03*
Y542500D02*
D03*
Y534500D02*
D03*
Y526500D02*
D03*
Y518500D02*
D03*
Y502500D02*
D03*
Y494500D02*
D03*
Y486500D02*
D03*
Y478500D02*
D03*
Y470500D02*
D03*
Y462500D02*
D03*
Y454500D02*
D03*
Y446500D02*
D03*
Y438500D02*
D03*
Y430500D02*
D03*
Y422500D02*
D03*
X64400D02*
D03*
Y430500D02*
D03*
Y438500D02*
D03*
Y446500D02*
D03*
Y454500D02*
D03*
Y462500D02*
D03*
Y470500D02*
D03*
Y478500D02*
D03*
Y486500D02*
D03*
Y494500D02*
D03*
Y510500D02*
D03*
Y518500D02*
D03*
Y526500D02*
D03*
Y534500D02*
D03*
Y542500D02*
D03*
Y550500D02*
D03*
Y558500D02*
D03*
Y566500D02*
D03*
Y574500D02*
D03*
Y582500D02*
D03*
Y590500D02*
D03*
D18*
X352100Y646660D02*
D03*
X377500D02*
D03*
X402900D02*
D03*
Y753340D02*
D03*
X377500D02*
D03*
X352100D02*
D03*
X52100Y646660D02*
D03*
X77500D02*
D03*
X102900D02*
D03*
Y753340D02*
D03*
X77500D02*
D03*
X52100D02*
D03*
M02*
