G04*
G04 #@! TF.GenerationSoftware,Altium Limited,Altium Designer,25.4.2 (15)*
G04*
G04 Layer_Color=8388736*
%FSLAX44Y44*%
%MOMM*%
G71*
G04*
G04 #@! TF.SameCoordinates,8BB3DE61-D15D-4615-A688-D497E92F8216*
G04*
G04*
G04 #@! TF.FilePolarity,Negative*
G04*
G01*
G75*
G04:AMPARAMS|DCode=19|XSize=1.2mm|YSize=1.45mm|CornerRadius=0.1875mm|HoleSize=0mm|Usage=FLASHONLY|Rotation=90.000|XOffset=0mm|YOffset=0mm|HoleType=Round|Shape=RoundedRectangle|*
%AMROUNDEDRECTD19*
21,1,1.2000,1.0750,0,0,90.0*
21,1,0.8250,1.4500,0,0,90.0*
1,1,0.3750,0.5375,0.4125*
1,1,0.3750,0.5375,-0.4125*
1,1,0.3750,-0.5375,-0.4125*
1,1,0.3750,-0.5375,0.4125*
%
%ADD19ROUNDEDRECTD19*%
G04:AMPARAMS|DCode=20|XSize=0.7mm|YSize=0.55mm|CornerRadius=0.1063mm|HoleSize=0mm|Usage=FLASHONLY|Rotation=90.000|XOffset=0mm|YOffset=0mm|HoleType=Round|Shape=RoundedRectangle|*
%AMROUNDEDRECTD20*
21,1,0.7000,0.3375,0,0,90.0*
21,1,0.4875,0.5500,0,0,90.0*
1,1,0.2125,0.1688,0.2438*
1,1,0.2125,0.1688,-0.2438*
1,1,0.2125,-0.1688,-0.2438*
1,1,0.2125,-0.1688,0.2438*
%
%ADD20ROUNDEDRECTD20*%
G04:AMPARAMS|DCode=21|XSize=0.7mm|YSize=0.55mm|CornerRadius=0.1063mm|HoleSize=0mm|Usage=FLASHONLY|Rotation=180.000|XOffset=0mm|YOffset=0mm|HoleType=Round|Shape=RoundedRectangle|*
%AMROUNDEDRECTD21*
21,1,0.7000,0.3375,0,0,180.0*
21,1,0.4875,0.5500,0,0,180.0*
1,1,0.2125,-0.2438,0.1688*
1,1,0.2125,0.2438,0.1688*
1,1,0.2125,0.2438,-0.1688*
1,1,0.2125,-0.2438,-0.1688*
%
%ADD21ROUNDEDRECTD21*%
G04:AMPARAMS|DCode=22|XSize=0.75mm|YSize=1.75mm|CornerRadius=0.1313mm|HoleSize=0mm|Usage=FLASHONLY|Rotation=90.000|XOffset=0mm|YOffset=0mm|HoleType=Round|Shape=RoundedRectangle|*
%AMROUNDEDRECTD22*
21,1,0.7500,1.4875,0,0,90.0*
21,1,0.4875,1.7500,0,0,90.0*
1,1,0.2625,0.7438,0.2438*
1,1,0.2625,0.7438,-0.2438*
1,1,0.2625,-0.7438,-0.2438*
1,1,0.2625,-0.7438,0.2438*
%
%ADD22ROUNDEDRECTD22*%
%ADD23R,0.7000X3.1500*%
G04:AMPARAMS|DCode=24|XSize=1.46mm|YSize=0.61mm|CornerRadius=0.1138mm|HoleSize=0mm|Usage=FLASHONLY|Rotation=0.000|XOffset=0mm|YOffset=0mm|HoleType=Round|Shape=RoundedRectangle|*
%AMROUNDEDRECTD24*
21,1,1.4600,0.3825,0,0,0.0*
21,1,1.2325,0.6100,0,0,0.0*
1,1,0.2275,0.6163,-0.1913*
1,1,0.2275,-0.6163,-0.1913*
1,1,0.2275,-0.6163,0.1913*
1,1,0.2275,0.6163,0.1913*
%
%ADD24ROUNDEDRECTD24*%
G04:AMPARAMS|DCode=25|XSize=1.878mm|YSize=3.656mm|CornerRadius=0.2723mm|HoleSize=0mm|Usage=FLASHONLY|Rotation=0.000|XOffset=0mm|YOffset=0mm|HoleType=Round|Shape=RoundedRectangle|*
%AMROUNDEDRECTD25*
21,1,1.8780,3.1115,0,0,0.0*
21,1,1.3335,3.6560,0,0,0.0*
1,1,0.5445,0.6668,-1.5558*
1,1,0.5445,-0.6668,-1.5558*
1,1,0.5445,-0.6668,1.5558*
1,1,0.5445,0.6668,1.5558*
%
%ADD25ROUNDEDRECTD25*%
%ADD26C,6.1000*%
G36*
X212400Y673580D02*
X212494D01*
X212533Y673574D01*
X212627D01*
X212743Y673563D01*
X212876Y673552D01*
X213020Y673541D01*
X213181Y673519D01*
X213341Y673491D01*
X213513Y673464D01*
X213679Y673419D01*
X213851Y673375D01*
X214011Y673320D01*
X214166Y673253D01*
X214305Y673181D01*
X214432Y673093D01*
X214438Y673087D01*
X214460Y673070D01*
X214493Y673037D01*
X214532Y672999D01*
X214582Y672937D01*
X214632Y672866D01*
X214692Y672783D01*
X214753Y672677D01*
X214809Y672561D01*
X214870Y672428D01*
X214919Y672273D01*
X214969Y672107D01*
X215008Y671919D01*
X215041Y671708D01*
X215063Y671481D01*
X215069Y671232D01*
Y671110D01*
X212959D01*
Y671116D01*
Y671121D01*
Y671155D01*
X212954Y671199D01*
X212948Y671260D01*
X212943Y671326D01*
X212926Y671398D01*
X212910Y671470D01*
X212882Y671537D01*
X212876Y671542D01*
X212865Y671564D01*
X212849Y671598D01*
X212821Y671636D01*
X212782Y671681D01*
X212732Y671719D01*
X212677Y671758D01*
X212605Y671791D01*
X212594Y671797D01*
X212572Y671802D01*
X212533Y671819D01*
X212483Y671830D01*
X212422Y671847D01*
X212356Y671863D01*
X212289Y671874D01*
X212217Y671886D01*
X212206D01*
X212184Y671891D01*
X212140D01*
X212084Y671897D01*
X212007D01*
X211913Y671902D01*
X211680D01*
X209188Y671908D01*
X209116D01*
X209067Y671902D01*
X209006Y671897D01*
X208934Y671886D01*
X208856Y671874D01*
X208779Y671863D01*
X208613Y671819D01*
X208535Y671786D01*
X208458Y671753D01*
X208386Y671708D01*
X208319Y671658D01*
X208264Y671603D01*
X208220Y671537D01*
Y671531D01*
X208208Y671520D01*
X208203Y671498D01*
X208186Y671465D01*
X208175Y671426D01*
X208159Y671376D01*
X208136Y671315D01*
X208120Y671243D01*
X208103Y671160D01*
X208081Y671071D01*
X208064Y670966D01*
X208053Y670856D01*
X208037Y670728D01*
X208031Y670595D01*
X208020Y670451D01*
Y670291D01*
Y669632D01*
Y669626D01*
Y669599D01*
Y669560D01*
X208026Y669510D01*
Y669449D01*
X208031Y669383D01*
X208037Y669305D01*
X208048Y669222D01*
X208070Y669045D01*
X208103Y668868D01*
X208125Y668779D01*
X208153Y668696D01*
X208186Y668618D01*
X208220Y668547D01*
Y668541D01*
X208230Y668530D01*
X208242Y668513D01*
X208258Y668491D01*
X208302Y668430D01*
X208363Y668364D01*
X208447Y668292D01*
X208546Y668225D01*
X208657Y668176D01*
X208723Y668153D01*
X208790Y668142D01*
X208806D01*
X208829Y668137D01*
X208851D01*
X208884Y668131D01*
X208917Y668126D01*
X209006Y668115D01*
X209094Y668104D01*
X209194Y668098D01*
X209283Y668087D01*
X209366Y668081D01*
X209504D01*
X209582Y668076D01*
X209875D01*
X211796Y668065D01*
X211846D01*
X211885Y668070D01*
X211929D01*
X211985Y668076D01*
X212046Y668081D01*
X212107Y668087D01*
X212245Y668109D01*
X212383Y668142D01*
X212522Y668181D01*
X212649Y668242D01*
X212655D01*
X212660Y668253D01*
X212677Y668264D01*
X212699Y668281D01*
X212749Y668325D01*
X212777Y668358D01*
X212810Y668397D01*
X212838Y668436D01*
X212865Y668486D01*
X212893Y668541D01*
X212915Y668602D01*
X212937Y668674D01*
X212954Y668746D01*
X212959Y668829D01*
X212965Y668917D01*
X212959Y669122D01*
X210229D01*
Y670451D01*
X215080D01*
X215086Y668962D01*
Y668956D01*
Y668945D01*
Y668929D01*
Y668906D01*
Y668873D01*
X215080Y668840D01*
Y668746D01*
X215075Y668641D01*
X215063Y668513D01*
X215047Y668375D01*
X215030Y668231D01*
X215002Y668076D01*
X214975Y667915D01*
X214936Y667755D01*
X214892Y667594D01*
X214842Y667439D01*
X214781Y667290D01*
X214709Y667151D01*
X214632Y667024D01*
X214626Y667018D01*
X214609Y666996D01*
X214582Y666968D01*
X214543Y666924D01*
X214488Y666880D01*
X214421Y666824D01*
X214338Y666769D01*
X214244Y666714D01*
X214133Y666653D01*
X214006Y666597D01*
X213862Y666542D01*
X213707Y666498D01*
X213524Y666453D01*
X213330Y666426D01*
X213114Y666404D01*
X212882Y666398D01*
X211752Y666387D01*
X210468Y666398D01*
X209355Y666409D01*
X209155D01*
X209050Y666415D01*
X208934Y666420D01*
X208801D01*
X208657Y666431D01*
X208502Y666437D01*
X208347Y666448D01*
X208026Y666476D01*
X207865Y666498D01*
X207705Y666514D01*
X207555Y666542D01*
X207417Y666570D01*
X207411D01*
X207383Y666581D01*
X207350Y666586D01*
X207300Y666603D01*
X207239Y666625D01*
X207167Y666653D01*
X207090Y666686D01*
X207007Y666725D01*
X206918Y666769D01*
X206824Y666819D01*
X206730Y666880D01*
X206636Y666946D01*
X206542Y667018D01*
X206453Y667101D01*
X206364Y667196D01*
X206282Y667295D01*
X206276Y667301D01*
X206265Y667323D01*
X206243Y667356D01*
X206215Y667400D01*
X206182Y667461D01*
X206149Y667533D01*
X206110Y667622D01*
X206071Y667721D01*
X206032Y667838D01*
X205993Y667965D01*
X205960Y668104D01*
X205927Y668259D01*
X205899Y668430D01*
X205877Y668613D01*
X205866Y668807D01*
X205861Y669017D01*
X205844Y669909D01*
Y669914D01*
Y669931D01*
Y669958D01*
Y669997D01*
Y670047D01*
X205850Y670102D01*
Y670169D01*
Y670247D01*
X205855Y670324D01*
X205861Y670413D01*
X205866Y670507D01*
X205872Y670606D01*
X205888Y670817D01*
X205910Y671044D01*
X205933Y671276D01*
X205966Y671515D01*
X206010Y671753D01*
X206060Y671991D01*
X206115Y672212D01*
X206187Y672417D01*
X206226Y672517D01*
X206265Y672605D01*
X206309Y672694D01*
X206353Y672771D01*
X206359Y672783D01*
X206381Y672805D01*
X206414Y672843D01*
X206464Y672899D01*
X206531Y672954D01*
X206614Y673026D01*
X206719Y673098D01*
X206846Y673170D01*
X206913Y673209D01*
X206990Y673242D01*
X207073Y673281D01*
X207162Y673314D01*
X207256Y673353D01*
X207361Y673386D01*
X207466Y673414D01*
X207583Y673447D01*
X207699Y673469D01*
X207826Y673497D01*
X207965Y673519D01*
X208109Y673536D01*
X208258Y673547D01*
X208413Y673558D01*
X208579Y673569D01*
X208751D01*
X210362Y673602D01*
X210960Y673613D01*
X212400Y673580D01*
D02*
G37*
G36*
X204133Y669344D02*
Y669338D01*
Y669327D01*
Y669311D01*
Y669288D01*
Y669255D01*
Y669222D01*
X204128Y669134D01*
X204122Y669023D01*
X204116Y668901D01*
X204105Y668763D01*
X204094Y668613D01*
X204078Y668458D01*
X204056Y668297D01*
X204033Y668131D01*
X204000Y667971D01*
X203961Y667810D01*
X203923Y667661D01*
X203873Y667517D01*
X203817Y667384D01*
X203812Y667378D01*
X203801Y667356D01*
X203784Y667323D01*
X203757Y667279D01*
X203723Y667223D01*
X203679Y667168D01*
X203624Y667101D01*
X203563Y667035D01*
X203491Y666963D01*
X203413Y666897D01*
X203325Y666824D01*
X203225Y666764D01*
X203120Y666703D01*
X202998Y666653D01*
X202871Y666609D01*
X202732Y666575D01*
X202721D01*
X202699Y666570D01*
X202660Y666564D01*
X202605Y666553D01*
X202538Y666542D01*
X202461Y666531D01*
X202372Y666520D01*
X202278Y666503D01*
X202173Y666487D01*
X202068Y666476D01*
X201846Y666448D01*
X201619Y666426D01*
X201398Y666415D01*
X201342D01*
X201304Y666409D01*
X201193D01*
X201126Y666404D01*
X200977D01*
X200894Y666398D01*
X200711D01*
X200523Y666393D01*
X200102D01*
X199986Y666398D01*
X199853D01*
X199703Y666404D01*
X199543Y666409D01*
X199377Y666415D01*
X199205Y666426D01*
X198862Y666448D01*
X198696Y666459D01*
X198535Y666476D01*
X198385Y666498D01*
X198253Y666520D01*
X198247D01*
X198225Y666525D01*
X198186Y666536D01*
X198142Y666548D01*
X198086Y666570D01*
X198020Y666592D01*
X197948Y666625D01*
X197870Y666658D01*
X197787Y666703D01*
X197704Y666752D01*
X197616Y666808D01*
X197533Y666874D01*
X197444Y666952D01*
X197361Y667035D01*
X197283Y667123D01*
X197211Y667229D01*
X197206Y667234D01*
X197195Y667256D01*
X197178Y667290D01*
X197156Y667339D01*
X197123Y667406D01*
X197095Y667483D01*
X197062Y667578D01*
X197029Y667683D01*
X196990Y667810D01*
X196957Y667949D01*
X196929Y668104D01*
X196901Y668275D01*
X196874Y668458D01*
X196857Y668663D01*
X196846Y668884D01*
X196840Y669122D01*
X196852Y669477D01*
X198923D01*
X198911Y669006D01*
Y669001D01*
Y668984D01*
Y668956D01*
X198917Y668917D01*
X198923Y668873D01*
X198928Y668818D01*
X198956Y668707D01*
X198995Y668585D01*
X199022Y668524D01*
X199050Y668464D01*
X199089Y668408D01*
X199133Y668358D01*
X199183Y668314D01*
X199244Y668281D01*
X199249D01*
X199260Y668275D01*
X199277Y668264D01*
X199305Y668259D01*
X199338Y668242D01*
X199382Y668231D01*
X199432Y668214D01*
X199487Y668203D01*
X199554Y668187D01*
X199626Y668170D01*
X199703Y668159D01*
X199792Y668148D01*
X199886Y668137D01*
X199986Y668126D01*
X200096Y668120D01*
X200877D01*
X200921Y668126D01*
X200971D01*
X201027Y668131D01*
X201088Y668137D01*
X201226Y668153D01*
X201364Y668176D01*
X201508Y668203D01*
X201636Y668248D01*
X201641D01*
X201652Y668253D01*
X201669Y668264D01*
X201686Y668275D01*
X201741Y668314D01*
X201802Y668364D01*
X201863Y668441D01*
X201891Y668486D01*
X201918Y668536D01*
X201935Y668591D01*
X201951Y668652D01*
X201962Y668724D01*
X201968Y668796D01*
X201979Y669338D01*
Y673541D01*
X204133D01*
Y669344D01*
D02*
G37*
G36*
X257849Y672107D02*
X251803D01*
Y670662D01*
X251808Y670667D01*
X251814Y670678D01*
X251831Y670695D01*
X251847Y670712D01*
X251902Y670772D01*
X251974Y670839D01*
X252063Y670911D01*
X252163Y670983D01*
X252279Y671049D01*
X252401Y671105D01*
X252406D01*
X252417Y671110D01*
X252434Y671116D01*
X252462Y671121D01*
X252495Y671132D01*
X252534Y671143D01*
X252578Y671155D01*
X252628Y671166D01*
X252744Y671188D01*
X252882Y671210D01*
X253032Y671221D01*
X253198Y671227D01*
X253857Y671238D01*
X255086D01*
X255247Y671232D01*
X255496D01*
X255540Y671227D01*
X255596D01*
X255657Y671221D01*
X255734D01*
X255817Y671216D01*
X255906Y671204D01*
X256005Y671199D01*
X256116Y671188D01*
X256232Y671182D01*
X256360Y671166D01*
X256493Y671155D01*
X256637Y671138D01*
X256648D01*
X256670Y671132D01*
X256714Y671127D01*
X256764Y671116D01*
X256831Y671105D01*
X256903Y671088D01*
X256986Y671060D01*
X257074Y671033D01*
X257168Y671000D01*
X257262Y670961D01*
X257362Y670917D01*
X257456Y670861D01*
X257545Y670800D01*
X257633Y670728D01*
X257717Y670651D01*
X257789Y670562D01*
X257794Y670556D01*
X257805Y670540D01*
X257822Y670512D01*
X257849Y670468D01*
X257877Y670418D01*
X257905Y670352D01*
X257938Y670274D01*
X257977Y670186D01*
X258010Y670080D01*
X258043Y669970D01*
X258071Y669842D01*
X258104Y669698D01*
X258126Y669549D01*
X258143Y669383D01*
X258154Y669200D01*
X258160Y669006D01*
Y669001D01*
Y668989D01*
Y668973D01*
Y668945D01*
Y668917D01*
X258154Y668879D01*
Y668835D01*
Y668785D01*
X258143Y668674D01*
X258132Y668547D01*
X258115Y668408D01*
X258093Y668253D01*
X258065Y668098D01*
X258032Y667932D01*
X257993Y667771D01*
X257943Y667611D01*
X257883Y667456D01*
X257816Y667306D01*
X257733Y667168D01*
X257645Y667046D01*
X257639Y667040D01*
X257622Y667018D01*
X257589Y666991D01*
X257545Y666952D01*
X257484Y666908D01*
X257412Y666852D01*
X257323Y666797D01*
X257224Y666741D01*
X257102Y666686D01*
X256969Y666631D01*
X256814Y666581D01*
X256648Y666531D01*
X256460Y666492D01*
X256255Y666465D01*
X256033Y666442D01*
X255790Y666437D01*
X254992Y666426D01*
X254189D01*
X252157Y666476D01*
X252069D01*
X252030Y666481D01*
X251941D01*
X251831Y666487D01*
X251709Y666498D01*
X251570Y666509D01*
X251426Y666531D01*
X251271Y666553D01*
X251116Y666581D01*
X250956Y666614D01*
X250800Y666658D01*
X250651Y666703D01*
X250513Y666764D01*
X250385Y666824D01*
X250269Y666902D01*
X250263Y666908D01*
X250247Y666924D01*
X250219Y666952D01*
X250180Y666991D01*
X250142Y667040D01*
X250092Y667107D01*
X250042Y667184D01*
X249992Y667279D01*
X249937Y667389D01*
X249887Y667517D01*
X249837Y667661D01*
X249798Y667816D01*
X249760Y667998D01*
X249732Y668192D01*
X249715Y668408D01*
X249710Y668646D01*
X251686D01*
Y668641D01*
Y668618D01*
X251692Y668591D01*
Y668552D01*
X251703Y668508D01*
X251709Y668458D01*
X251742Y668342D01*
X251764Y668281D01*
X251797Y668225D01*
X251831Y668170D01*
X251875Y668115D01*
X251925Y668070D01*
X251985Y668032D01*
X252057Y667998D01*
X252135Y667976D01*
X252141D01*
X252157Y667971D01*
X252179D01*
X252213Y667965D01*
X252251Y667960D01*
X252301Y667954D01*
X252351Y667943D01*
X252412Y667937D01*
X252545Y667921D01*
X252694Y667910D01*
X252849Y667904D01*
X253010Y667899D01*
X254040Y667882D01*
X254942Y667888D01*
X255009D01*
X255053Y667893D01*
X255109D01*
X255169Y667899D01*
X255236Y667904D01*
X255313Y667910D01*
X255468Y667932D01*
X255623Y667965D01*
X255695Y667982D01*
X255767Y668004D01*
X255828Y668032D01*
X255884Y668065D01*
X255889D01*
X255895Y668076D01*
X255911Y668087D01*
X255928Y668104D01*
X255945Y668126D01*
X255972Y668153D01*
X255994Y668187D01*
X256022Y668231D01*
X256044Y668275D01*
X256072Y668336D01*
X256094Y668397D01*
X256111Y668469D01*
X256133Y668552D01*
X256144Y668641D01*
X256150Y668735D01*
X256155Y668846D01*
Y668851D01*
Y668868D01*
Y668895D01*
X256150Y668934D01*
Y668978D01*
X256144Y669028D01*
X256127Y669145D01*
X256100Y669272D01*
X256061Y669394D01*
X256005Y669510D01*
X255972Y669560D01*
X255933Y669604D01*
X255922Y669615D01*
X255911Y669626D01*
X255889Y669637D01*
X255867Y669654D01*
X255834Y669676D01*
X255801Y669693D01*
X255756Y669715D01*
X255707Y669737D01*
X255651Y669754D01*
X255590Y669776D01*
X255518Y669792D01*
X255441Y669803D01*
X255358Y669815D01*
X255264Y669826D01*
X255164D01*
X254007Y669848D01*
X252689D01*
X252628Y669842D01*
X252556D01*
X252489Y669837D01*
X252423Y669831D01*
X252417D01*
X252395Y669826D01*
X252362Y669820D01*
X252318Y669815D01*
X252262Y669803D01*
X252201Y669787D01*
X252129Y669765D01*
X252052Y669743D01*
X252041Y669737D01*
X252019Y669726D01*
X251985Y669704D01*
X251941Y669676D01*
X251897Y669626D01*
X251858Y669565D01*
X251825Y669488D01*
X251803Y669388D01*
X249987D01*
X250081Y673541D01*
X257849D01*
Y672107D01*
D02*
G37*
G36*
X245823Y673547D02*
X245900D01*
X245933Y673541D01*
X246016D01*
X246110Y673530D01*
X246227Y673524D01*
X246349Y673508D01*
X246476Y673491D01*
X246614Y673464D01*
X246753Y673436D01*
X246891Y673397D01*
X247024Y673353D01*
X247157Y673298D01*
X247279Y673237D01*
X247390Y673165D01*
X247484Y673082D01*
X247489Y673076D01*
X247506Y673059D01*
X247528Y673032D01*
X247556Y672993D01*
X247595Y672937D01*
X247633Y672871D01*
X247678Y672794D01*
X247722Y672705D01*
X247766Y672600D01*
X247810Y672478D01*
X247849Y672345D01*
X247888Y672196D01*
X247916Y672029D01*
X247938Y671847D01*
X247954Y671653D01*
X247960Y671437D01*
Y671431D01*
Y671420D01*
Y671404D01*
Y671376D01*
Y671348D01*
X247954Y671310D01*
Y671216D01*
X247943Y671110D01*
X247938Y670983D01*
X247921Y670844D01*
X247905Y670695D01*
X247877Y670546D01*
X247849Y670390D01*
X247810Y670230D01*
X247766Y670080D01*
X247716Y669936D01*
X247650Y669798D01*
X247583Y669676D01*
X247500Y669571D01*
X247495Y669565D01*
X247478Y669549D01*
X247451Y669527D01*
X247406Y669493D01*
X247356Y669455D01*
X247284Y669410D01*
X247207Y669366D01*
X247107Y669316D01*
X246996Y669266D01*
X246864Y669222D01*
X246720Y669178D01*
X246559Y669139D01*
X246376Y669111D01*
X246177Y669084D01*
X245956Y669067D01*
X245717Y669062D01*
X243968Y668940D01*
X242484Y668835D01*
X242412D01*
X242379Y668829D01*
X242340D01*
X242240Y668823D01*
X242135Y668807D01*
X242030Y668790D01*
X241924Y668763D01*
X241830Y668729D01*
X241819Y668724D01*
X241797Y668707D01*
X241758Y668674D01*
X241719Y668624D01*
X241697Y668591D01*
X241675Y668552D01*
X241659Y668508D01*
X241637Y668464D01*
X241625Y668403D01*
X241614Y668342D01*
X241603Y668275D01*
Y668198D01*
Y667893D01*
X247960D01*
Y666459D01*
X239660D01*
Y668259D01*
Y668264D01*
Y668270D01*
Y668303D01*
Y668353D01*
X239665Y668414D01*
X239671Y668497D01*
X239676Y668585D01*
X239687Y668685D01*
X239704Y668796D01*
X239748Y669023D01*
X239776Y669139D01*
X239809Y669255D01*
X239848Y669372D01*
X239898Y669477D01*
X239953Y669576D01*
X240014Y669665D01*
X240020Y669671D01*
X240031Y669687D01*
X240053Y669709D01*
X240086Y669737D01*
X240125Y669776D01*
X240175Y669815D01*
X240236Y669859D01*
X240308Y669909D01*
X240391Y669958D01*
X240485Y670008D01*
X240590Y670053D01*
X240706Y670102D01*
X240839Y670147D01*
X240977Y670186D01*
X241138Y670219D01*
X241304Y670247D01*
X245020Y670546D01*
X245042D01*
X245070Y670551D01*
X245103Y670556D01*
X245142Y670562D01*
X245191Y670568D01*
X245297Y670590D01*
X245413Y670612D01*
X245529Y670645D01*
X245640Y670684D01*
X245690Y670712D01*
X245734Y670734D01*
X245745Y670739D01*
X245767Y670761D01*
X245800Y670800D01*
X245845Y670850D01*
X245884Y670922D01*
X245917Y671016D01*
X245928Y671071D01*
X245939Y671132D01*
X245950Y671193D01*
Y671265D01*
X245944Y671409D01*
Y671415D01*
Y671426D01*
Y671448D01*
X245939Y671476D01*
Y671509D01*
X245933Y671548D01*
X245922Y671636D01*
X245895Y671730D01*
X245861Y671819D01*
X245812Y671902D01*
X245778Y671941D01*
X245745Y671969D01*
X245734Y671974D01*
X245723Y671980D01*
X245706Y671991D01*
X245684Y672002D01*
X245651Y672013D01*
X245618Y672029D01*
X245573Y672040D01*
X245524Y672052D01*
X245468Y672068D01*
X245407Y672079D01*
X245335Y672090D01*
X245252Y672101D01*
X245169Y672107D01*
X245070Y672113D01*
X243862D01*
X242611Y672090D01*
X242561D01*
X242506Y672085D01*
X242434Y672079D01*
X242351Y672074D01*
X242268Y672063D01*
X242179Y672040D01*
X242090Y672018D01*
X242079Y672013D01*
X242057Y672007D01*
X242019Y671991D01*
X241969Y671969D01*
X241919Y671935D01*
X241863Y671902D01*
X241814Y671852D01*
X241769Y671802D01*
X241764Y671797D01*
X241753Y671775D01*
X241736Y671747D01*
X241714Y671708D01*
X241692Y671664D01*
X241670Y671620D01*
X241647Y671564D01*
X241637Y671515D01*
Y671509D01*
X241631Y671492D01*
Y671465D01*
X241625Y671426D01*
X241620Y671382D01*
Y671326D01*
X241614Y671265D01*
Y671199D01*
Y670961D01*
X239660D01*
X239649Y671454D01*
Y671459D01*
Y671470D01*
Y671487D01*
Y671515D01*
Y671548D01*
X239654Y671587D01*
X239660Y671675D01*
X239665Y671786D01*
X239676Y671913D01*
X239693Y672046D01*
X239721Y672190D01*
X239748Y672339D01*
X239787Y672489D01*
X239831Y672633D01*
X239887Y672771D01*
X239948Y672899D01*
X240025Y673009D01*
X240108Y673104D01*
X240158Y673148D01*
X240208Y673181D01*
X240213Y673187D01*
X240236Y673198D01*
X240269Y673214D01*
X240319Y673237D01*
X240385Y673259D01*
X240463Y673292D01*
X240562Y673320D01*
X240679Y673353D01*
X240806Y673386D01*
X240955Y673414D01*
X241122Y673447D01*
X241310Y673469D01*
X241515Y673491D01*
X241742Y673508D01*
X241991Y673519D01*
X242257Y673524D01*
X244638Y673569D01*
X245823Y673547D01*
D02*
G37*
G36*
X225590D02*
X225667D01*
X225700Y673541D01*
X225784D01*
X225878Y673530D01*
X225994Y673524D01*
X226116Y673508D01*
X226243Y673491D01*
X226381Y673464D01*
X226520Y673436D01*
X226658Y673397D01*
X226791Y673353D01*
X226924Y673298D01*
X227046Y673237D01*
X227157Y673165D01*
X227251Y673082D01*
X227256Y673076D01*
X227273Y673059D01*
X227295Y673032D01*
X227323Y672993D01*
X227362Y672937D01*
X227400Y672871D01*
X227445Y672794D01*
X227489Y672705D01*
X227533Y672600D01*
X227577Y672478D01*
X227616Y672345D01*
X227655Y672196D01*
X227683Y672029D01*
X227705Y671847D01*
X227722Y671653D01*
X227727Y671437D01*
Y671431D01*
Y671420D01*
Y671404D01*
Y671376D01*
Y671348D01*
X227722Y671310D01*
Y671216D01*
X227710Y671110D01*
X227705Y670983D01*
X227688Y670844D01*
X227672Y670695D01*
X227644Y670546D01*
X227616Y670390D01*
X227577Y670230D01*
X227533Y670080D01*
X227483Y669936D01*
X227417Y669798D01*
X227351Y669676D01*
X227267Y669571D01*
X227262Y669565D01*
X227245Y669549D01*
X227218Y669527D01*
X227173Y669493D01*
X227124Y669455D01*
X227052Y669410D01*
X226974Y669366D01*
X226874Y669316D01*
X226764Y669266D01*
X226631Y669222D01*
X226487Y669178D01*
X226326Y669139D01*
X226143Y669111D01*
X225944Y669084D01*
X225723Y669067D01*
X225485Y669062D01*
X223735Y668940D01*
X222251Y668835D01*
X222179D01*
X222146Y668829D01*
X222107D01*
X222007Y668823D01*
X221902Y668807D01*
X221797Y668790D01*
X221691Y668763D01*
X221597Y668729D01*
X221586Y668724D01*
X221564Y668707D01*
X221525Y668674D01*
X221487Y668624D01*
X221465Y668591D01*
X221442Y668552D01*
X221426Y668508D01*
X221404Y668464D01*
X221392Y668403D01*
X221381Y668342D01*
X221370Y668275D01*
Y668198D01*
Y667893D01*
X227727D01*
Y666459D01*
X219427D01*
Y668259D01*
Y668264D01*
Y668270D01*
Y668303D01*
Y668353D01*
X219432Y668414D01*
X219438Y668497D01*
X219443Y668585D01*
X219454Y668685D01*
X219471Y668796D01*
X219515Y669023D01*
X219543Y669139D01*
X219576Y669255D01*
X219615Y669372D01*
X219665Y669477D01*
X219720Y669576D01*
X219781Y669665D01*
X219787Y669671D01*
X219798Y669687D01*
X219820Y669709D01*
X219853Y669737D01*
X219892Y669776D01*
X219942Y669815D01*
X220003Y669859D01*
X220075Y669909D01*
X220158Y669958D01*
X220252Y670008D01*
X220357Y670053D01*
X220473Y670102D01*
X220606Y670147D01*
X220745Y670186D01*
X220905Y670219D01*
X221071Y670247D01*
X224787Y670546D01*
X224809D01*
X224837Y670551D01*
X224870Y670556D01*
X224909Y670562D01*
X224958Y670568D01*
X225064Y670590D01*
X225180Y670612D01*
X225296Y670645D01*
X225407Y670684D01*
X225457Y670712D01*
X225501Y670734D01*
X225512Y670739D01*
X225534Y670761D01*
X225567Y670800D01*
X225612Y670850D01*
X225651Y670922D01*
X225684Y671016D01*
X225695Y671071D01*
X225706Y671132D01*
X225717Y671193D01*
Y671265D01*
X225711Y671409D01*
Y671415D01*
Y671426D01*
Y671448D01*
X225706Y671476D01*
Y671509D01*
X225700Y671548D01*
X225689Y671636D01*
X225662Y671730D01*
X225628Y671819D01*
X225579Y671902D01*
X225545Y671941D01*
X225512Y671969D01*
X225501Y671974D01*
X225490Y671980D01*
X225473Y671991D01*
X225451Y672002D01*
X225418Y672013D01*
X225385Y672029D01*
X225340Y672040D01*
X225291Y672052D01*
X225235Y672068D01*
X225174Y672079D01*
X225102Y672090D01*
X225019Y672101D01*
X224936Y672107D01*
X224837Y672113D01*
X223629D01*
X222378Y672090D01*
X222328D01*
X222273Y672085D01*
X222201Y672079D01*
X222118Y672074D01*
X222035Y672063D01*
X221946Y672040D01*
X221858Y672018D01*
X221847Y672013D01*
X221824Y672007D01*
X221786Y671991D01*
X221736Y671969D01*
X221686Y671935D01*
X221631Y671902D01*
X221581Y671852D01*
X221536Y671802D01*
X221531Y671797D01*
X221520Y671775D01*
X221503Y671747D01*
X221481Y671708D01*
X221459Y671664D01*
X221437Y671620D01*
X221415Y671564D01*
X221404Y671515D01*
Y671509D01*
X221398Y671492D01*
Y671465D01*
X221392Y671426D01*
X221387Y671382D01*
Y671326D01*
X221381Y671265D01*
Y671199D01*
Y670961D01*
X219427D01*
X219416Y671454D01*
Y671459D01*
Y671470D01*
Y671487D01*
Y671515D01*
Y671548D01*
X219421Y671587D01*
X219427Y671675D01*
X219432Y671786D01*
X219443Y671913D01*
X219460Y672046D01*
X219488Y672190D01*
X219515Y672339D01*
X219554Y672489D01*
X219598Y672633D01*
X219654Y672771D01*
X219715Y672899D01*
X219792Y673009D01*
X219875Y673104D01*
X219925Y673148D01*
X219975Y673181D01*
X219981Y673187D01*
X220003Y673198D01*
X220036Y673214D01*
X220086Y673237D01*
X220152Y673259D01*
X220230Y673292D01*
X220329Y673320D01*
X220446Y673353D01*
X220573Y673386D01*
X220723Y673414D01*
X220889Y673447D01*
X221077Y673469D01*
X221282Y673491D01*
X221509Y673508D01*
X221758Y673519D01*
X222024Y673524D01*
X224405Y673569D01*
X225590Y673547D01*
D02*
G37*
G36*
X234997Y673569D02*
X235141D01*
X235269Y673563D01*
X235330D01*
X235379Y673558D01*
X235407D01*
X235429Y673552D01*
X235490D01*
X235534Y673547D01*
X235579Y673541D01*
X235634Y673536D01*
X235695Y673530D01*
X235762Y673524D01*
X235839Y673513D01*
X235922Y673502D01*
X236011Y673491D01*
X236110Y673480D01*
X236216Y673464D01*
X236221D01*
X236243Y673458D01*
X236271Y673453D01*
X236315Y673447D01*
X236365Y673436D01*
X236426Y673425D01*
X236492Y673408D01*
X236564Y673392D01*
X236725Y673342D01*
X236897Y673281D01*
X237074Y673203D01*
X237246Y673109D01*
X237251Y673104D01*
X237268Y673098D01*
X237290Y673082D01*
X237318Y673059D01*
X237356Y673032D01*
X237395Y672999D01*
X237439Y672954D01*
X237489Y672910D01*
X237539Y672860D01*
X237589Y672805D01*
X237683Y672677D01*
X237771Y672528D01*
X237810Y672445D01*
X237838Y672356D01*
Y672351D01*
X237843Y672334D01*
X237855Y672312D01*
X237860Y672273D01*
X237877Y672229D01*
X237888Y672179D01*
X237904Y672124D01*
X237921Y672057D01*
X237938Y671985D01*
X237954Y671908D01*
X237987Y671747D01*
X238021Y671564D01*
X238048Y671382D01*
Y671376D01*
X238054Y671359D01*
Y671332D01*
X238059Y671293D01*
X238065Y671243D01*
X238071Y671182D01*
X238076Y671110D01*
X238082Y671027D01*
X238087Y670933D01*
X238093Y670833D01*
Y670723D01*
X238098Y670601D01*
X238104Y670468D01*
X238109Y670330D01*
Y670180D01*
Y670019D01*
Y670014D01*
Y670003D01*
Y669981D01*
Y669953D01*
Y669914D01*
Y669870D01*
Y669820D01*
Y669765D01*
X238104Y669704D01*
Y669637D01*
Y669493D01*
X238098Y669333D01*
X238087Y669161D01*
X238082Y668978D01*
X238071Y668796D01*
X238059Y668607D01*
X238043Y668425D01*
X238021Y668248D01*
X238004Y668081D01*
X237976Y667926D01*
X237949Y667788D01*
Y667782D01*
X237943Y667760D01*
X237932Y667721D01*
X237915Y667677D01*
X237893Y667622D01*
X237866Y667555D01*
X237827Y667483D01*
X237788Y667406D01*
X237738Y667328D01*
X237677Y667245D01*
X237611Y667162D01*
X237533Y667074D01*
X237450Y666996D01*
X237356Y666913D01*
X237246Y666841D01*
X237129Y666775D01*
X237124Y666769D01*
X237096Y666758D01*
X237057Y666741D01*
X237002Y666725D01*
X236930Y666697D01*
X236841Y666669D01*
X236736Y666636D01*
X236614Y666609D01*
X236470Y666575D01*
X236315Y666542D01*
X236138Y666514D01*
X235944Y666492D01*
X235728Y666470D01*
X235496Y666453D01*
X235247Y666442D01*
X234975Y666437D01*
X232744Y666415D01*
X232600D01*
X232544Y666420D01*
X232478D01*
X232400Y666426D01*
X232317D01*
X232229Y666431D01*
X232135Y666437D01*
X232035Y666442D01*
X231825Y666465D01*
X231597Y666487D01*
X231365Y666514D01*
X231127Y666553D01*
X230894Y666603D01*
X230667Y666653D01*
X230457Y666719D01*
X230357Y666758D01*
X230263Y666797D01*
X230175Y666841D01*
X230091Y666885D01*
X230014Y666935D01*
X229947Y666985D01*
X229942Y666991D01*
X229920Y667013D01*
X229886Y667051D01*
X229842Y667107D01*
X229792Y667184D01*
X229737Y667279D01*
X229704Y667334D01*
X229676Y667395D01*
X229643Y667461D01*
X229615Y667533D01*
X229582Y667611D01*
X229549Y667694D01*
X229521Y667788D01*
X229488Y667882D01*
X229460Y667987D01*
X229433Y668098D01*
X229405Y668214D01*
X229383Y668342D01*
X229361Y668475D01*
X229338Y668618D01*
X229322Y668763D01*
X229305Y668917D01*
X229294Y669084D01*
X229283Y669255D01*
X229277Y669438D01*
Y669626D01*
Y670019D01*
Y670025D01*
Y670042D01*
Y670075D01*
Y670114D01*
Y670163D01*
X229283Y670219D01*
Y670285D01*
X229289Y670363D01*
Y670446D01*
X229294Y670534D01*
X229300Y670629D01*
X229305Y670728D01*
X229322Y670939D01*
X229344Y671166D01*
X229372Y671398D01*
X229410Y671636D01*
X229455Y671874D01*
X229505Y672101D01*
X229571Y672317D01*
X229604Y672417D01*
X229643Y672517D01*
X229682Y672605D01*
X229726Y672688D01*
X229770Y672766D01*
X229820Y672838D01*
X229826Y672843D01*
X229848Y672871D01*
X229886Y672904D01*
X229936Y672949D01*
X230008Y673004D01*
X230097Y673065D01*
X230208Y673126D01*
X230274Y673159D01*
X230341Y673192D01*
X230418Y673225D01*
X230496Y673259D01*
X230584Y673292D01*
X230678Y673325D01*
X230778Y673353D01*
X230883Y673381D01*
X230994Y673408D01*
X231116Y673436D01*
X231243Y673458D01*
X231376Y673480D01*
X231520Y673502D01*
X231670Y673519D01*
X231825Y673530D01*
X231991Y673541D01*
X232162Y673547D01*
X232345D01*
X233702Y673569D01*
X234527Y673574D01*
X234859D01*
X234997Y673569D01*
D02*
G37*
G36*
X206921Y686891D02*
X207281D01*
X207519Y686886D01*
X207624D01*
X207729Y686880D01*
X207785D01*
X207824Y686874D01*
X207873D01*
X207934Y686869D01*
X208001Y686863D01*
X208084Y686858D01*
X208167Y686852D01*
X208261Y686847D01*
X208366Y686836D01*
X208477Y686825D01*
X208588Y686814D01*
X208710Y686802D01*
X208970Y686769D01*
X208981D01*
X209003Y686764D01*
X209036Y686758D01*
X209086Y686747D01*
X209147Y686736D01*
X209213Y686719D01*
X209285Y686692D01*
X209363Y686669D01*
X209446Y686636D01*
X209529Y686598D01*
X209612Y686548D01*
X209695Y686498D01*
X209773Y686437D01*
X209845Y686370D01*
X209911Y686299D01*
X209967Y686216D01*
X209972Y686210D01*
X209977Y686193D01*
X209994Y686166D01*
X210011Y686127D01*
X210033Y686083D01*
X210055Y686022D01*
X210077Y685955D01*
X210105Y685872D01*
X210133Y685784D01*
X210155Y685684D01*
X210177Y685573D01*
X210199Y685457D01*
X210216Y685330D01*
X210232Y685186D01*
X210238Y685042D01*
X210243Y684881D01*
X208289D01*
Y684887D01*
Y684898D01*
X208283Y684914D01*
X208278Y684936D01*
X208256Y684992D01*
X208228Y685058D01*
X208183Y685136D01*
X208123Y685208D01*
X208045Y685269D01*
X207945Y685319D01*
X207940D01*
X207934Y685324D01*
X207918Y685330D01*
X207896Y685335D01*
X207868Y685346D01*
X207835Y685352D01*
X207752Y685374D01*
X207646Y685396D01*
X207530Y685413D01*
X207392Y685424D01*
X207242Y685429D01*
X206616Y685440D01*
X205382Y685418D01*
X205221D01*
X205116Y685413D01*
X205005Y685407D01*
X204889Y685402D01*
X204778Y685390D01*
X204723Y685385D01*
X204678Y685379D01*
X204667D01*
X204640Y685368D01*
X204595Y685357D01*
X204545Y685335D01*
X204485Y685307D01*
X204424Y685269D01*
X204357Y685219D01*
X204302Y685158D01*
X204296Y685152D01*
X204280Y685125D01*
X204252Y685091D01*
X204224Y685047D01*
X204197Y684986D01*
X204163Y684925D01*
X204136Y684853D01*
X204119Y684781D01*
Y684770D01*
X204114Y684748D01*
X204108Y684709D01*
X204103Y684654D01*
X204097Y684588D01*
X204091Y684510D01*
X204086Y684427D01*
Y684333D01*
Y684078D01*
Y683452D01*
X204091Y683458D01*
X204097Y683475D01*
X204114Y683502D01*
X204130Y683536D01*
X204158Y683574D01*
X204191Y683624D01*
X204224Y683674D01*
X204269Y683729D01*
X204319Y683779D01*
X204374Y683835D01*
X204435Y683890D01*
X204501Y683945D01*
X204573Y683989D01*
X204651Y684034D01*
X204734Y684073D01*
X204822Y684100D01*
X204828D01*
X204844Y684106D01*
X204872Y684111D01*
X204911Y684122D01*
X204961Y684134D01*
X205022Y684145D01*
X205088Y684156D01*
X205171Y684167D01*
X205260Y684178D01*
X205359Y684189D01*
X205465Y684200D01*
X205581Y684211D01*
X205703Y684222D01*
X205836Y684228D01*
X205974Y684233D01*
X206124D01*
X207602Y684239D01*
X207768D01*
X207835Y684233D01*
X207995D01*
X208084Y684228D01*
X208172Y684222D01*
X208366Y684211D01*
X208566Y684194D01*
X208759Y684172D01*
X208765D01*
X208782Y684167D01*
X208809D01*
X208842Y684161D01*
X208887Y684150D01*
X208942Y684145D01*
X208997Y684134D01*
X209064Y684117D01*
X209208Y684084D01*
X209363Y684039D01*
X209529Y683984D01*
X209690Y683918D01*
X209695D01*
X209706Y683906D01*
X209728Y683895D01*
X209756Y683879D01*
X209795Y683862D01*
X209834Y683835D01*
X209922Y683763D01*
X209967Y683724D01*
X210016Y683674D01*
X210061Y683618D01*
X210110Y683558D01*
X210149Y683497D01*
X210188Y683425D01*
X210227Y683342D01*
X210254Y683259D01*
Y683253D01*
X210260Y683236D01*
X210266Y683209D01*
X210277Y683176D01*
X210288Y683131D01*
X210299Y683076D01*
X210310Y683015D01*
X210326Y682949D01*
X210338Y682871D01*
X210348Y682788D01*
X210360Y682699D01*
X210371Y682605D01*
X210387Y682400D01*
X210393Y682179D01*
Y682173D01*
Y682162D01*
Y682140D01*
Y682112D01*
Y682079D01*
X210387Y682040D01*
Y681991D01*
X210382Y681941D01*
X210376Y681819D01*
X210360Y681686D01*
X210343Y681537D01*
X210321Y681382D01*
X210288Y681215D01*
X210249Y681055D01*
X210205Y680889D01*
X210144Y680734D01*
X210077Y680584D01*
X210000Y680451D01*
X209911Y680335D01*
X209861Y680280D01*
X209806Y680235D01*
X209800Y680230D01*
X209778Y680213D01*
X209739Y680191D01*
X209690Y680163D01*
X209623Y680130D01*
X209540Y680091D01*
X209435Y680047D01*
X209319Y680008D01*
X209175Y679964D01*
X209020Y679920D01*
X208842Y679881D01*
X208643Y679848D01*
X208422Y679820D01*
X208305Y679803D01*
X208183Y679798D01*
X208051Y679787D01*
X207918Y679781D01*
X207774Y679776D01*
X207630D01*
X205420Y679743D01*
X205232D01*
X205133Y679748D01*
X205022D01*
X204900Y679754D01*
X204773Y679759D01*
X204634Y679765D01*
X204490Y679776D01*
X204202Y679798D01*
X204064Y679815D01*
X203925Y679831D01*
X203804Y679853D01*
X203687Y679875D01*
X203682D01*
X203660Y679881D01*
X203632Y679892D01*
X203593Y679903D01*
X203543Y679920D01*
X203482Y679936D01*
X203421Y679958D01*
X203349Y679986D01*
X203195Y680047D01*
X203028Y680125D01*
X202862Y680213D01*
X202702Y680324D01*
X202696Y680329D01*
X202685Y680340D01*
X202663Y680357D01*
X202635Y680379D01*
X202602Y680413D01*
X202569Y680451D01*
X202525Y680501D01*
X202486Y680551D01*
X202441Y680606D01*
X202397Y680673D01*
X202353Y680745D01*
X202314Y680822D01*
X202275Y680905D01*
X202236Y680994D01*
X202209Y681088D01*
X202187Y681188D01*
Y681193D01*
X202181Y681215D01*
X202176Y681243D01*
X202170Y681287D01*
X202164Y681343D01*
X202153Y681409D01*
X202142Y681487D01*
X202137Y681570D01*
X202126Y681669D01*
X202115Y681780D01*
X202104Y681897D01*
X202098Y682024D01*
X202093Y682157D01*
X202087Y682301D01*
X202082Y682456D01*
Y682616D01*
X202070Y684145D01*
Y684156D01*
Y684183D01*
Y684222D01*
Y684277D01*
Y684338D01*
Y684405D01*
Y684554D01*
Y684565D01*
Y684576D01*
Y684599D01*
Y684621D01*
X202076Y684649D01*
Y684687D01*
X202082Y684732D01*
Y684781D01*
X202087Y684842D01*
X202093Y684909D01*
X202104Y684981D01*
X202109Y685064D01*
X202120Y685152D01*
X202131Y685252D01*
X202142Y685363D01*
Y685368D01*
X202148Y685390D01*
X202153Y685424D01*
X202164Y685462D01*
X202181Y685518D01*
X202203Y685579D01*
X202225Y685645D01*
X202264Y685723D01*
X202303Y685800D01*
X202353Y685883D01*
X202414Y685972D01*
X202486Y686055D01*
X202569Y686143D01*
X202663Y686232D01*
X202768Y686315D01*
X202884Y686398D01*
X202890Y686404D01*
X202918Y686415D01*
X202951Y686437D01*
X203006Y686465D01*
X203073Y686498D01*
X203150Y686537D01*
X203244Y686575D01*
X203349Y686614D01*
X203466Y686653D01*
X203593Y686692D01*
X203732Y686730D01*
X203887Y686764D01*
X204047Y686791D01*
X204213Y686814D01*
X204396Y686825D01*
X204584Y686830D01*
X204601D01*
X204629Y686836D01*
X204656D01*
X204695Y686841D01*
X204739Y686847D01*
X204789D01*
X204844Y686852D01*
X204972Y686863D01*
X205105Y686874D01*
X205249Y686880D01*
X205393Y686886D01*
X205498D01*
X205542Y686891D01*
X205780D01*
X205930Y686897D01*
X206810D01*
X206921Y686891D01*
D02*
G37*
G36*
X263783Y679787D02*
X261036D01*
X257298Y686869D01*
X259663D01*
X262437Y681531D01*
X265344Y686869D01*
X267742D01*
X263783Y679787D01*
D02*
G37*
G36*
X230377Y685435D02*
X224330D01*
Y683989D01*
X224335Y683995D01*
X224341Y684006D01*
X224358Y684023D01*
X224374Y684039D01*
X224430Y684100D01*
X224502Y684167D01*
X224590Y684239D01*
X224690Y684311D01*
X224806Y684377D01*
X224928Y684433D01*
X224933D01*
X224945Y684438D01*
X224961Y684444D01*
X224989Y684449D01*
X225022Y684460D01*
X225061Y684471D01*
X225105Y684482D01*
X225155Y684493D01*
X225271Y684516D01*
X225410Y684538D01*
X225559Y684549D01*
X225725Y684554D01*
X226384Y684565D01*
X227614D01*
X227774Y684560D01*
X228023D01*
X228068Y684554D01*
X228123D01*
X228184Y684549D01*
X228261D01*
X228344Y684543D01*
X228433Y684532D01*
X228533Y684527D01*
X228643Y684516D01*
X228760Y684510D01*
X228887Y684493D01*
X229020Y684482D01*
X229164Y684466D01*
X229175D01*
X229197Y684460D01*
X229242Y684455D01*
X229291Y684444D01*
X229358Y684433D01*
X229430Y684416D01*
X229513Y684388D01*
X229601Y684361D01*
X229695Y684327D01*
X229790Y684288D01*
X229889Y684244D01*
X229983Y684189D01*
X230072Y684128D01*
X230161Y684056D01*
X230244Y683979D01*
X230316Y683890D01*
X230321Y683884D01*
X230332Y683868D01*
X230349Y683840D01*
X230377Y683796D01*
X230404Y683746D01*
X230432Y683680D01*
X230465Y683602D01*
X230504Y683513D01*
X230537Y683408D01*
X230570Y683297D01*
X230598Y683170D01*
X230631Y683026D01*
X230653Y682877D01*
X230670Y682710D01*
X230681Y682528D01*
X230687Y682334D01*
Y682328D01*
Y682317D01*
Y682301D01*
Y682273D01*
Y682245D01*
X230681Y682207D01*
Y682162D01*
Y682112D01*
X230670Y682002D01*
X230659Y681874D01*
X230642Y681736D01*
X230620Y681581D01*
X230592Y681426D01*
X230559Y681260D01*
X230520Y681099D01*
X230471Y680938D01*
X230410Y680783D01*
X230343Y680634D01*
X230260Y680496D01*
X230172Y680374D01*
X230166Y680368D01*
X230150Y680346D01*
X230116Y680318D01*
X230072Y680280D01*
X230011Y680235D01*
X229939Y680180D01*
X229851Y680125D01*
X229751Y680069D01*
X229629Y680014D01*
X229496Y679958D01*
X229341Y679909D01*
X229175Y679859D01*
X228987Y679820D01*
X228782Y679792D01*
X228560Y679770D01*
X228317Y679765D01*
X227519Y679754D01*
X226716D01*
X224684Y679803D01*
X224596D01*
X224557Y679809D01*
X224468D01*
X224358Y679815D01*
X224236Y679826D01*
X224097Y679837D01*
X223953Y679859D01*
X223798Y679881D01*
X223643Y679909D01*
X223483Y679942D01*
X223328Y679986D01*
X223178Y680030D01*
X223040Y680091D01*
X222912Y680152D01*
X222796Y680230D01*
X222791Y680235D01*
X222774Y680252D01*
X222746Y680280D01*
X222708Y680318D01*
X222669Y680368D01*
X222619Y680435D01*
X222569Y680512D01*
X222519Y680606D01*
X222464Y680717D01*
X222414Y680844D01*
X222364Y680988D01*
X222325Y681143D01*
X222287Y681326D01*
X222259Y681520D01*
X222242Y681736D01*
X222237Y681974D01*
X224214D01*
Y681969D01*
Y681946D01*
X224219Y681919D01*
Y681880D01*
X224230Y681836D01*
X224236Y681786D01*
X224269Y681669D01*
X224291Y681609D01*
X224324Y681553D01*
X224358Y681498D01*
X224402Y681442D01*
X224452Y681398D01*
X224513Y681359D01*
X224585Y681326D01*
X224662Y681304D01*
X224668D01*
X224684Y681299D01*
X224706D01*
X224740Y681293D01*
X224778Y681287D01*
X224828Y681282D01*
X224878Y681271D01*
X224939Y681265D01*
X225072Y681249D01*
X225221Y681238D01*
X225376Y681232D01*
X225537Y681227D01*
X226567Y681210D01*
X227470Y681215D01*
X227536D01*
X227580Y681221D01*
X227636D01*
X227697Y681227D01*
X227763Y681232D01*
X227840Y681238D01*
X227996Y681260D01*
X228151Y681293D01*
X228223Y681310D01*
X228295Y681332D01*
X228356Y681359D01*
X228411Y681393D01*
X228416D01*
X228422Y681404D01*
X228439Y681415D01*
X228455Y681431D01*
X228472Y681453D01*
X228500Y681481D01*
X228522Y681514D01*
X228549Y681559D01*
X228571Y681603D01*
X228599Y681664D01*
X228621Y681725D01*
X228638Y681797D01*
X228660Y681880D01*
X228671Y681969D01*
X228677Y682063D01*
X228682Y682173D01*
Y682179D01*
Y682196D01*
Y682223D01*
X228677Y682262D01*
Y682306D01*
X228671Y682356D01*
X228654Y682472D01*
X228627Y682600D01*
X228588Y682721D01*
X228533Y682838D01*
X228500Y682888D01*
X228461Y682932D01*
X228450Y682943D01*
X228439Y682954D01*
X228416Y682965D01*
X228394Y682982D01*
X228361Y683004D01*
X228328Y683020D01*
X228284Y683043D01*
X228234Y683065D01*
X228178Y683081D01*
X228117Y683104D01*
X228045Y683120D01*
X227968Y683131D01*
X227885Y683142D01*
X227791Y683153D01*
X227691D01*
X226534Y683176D01*
X225216D01*
X225155Y683170D01*
X225083D01*
X225017Y683165D01*
X224950Y683159D01*
X224945D01*
X224922Y683153D01*
X224889Y683148D01*
X224845Y683142D01*
X224790Y683131D01*
X224729Y683115D01*
X224657Y683092D01*
X224579Y683070D01*
X224568Y683065D01*
X224546Y683054D01*
X224513Y683032D01*
X224468Y683004D01*
X224424Y682954D01*
X224385Y682893D01*
X224352Y682816D01*
X224330Y682716D01*
X222514D01*
X222608Y686869D01*
X230377D01*
Y685435D01*
D02*
G37*
G36*
X275089Y679787D02*
X272980D01*
Y685202D01*
X270743Y683436D01*
X269453Y684881D01*
X271989Y686869D01*
X275089D01*
Y679787D01*
D02*
G37*
G36*
X219585Y682633D02*
X220731D01*
Y681199D01*
X219585D01*
Y679787D01*
X217608D01*
Y681199D01*
X211971D01*
Y683668D01*
X216511Y686869D01*
X219585D01*
Y682633D01*
D02*
G37*
G36*
X200797Y679787D02*
X198427D01*
X197757Y681071D01*
X193150D01*
X192452Y679787D01*
X190071D01*
X194025Y686869D01*
X196937D01*
X200797Y679787D01*
D02*
G37*
G36*
X186622Y686863D02*
X186710D01*
X186810Y686852D01*
X186932Y686841D01*
X187065Y686825D01*
X187203Y686808D01*
X187353Y686780D01*
X187502Y686747D01*
X187657Y686708D01*
X187807Y686658D01*
X187951Y686603D01*
X188083Y686537D01*
X188211Y686459D01*
X188321Y686370D01*
X188327Y686365D01*
X188344Y686348D01*
X188371Y686315D01*
X188410Y686276D01*
X188449Y686216D01*
X188493Y686149D01*
X188543Y686066D01*
X188598Y685966D01*
X188648Y685856D01*
X188698Y685728D01*
X188742Y685584D01*
X188787Y685429D01*
X188820Y685252D01*
X188848Y685058D01*
X188864Y684853D01*
X188870Y684626D01*
Y684621D01*
Y684604D01*
Y684582D01*
Y684549D01*
Y684504D01*
Y684460D01*
X188864Y684405D01*
Y684344D01*
X188859Y684217D01*
X188848Y684078D01*
X188831Y683940D01*
X188814Y683807D01*
Y683801D01*
Y683790D01*
X188809Y683774D01*
X188803Y683751D01*
X188787Y683685D01*
X188764Y683607D01*
X188737Y683513D01*
X188698Y683419D01*
X188654Y683319D01*
X188598Y683220D01*
X188593Y683209D01*
X188571Y683181D01*
X188538Y683137D01*
X188493Y683081D01*
X188438Y683020D01*
X188377Y682960D01*
X188305Y682899D01*
X188227Y682849D01*
X188216Y682843D01*
X188205Y682838D01*
X188183Y682827D01*
X188155Y682816D01*
X188128Y682799D01*
X188083Y682782D01*
X188039Y682760D01*
X187984Y682738D01*
X187917Y682710D01*
X187845Y682683D01*
X187768Y682655D01*
X187674Y682622D01*
X187574Y682583D01*
X187463Y682544D01*
X187341Y682506D01*
X187353D01*
X187375Y682500D01*
X187413Y682495D01*
X187463Y682483D01*
X187524Y682472D01*
X187596Y682461D01*
X187674Y682439D01*
X187757Y682422D01*
X187934Y682367D01*
X188117Y682301D01*
X188200Y682262D01*
X188283Y682223D01*
X188360Y682173D01*
X188432Y682123D01*
X188438Y682118D01*
X188449Y682112D01*
X188465Y682096D01*
X188488Y682068D01*
X188515Y682040D01*
X188543Y682002D01*
X188576Y681952D01*
X188610Y681897D01*
X188643Y681836D01*
X188676Y681764D01*
X188704Y681681D01*
X188731Y681592D01*
X188753Y681498D01*
X188770Y681387D01*
X188781Y681271D01*
X188787Y681143D01*
Y679787D01*
X186600D01*
Y680462D01*
Y680468D01*
Y680484D01*
Y680512D01*
Y680551D01*
Y680595D01*
X186594Y680645D01*
Y680700D01*
X186588Y680761D01*
X186577Y680894D01*
X186561Y681033D01*
X186539Y681171D01*
X186505Y681293D01*
Y681299D01*
X186500Y681304D01*
X186478Y681343D01*
X186461Y681365D01*
X186439Y681393D01*
X186406Y681420D01*
X186367Y681448D01*
X186317Y681476D01*
X186262Y681503D01*
X186195Y681531D01*
X186112Y681553D01*
X186024Y681575D01*
X185918Y681592D01*
X185797Y681598D01*
X185664Y681603D01*
X182064D01*
Y679787D01*
X179911D01*
Y686869D01*
X186583D01*
X186622Y686863D01*
D02*
G37*
G36*
X247990Y686897D02*
X248134D01*
X248262Y686891D01*
X248323D01*
X248372Y686886D01*
X248400D01*
X248422Y686880D01*
X248483D01*
X248528Y686874D01*
X248572Y686869D01*
X248627Y686863D01*
X248688Y686858D01*
X248755Y686852D01*
X248832Y686841D01*
X248915Y686830D01*
X249004Y686819D01*
X249103Y686808D01*
X249209Y686791D01*
X249214D01*
X249236Y686786D01*
X249264Y686780D01*
X249308Y686775D01*
X249358Y686764D01*
X249419Y686753D01*
X249485Y686736D01*
X249557Y686719D01*
X249718Y686669D01*
X249890Y686609D01*
X250067Y686531D01*
X250238Y686437D01*
X250244Y686431D01*
X250261Y686426D01*
X250283Y686409D01*
X250310Y686387D01*
X250349Y686359D01*
X250388Y686326D01*
X250432Y686282D01*
X250482Y686238D01*
X250532Y686188D01*
X250582Y686132D01*
X250676Y686005D01*
X250765Y685856D01*
X250803Y685772D01*
X250831Y685684D01*
Y685678D01*
X250837Y685662D01*
X250848Y685640D01*
X250853Y685601D01*
X250870Y685557D01*
X250881Y685507D01*
X250897Y685451D01*
X250914Y685385D01*
X250931Y685313D01*
X250947Y685235D01*
X250980Y685075D01*
X251014Y684892D01*
X251041Y684709D01*
Y684704D01*
X251047Y684687D01*
Y684660D01*
X251052Y684621D01*
X251058Y684571D01*
X251064Y684510D01*
X251069Y684438D01*
X251075Y684355D01*
X251080Y684261D01*
X251086Y684161D01*
Y684050D01*
X251091Y683929D01*
X251097Y683796D01*
X251102Y683657D01*
Y683508D01*
Y683347D01*
Y683342D01*
Y683331D01*
Y683308D01*
Y683281D01*
Y683242D01*
Y683198D01*
Y683148D01*
Y683092D01*
X251097Y683032D01*
Y682965D01*
Y682821D01*
X251091Y682661D01*
X251080Y682489D01*
X251075Y682306D01*
X251064Y682123D01*
X251052Y681935D01*
X251036Y681752D01*
X251014Y681575D01*
X250997Y681409D01*
X250969Y681254D01*
X250942Y681116D01*
Y681110D01*
X250936Y681088D01*
X250925Y681049D01*
X250909Y681005D01*
X250886Y680950D01*
X250859Y680883D01*
X250820Y680811D01*
X250781Y680734D01*
X250731Y680656D01*
X250670Y680573D01*
X250604Y680490D01*
X250526Y680401D01*
X250443Y680324D01*
X250349Y680241D01*
X250238Y680169D01*
X250122Y680102D01*
X250117Y680097D01*
X250089Y680086D01*
X250050Y680069D01*
X249995Y680053D01*
X249923Y680025D01*
X249834Y679997D01*
X249729Y679964D01*
X249607Y679936D01*
X249463Y679903D01*
X249308Y679870D01*
X249131Y679842D01*
X248937Y679820D01*
X248721Y679798D01*
X248489Y679781D01*
X248240Y679770D01*
X247968Y679765D01*
X245737Y679743D01*
X245593D01*
X245537Y679748D01*
X245471D01*
X245394Y679754D01*
X245310D01*
X245222Y679759D01*
X245128Y679765D01*
X245028Y679770D01*
X244818Y679792D01*
X244591Y679815D01*
X244358Y679842D01*
X244120Y679881D01*
X243887Y679931D01*
X243660Y679981D01*
X243450Y680047D01*
X243350Y680086D01*
X243256Y680125D01*
X243167Y680169D01*
X243085Y680213D01*
X243007Y680263D01*
X242941Y680313D01*
X242935Y680318D01*
X242913Y680340D01*
X242880Y680379D01*
X242835Y680435D01*
X242785Y680512D01*
X242730Y680606D01*
X242697Y680662D01*
X242669Y680723D01*
X242636Y680789D01*
X242608Y680861D01*
X242575Y680938D01*
X242542Y681022D01*
X242514Y681116D01*
X242481Y681210D01*
X242453Y681315D01*
X242425Y681426D01*
X242398Y681542D01*
X242376Y681669D01*
X242353Y681802D01*
X242331Y681946D01*
X242315Y682090D01*
X242298Y682245D01*
X242287Y682411D01*
X242276Y682583D01*
X242271Y682766D01*
Y682954D01*
Y683347D01*
Y683353D01*
Y683369D01*
Y683403D01*
Y683441D01*
Y683491D01*
X242276Y683547D01*
Y683613D01*
X242282Y683690D01*
Y683774D01*
X242287Y683862D01*
X242293Y683956D01*
X242298Y684056D01*
X242315Y684266D01*
X242337Y684493D01*
X242365Y684726D01*
X242403Y684964D01*
X242448Y685202D01*
X242498Y685429D01*
X242564Y685645D01*
X242597Y685745D01*
X242636Y685844D01*
X242675Y685933D01*
X242719Y686016D01*
X242763Y686094D01*
X242813Y686166D01*
X242819Y686171D01*
X242841Y686199D01*
X242880Y686232D01*
X242929Y686276D01*
X243001Y686332D01*
X243090Y686393D01*
X243201Y686454D01*
X243267Y686487D01*
X243334Y686520D01*
X243411Y686553D01*
X243489Y686587D01*
X243577Y686620D01*
X243671Y686653D01*
X243771Y686681D01*
X243876Y686708D01*
X243987Y686736D01*
X244109Y686764D01*
X244236Y686786D01*
X244369Y686808D01*
X244513Y686830D01*
X244663Y686847D01*
X244818Y686858D01*
X244984Y686869D01*
X245155Y686874D01*
X245338D01*
X246695Y686897D01*
X247520Y686902D01*
X247852D01*
X247990Y686897D01*
D02*
G37*
G36*
X237874D02*
X238018D01*
X238145Y686891D01*
X238206D01*
X238256Y686886D01*
X238284D01*
X238306Y686880D01*
X238367D01*
X238411Y686874D01*
X238455Y686869D01*
X238511Y686863D01*
X238572Y686858D01*
X238638Y686852D01*
X238716Y686841D01*
X238799Y686830D01*
X238887Y686819D01*
X238987Y686808D01*
X239092Y686791D01*
X239098D01*
X239120Y686786D01*
X239147Y686780D01*
X239192Y686775D01*
X239242Y686764D01*
X239303Y686753D01*
X239369Y686736D01*
X239441Y686719D01*
X239602Y686669D01*
X239773Y686609D01*
X239950Y686531D01*
X240122Y686437D01*
X240128Y686431D01*
X240144Y686426D01*
X240166Y686409D01*
X240194Y686387D01*
X240233Y686359D01*
X240272Y686326D01*
X240316Y686282D01*
X240366Y686238D01*
X240415Y686188D01*
X240465Y686132D01*
X240560Y686005D01*
X240648Y685856D01*
X240687Y685772D01*
X240714Y685684D01*
Y685678D01*
X240720Y685662D01*
X240731Y685640D01*
X240737Y685601D01*
X240753Y685557D01*
X240764Y685507D01*
X240781Y685451D01*
X240798Y685385D01*
X240814Y685313D01*
X240831Y685235D01*
X240864Y685075D01*
X240897Y684892D01*
X240925Y684709D01*
Y684704D01*
X240931Y684687D01*
Y684660D01*
X240936Y684621D01*
X240942Y684571D01*
X240947Y684510D01*
X240953Y684438D01*
X240958Y684355D01*
X240964Y684261D01*
X240969Y684161D01*
Y684050D01*
X240975Y683929D01*
X240980Y683796D01*
X240986Y683657D01*
Y683508D01*
Y683347D01*
Y683342D01*
Y683331D01*
Y683308D01*
Y683281D01*
Y683242D01*
Y683198D01*
Y683148D01*
Y683092D01*
X240980Y683032D01*
Y682965D01*
Y682821D01*
X240975Y682661D01*
X240964Y682489D01*
X240958Y682306D01*
X240947Y682123D01*
X240936Y681935D01*
X240919Y681752D01*
X240897Y681575D01*
X240881Y681409D01*
X240853Y681254D01*
X240825Y681116D01*
Y681110D01*
X240820Y681088D01*
X240809Y681049D01*
X240792Y681005D01*
X240770Y680950D01*
X240742Y680883D01*
X240704Y680811D01*
X240665Y680734D01*
X240615Y680656D01*
X240554Y680573D01*
X240487Y680490D01*
X240410Y680401D01*
X240327Y680324D01*
X240233Y680241D01*
X240122Y680169D01*
X240006Y680102D01*
X240000Y680097D01*
X239972Y680086D01*
X239934Y680069D01*
X239878Y680053D01*
X239806Y680025D01*
X239718Y679997D01*
X239613Y679964D01*
X239491Y679936D01*
X239347Y679903D01*
X239192Y679870D01*
X239015Y679842D01*
X238821Y679820D01*
X238605Y679798D01*
X238372Y679781D01*
X238123Y679770D01*
X237852Y679765D01*
X235620Y679743D01*
X235476D01*
X235421Y679748D01*
X235354D01*
X235277Y679754D01*
X235194D01*
X235105Y679759D01*
X235011Y679765D01*
X234911Y679770D01*
X234701Y679792D01*
X234474Y679815D01*
X234242Y679842D01*
X234003Y679881D01*
X233771Y679931D01*
X233544Y679981D01*
X233333Y680047D01*
X233234Y680086D01*
X233140Y680125D01*
X233051Y680169D01*
X232968Y680213D01*
X232890Y680263D01*
X232824Y680313D01*
X232819Y680318D01*
X232796Y680340D01*
X232763Y680379D01*
X232719Y680435D01*
X232669Y680512D01*
X232614Y680606D01*
X232580Y680662D01*
X232553Y680723D01*
X232519Y680789D01*
X232492Y680861D01*
X232459Y680938D01*
X232425Y681022D01*
X232398Y681116D01*
X232364Y681210D01*
X232337Y681315D01*
X232309Y681426D01*
X232281Y681542D01*
X232259Y681669D01*
X232237Y681802D01*
X232215Y681946D01*
X232198Y682090D01*
X232182Y682245D01*
X232171Y682411D01*
X232160Y682583D01*
X232154Y682766D01*
Y682954D01*
Y683347D01*
Y683353D01*
Y683369D01*
Y683403D01*
Y683441D01*
Y683491D01*
X232160Y683547D01*
Y683613D01*
X232165Y683690D01*
Y683774D01*
X232171Y683862D01*
X232176Y683956D01*
X232182Y684056D01*
X232198Y684266D01*
X232220Y684493D01*
X232248Y684726D01*
X232287Y684964D01*
X232331Y685202D01*
X232381Y685429D01*
X232447Y685645D01*
X232481Y685745D01*
X232519Y685844D01*
X232558Y685933D01*
X232603Y686016D01*
X232647Y686094D01*
X232697Y686166D01*
X232702Y686171D01*
X232724Y686199D01*
X232763Y686232D01*
X232813Y686276D01*
X232885Y686332D01*
X232973Y686393D01*
X233084Y686454D01*
X233151Y686487D01*
X233217Y686520D01*
X233295Y686553D01*
X233372Y686587D01*
X233461Y686620D01*
X233555Y686653D01*
X233655Y686681D01*
X233760Y686708D01*
X233871Y686736D01*
X233992Y686764D01*
X234120Y686786D01*
X234253Y686808D01*
X234397Y686830D01*
X234546Y686847D01*
X234701Y686858D01*
X234867Y686869D01*
X235039Y686874D01*
X235222D01*
X236578Y686897D01*
X237403Y686902D01*
X237736D01*
X237874Y686897D01*
D02*
G37*
G36*
X257033Y678098D02*
X251728D01*
Y679266D01*
X257033D01*
Y678098D01*
D02*
G37*
%LPC*%
G36*
X234294Y671902D02*
X233109D01*
X233026Y671897D01*
X232921Y671891D01*
X232810Y671886D01*
X232688Y671874D01*
X232556Y671863D01*
X232290Y671830D01*
X232157Y671802D01*
X232029Y671775D01*
X231919Y671741D01*
X231814Y671697D01*
X231725Y671653D01*
X231692Y671625D01*
X231658Y671598D01*
X231653Y671592D01*
X231647Y671581D01*
X231631Y671564D01*
X231614Y671531D01*
X231592Y671492D01*
X231564Y671442D01*
X231537Y671376D01*
X231509Y671299D01*
X231481Y671210D01*
X231454Y671105D01*
X231431Y670988D01*
X231404Y670850D01*
X231387Y670701D01*
X231371Y670529D01*
X231365Y670341D01*
X231359Y670136D01*
Y669997D01*
Y669992D01*
Y669986D01*
Y669970D01*
Y669948D01*
Y669892D01*
X231365Y669820D01*
Y669726D01*
X231371Y669626D01*
X231382Y669516D01*
X231387Y669394D01*
X231420Y669150D01*
X231437Y669028D01*
X231459Y668906D01*
X231487Y668796D01*
X231520Y668690D01*
X231553Y668602D01*
X231597Y668524D01*
X231603Y668519D01*
X231609Y668508D01*
X231625Y668491D01*
X231653Y668469D01*
X231686Y668441D01*
X231730Y668414D01*
X231780Y668380D01*
X231847Y668347D01*
X231924Y668314D01*
X232018Y668281D01*
X232118Y668253D01*
X232240Y668225D01*
X232373Y668203D01*
X232528Y668187D01*
X232694Y668176D01*
X232882Y668170D01*
X233724Y668153D01*
X234405D01*
X234471Y668159D01*
X234554Y668165D01*
X234648Y668170D01*
X234754Y668176D01*
X234865Y668187D01*
X235091Y668220D01*
X235208Y668242D01*
X235319Y668270D01*
X235424Y668303D01*
X235523Y668342D01*
X235606Y668380D01*
X235678Y668430D01*
X235684Y668436D01*
X235695Y668447D01*
X235712Y668464D01*
X235734Y668491D01*
X235762Y668530D01*
X235789Y668580D01*
X235822Y668641D01*
X235856Y668713D01*
X235883Y668801D01*
X235917Y668901D01*
X235944Y669017D01*
X235972Y669150D01*
X235994Y669294D01*
X236011Y669460D01*
X236022Y669643D01*
X236027Y669848D01*
Y670008D01*
Y670158D01*
Y670285D01*
Y670291D01*
Y670307D01*
Y670330D01*
Y670363D01*
Y670402D01*
X236022Y670446D01*
Y670501D01*
Y670556D01*
X236011Y670684D01*
X236000Y670817D01*
X235983Y670955D01*
X235961Y671094D01*
Y671099D01*
X235955Y671110D01*
Y671127D01*
X235950Y671155D01*
X235928Y671216D01*
X235900Y671293D01*
X235861Y671382D01*
X235811Y671470D01*
X235745Y671548D01*
X235667Y671620D01*
X235656Y671625D01*
X235629Y671647D01*
X235584Y671675D01*
X235523Y671714D01*
X235446Y671747D01*
X235363Y671786D01*
X235274Y671814D01*
X235175Y671836D01*
X235163D01*
X235147Y671841D01*
X235130D01*
X235075Y671852D01*
X235003Y671858D01*
X234914Y671869D01*
X234815Y671880D01*
X234704Y671886D01*
X234582Y671891D01*
X234532D01*
X234477Y671897D01*
X234355D01*
X234294Y671902D01*
D02*
G37*
G36*
X207491Y682777D02*
X206461D01*
X205105Y682755D01*
X205022D01*
X204977Y682749D01*
X204928D01*
X204817Y682738D01*
X204695Y682721D01*
X204568Y682694D01*
X204446Y682661D01*
X204391Y682638D01*
X204341Y682616D01*
X204330Y682611D01*
X204302Y682589D01*
X204258Y682550D01*
X204213Y682489D01*
X204191Y682450D01*
X204169Y682406D01*
X204147Y682362D01*
X204125Y682306D01*
X204108Y682240D01*
X204097Y682173D01*
X204091Y682096D01*
X204086Y682013D01*
Y682007D01*
Y681991D01*
Y681963D01*
X204091Y681930D01*
X204097Y681885D01*
X204103Y681836D01*
X204119Y681730D01*
X204152Y681614D01*
X204208Y681503D01*
X204235Y681453D01*
X204274Y681409D01*
X204319Y681370D01*
X204368Y681337D01*
X204374D01*
X204379Y681332D01*
X204402Y681326D01*
X204424Y681315D01*
X204451Y681304D01*
X204490Y681293D01*
X204534Y681282D01*
X204590Y681271D01*
X204651Y681254D01*
X204717Y681243D01*
X204789Y681232D01*
X204872Y681221D01*
X204961Y681210D01*
X205055Y681204D01*
X205160Y681199D01*
X205271D01*
X207237Y681215D01*
X207331D01*
X207381Y681221D01*
X207436Y681227D01*
X207497D01*
X207563Y681238D01*
X207707Y681254D01*
X207851Y681282D01*
X207984Y681321D01*
X208045Y681343D01*
X208100Y681370D01*
X208106D01*
X208111Y681376D01*
X208145Y681404D01*
X208189Y681448D01*
X208211Y681476D01*
X208239Y681514D01*
X208267Y681559D01*
X208289Y681603D01*
X208311Y681658D01*
X208333Y681725D01*
X208350Y681791D01*
X208366Y681869D01*
X208372Y681957D01*
X208377Y682051D01*
Y682057D01*
Y682068D01*
Y682090D01*
X208372Y682118D01*
Y682151D01*
X208366Y682190D01*
X208350Y682273D01*
X208316Y682367D01*
X208272Y682461D01*
X208217Y682544D01*
X208178Y682583D01*
X208134Y682616D01*
X208123Y682622D01*
X208089Y682644D01*
X208039Y682666D01*
X207962Y682699D01*
X207873Y682727D01*
X207763Y682755D01*
X207635Y682771D01*
X207491Y682777D01*
D02*
G37*
G36*
X217608Y685274D02*
X213948Y682633D01*
X217608D01*
Y685274D01*
D02*
G37*
G36*
X195476Y685507D02*
X193914Y682539D01*
X197004D01*
X195476Y685507D01*
D02*
G37*
G36*
X185786Y685147D02*
X182064D01*
Y683325D01*
X185664D01*
X185714Y683331D01*
X185774D01*
X185841Y683336D01*
X185907Y683342D01*
X185985Y683347D01*
X186140Y683369D01*
X186289Y683403D01*
X186361Y683419D01*
X186417Y683441D01*
X186472Y683469D01*
X186511Y683502D01*
X186516Y683513D01*
X186528Y683524D01*
X186539Y683541D01*
X186555Y683563D01*
X186566Y683591D01*
X186583Y683630D01*
X186605Y683674D01*
X186622Y683724D01*
X186638Y683779D01*
X186649Y683846D01*
X186666Y683918D01*
X186677Y684001D01*
X186688Y684095D01*
X186694Y684194D01*
Y684305D01*
Y684311D01*
Y684322D01*
Y684338D01*
Y684366D01*
X186688Y684427D01*
X186682Y684504D01*
X186677Y684588D01*
X186666Y684676D01*
X186644Y684754D01*
X186622Y684826D01*
X186616Y684831D01*
X186611Y684853D01*
X186588Y684881D01*
X186561Y684920D01*
X186522Y684958D01*
X186472Y684997D01*
X186411Y685031D01*
X186334Y685058D01*
X186323Y685064D01*
X186301Y685069D01*
X186256Y685080D01*
X186206Y685091D01*
X186151Y685108D01*
X186096Y685119D01*
X186035Y685130D01*
X185979Y685136D01*
X185957D01*
X185924Y685141D01*
X185841D01*
X185786Y685147D01*
D02*
G37*
G36*
X247287Y685230D02*
X246102D01*
X246019Y685224D01*
X245914Y685219D01*
X245803Y685213D01*
X245681Y685202D01*
X245548Y685191D01*
X245283Y685158D01*
X245150Y685130D01*
X245023Y685102D01*
X244912Y685069D01*
X244806Y685025D01*
X244718Y684981D01*
X244685Y684953D01*
X244652Y684925D01*
X244646Y684920D01*
X244640Y684909D01*
X244624Y684892D01*
X244607Y684859D01*
X244585Y684820D01*
X244557Y684770D01*
X244530Y684704D01*
X244502Y684626D01*
X244474Y684538D01*
X244447Y684433D01*
X244424Y684316D01*
X244397Y684178D01*
X244380Y684028D01*
X244363Y683857D01*
X244358Y683668D01*
X244352Y683464D01*
Y683325D01*
Y683319D01*
Y683314D01*
Y683297D01*
Y683275D01*
Y683220D01*
X244358Y683148D01*
Y683054D01*
X244363Y682954D01*
X244375Y682843D01*
X244380Y682721D01*
X244413Y682478D01*
X244430Y682356D01*
X244452Y682234D01*
X244480Y682123D01*
X244513Y682018D01*
X244546Y681930D01*
X244591Y681852D01*
X244596Y681847D01*
X244602Y681836D01*
X244618Y681819D01*
X244646Y681797D01*
X244679Y681769D01*
X244723Y681741D01*
X244773Y681708D01*
X244840Y681675D01*
X244917Y681642D01*
X245011Y681609D01*
X245111Y681581D01*
X245233Y681553D01*
X245366Y681531D01*
X245521Y681514D01*
X245687Y681503D01*
X245875Y681498D01*
X246717Y681481D01*
X247398D01*
X247464Y681487D01*
X247547Y681492D01*
X247642Y681498D01*
X247747Y681503D01*
X247857Y681514D01*
X248085Y681548D01*
X248201Y681570D01*
X248312Y681598D01*
X248417Y681631D01*
X248516Y681669D01*
X248599Y681708D01*
X248671Y681758D01*
X248677Y681764D01*
X248688Y681775D01*
X248705Y681791D01*
X248727Y681819D01*
X248755Y681858D01*
X248782Y681908D01*
X248815Y681969D01*
X248849Y682040D01*
X248876Y682129D01*
X248910Y682229D01*
X248937Y682345D01*
X248965Y682478D01*
X248987Y682622D01*
X249004Y682788D01*
X249015Y682971D01*
X249020Y683176D01*
Y683336D01*
Y683486D01*
Y683613D01*
Y683618D01*
Y683635D01*
Y683657D01*
Y683690D01*
Y683729D01*
X249015Y683774D01*
Y683829D01*
Y683884D01*
X249004Y684012D01*
X248993Y684145D01*
X248976Y684283D01*
X248954Y684421D01*
Y684427D01*
X248948Y684438D01*
Y684455D01*
X248943Y684482D01*
X248921Y684543D01*
X248893Y684621D01*
X248854Y684709D01*
X248804Y684798D01*
X248738Y684875D01*
X248660Y684948D01*
X248649Y684953D01*
X248622Y684975D01*
X248577Y685003D01*
X248516Y685042D01*
X248439Y685075D01*
X248356Y685114D01*
X248267Y685141D01*
X248168Y685163D01*
X248157D01*
X248140Y685169D01*
X248123D01*
X248068Y685180D01*
X247996Y685186D01*
X247907Y685197D01*
X247808Y685208D01*
X247697Y685213D01*
X247575Y685219D01*
X247525D01*
X247470Y685224D01*
X247348D01*
X247287Y685230D01*
D02*
G37*
G36*
X237171D02*
X235986D01*
X235903Y685224D01*
X235798Y685219D01*
X235687Y685213D01*
X235565Y685202D01*
X235432Y685191D01*
X235166Y685158D01*
X235033Y685130D01*
X234906Y685102D01*
X234795Y685069D01*
X234690Y685025D01*
X234601Y684981D01*
X234568Y684953D01*
X234535Y684925D01*
X234529Y684920D01*
X234524Y684909D01*
X234507Y684892D01*
X234491Y684859D01*
X234469Y684820D01*
X234441Y684770D01*
X234413Y684704D01*
X234386Y684626D01*
X234358Y684538D01*
X234330Y684433D01*
X234308Y684316D01*
X234280Y684178D01*
X234264Y684028D01*
X234247Y683857D01*
X234242Y683668D01*
X234236Y683464D01*
Y683325D01*
Y683319D01*
Y683314D01*
Y683297D01*
Y683275D01*
Y683220D01*
X234242Y683148D01*
Y683054D01*
X234247Y682954D01*
X234258Y682843D01*
X234264Y682721D01*
X234297Y682478D01*
X234314Y682356D01*
X234336Y682234D01*
X234363Y682123D01*
X234397Y682018D01*
X234430Y681930D01*
X234474Y681852D01*
X234480Y681847D01*
X234485Y681836D01*
X234502Y681819D01*
X234529Y681797D01*
X234563Y681769D01*
X234607Y681741D01*
X234657Y681708D01*
X234723Y681675D01*
X234801Y681642D01*
X234895Y681609D01*
X234995Y681581D01*
X235116Y681553D01*
X235249Y681531D01*
X235404Y681514D01*
X235571Y681503D01*
X235759Y681498D01*
X236600Y681481D01*
X237281D01*
X237348Y681487D01*
X237431Y681492D01*
X237525Y681498D01*
X237630Y681503D01*
X237741Y681514D01*
X237968Y681548D01*
X238084Y681570D01*
X238195Y681598D01*
X238300Y681631D01*
X238400Y681669D01*
X238483Y681708D01*
X238555Y681758D01*
X238561Y681764D01*
X238572Y681775D01*
X238588Y681791D01*
X238610Y681819D01*
X238638Y681858D01*
X238666Y681908D01*
X238699Y681969D01*
X238732Y682040D01*
X238760Y682129D01*
X238793Y682229D01*
X238821Y682345D01*
X238848Y682478D01*
X238871Y682622D01*
X238887Y682788D01*
X238898Y682971D01*
X238904Y683176D01*
Y683336D01*
Y683486D01*
Y683613D01*
Y683618D01*
Y683635D01*
Y683657D01*
Y683690D01*
Y683729D01*
X238898Y683774D01*
Y683829D01*
Y683884D01*
X238887Y684012D01*
X238876Y684145D01*
X238860Y684283D01*
X238837Y684421D01*
Y684427D01*
X238832Y684438D01*
Y684455D01*
X238826Y684482D01*
X238804Y684543D01*
X238776Y684621D01*
X238738Y684709D01*
X238688Y684798D01*
X238622Y684875D01*
X238544Y684948D01*
X238533Y684953D01*
X238505Y684975D01*
X238461Y685003D01*
X238400Y685042D01*
X238323Y685075D01*
X238239Y685114D01*
X238151Y685141D01*
X238051Y685163D01*
X238040D01*
X238023Y685169D01*
X238007D01*
X237952Y685180D01*
X237880Y685186D01*
X237791Y685197D01*
X237691Y685208D01*
X237581Y685213D01*
X237459Y685219D01*
X237409D01*
X237353Y685224D01*
X237232D01*
X237171Y685230D01*
D02*
G37*
%LPD*%
D19*
X204500Y511000D02*
D03*
Y478000D02*
D03*
D20*
X314250Y514823D02*
D03*
Y502822D02*
D03*
X408750Y525250D02*
D03*
X314250Y440118D02*
D03*
Y452118D02*
D03*
X32500Y607250D02*
D03*
X418250Y537250D02*
D03*
X408750D02*
D03*
X42000Y607250D02*
D03*
X323750Y452118D02*
D03*
Y440118D02*
D03*
X193750Y574500D02*
D03*
X203250D02*
D03*
X212250Y566750D02*
D03*
X221750D02*
D03*
X193750Y558500D02*
D03*
X203250D02*
D03*
X212250Y550500D02*
D03*
X221749D02*
D03*
X193750Y542500D02*
D03*
X203250D02*
D03*
X418250Y525250D02*
D03*
X323750Y502822D02*
D03*
Y514823D02*
D03*
D21*
X44000Y501750D02*
D03*
X312500Y560000D02*
D03*
X285750Y568000D02*
D03*
X232500Y584000D02*
D03*
X258750Y576250D02*
D03*
X251000Y533000D02*
D03*
Y542500D02*
D03*
X42000Y592000D02*
D03*
Y582500D02*
D03*
X258750Y566750D02*
D03*
X17500Y345250D02*
D03*
Y354750D02*
D03*
X27500Y325250D02*
D03*
Y334750D02*
D03*
X37500Y345250D02*
D03*
Y354750D02*
D03*
X232500Y574500D02*
D03*
X47500Y325250D02*
D03*
Y334750D02*
D03*
X57500Y345250D02*
D03*
Y354750D02*
D03*
X285750Y558500D02*
D03*
X67500Y325250D02*
D03*
Y334750D02*
D03*
X312500Y550500D02*
D03*
X77500Y345250D02*
D03*
Y354750D02*
D03*
X87500Y325250D02*
D03*
Y334750D02*
D03*
X97500Y345250D02*
D03*
Y354750D02*
D03*
X107500Y325250D02*
D03*
Y334750D02*
D03*
X117500Y345250D02*
D03*
Y354750D02*
D03*
X127500Y325250D02*
D03*
Y334750D02*
D03*
X137500Y345250D02*
D03*
Y354750D02*
D03*
X147500Y325250D02*
D03*
Y334750D02*
D03*
X157500Y345250D02*
D03*
Y354750D02*
D03*
X167500Y325250D02*
D03*
Y334750D02*
D03*
X177500Y345250D02*
D03*
Y354750D02*
D03*
X197500Y325250D02*
D03*
Y334750D02*
D03*
X207500Y345250D02*
D03*
Y354750D02*
D03*
X217500Y325250D02*
D03*
Y334750D02*
D03*
X227500Y345250D02*
D03*
Y354750D02*
D03*
X237500Y325250D02*
D03*
Y334750D02*
D03*
X247500Y345250D02*
D03*
Y354750D02*
D03*
X257500Y325250D02*
D03*
Y334750D02*
D03*
X267500Y345250D02*
D03*
Y354750D02*
D03*
X277500Y325250D02*
D03*
Y334750D02*
D03*
X317500Y345250D02*
D03*
Y354750D02*
D03*
X44000Y511250D02*
D03*
X347500Y345250D02*
D03*
Y354750D02*
D03*
D22*
X346750Y426650D02*
D03*
Y502850D02*
D03*
Y490150D02*
D03*
Y477450D02*
D03*
Y464750D02*
D03*
Y452050D02*
D03*
Y439350D02*
D03*
X418250Y502850D02*
D03*
Y490150D02*
D03*
Y477450D02*
D03*
Y464750D02*
D03*
Y452050D02*
D03*
Y439350D02*
D03*
Y426650D02*
D03*
D23*
X437500Y15250D02*
D03*
X7500D02*
D03*
X27500D02*
D03*
X37500D02*
D03*
X47500D02*
D03*
X57500D02*
D03*
X67500D02*
D03*
X77500D02*
D03*
X87500D02*
D03*
X97500D02*
D03*
X107500D02*
D03*
X117500D02*
D03*
X127500D02*
D03*
X137500D02*
D03*
X147500D02*
D03*
X157500D02*
D03*
X167500D02*
D03*
X177500D02*
D03*
X187500D02*
D03*
X197500D02*
D03*
X207500D02*
D03*
X217500D02*
D03*
X227500D02*
D03*
X237500D02*
D03*
X247500D02*
D03*
X257500D02*
D03*
X267500D02*
D03*
X277500D02*
D03*
X287500D02*
D03*
X297500D02*
D03*
X307500D02*
D03*
X317500D02*
D03*
X327500D02*
D03*
X337500D02*
D03*
X347500D02*
D03*
X357500D02*
D03*
X367500D02*
D03*
X377500D02*
D03*
X387500D02*
D03*
X397500D02*
D03*
X407500D02*
D03*
X417500D02*
D03*
X427500D02*
D03*
X447500D02*
D03*
X17500D02*
D03*
D24*
X64400Y502500D02*
D03*
X177500Y510500D02*
D03*
Y590500D02*
D03*
Y582500D02*
D03*
Y574500D02*
D03*
Y566500D02*
D03*
Y558500D02*
D03*
Y550500D02*
D03*
Y542500D02*
D03*
Y534500D02*
D03*
Y526500D02*
D03*
Y518500D02*
D03*
Y502500D02*
D03*
Y494500D02*
D03*
Y486500D02*
D03*
Y478500D02*
D03*
Y470500D02*
D03*
Y462500D02*
D03*
Y454500D02*
D03*
Y446500D02*
D03*
Y438500D02*
D03*
Y430500D02*
D03*
Y422500D02*
D03*
X64400D02*
D03*
Y430500D02*
D03*
Y438500D02*
D03*
Y446500D02*
D03*
Y454500D02*
D03*
Y462500D02*
D03*
Y470500D02*
D03*
Y478500D02*
D03*
Y486500D02*
D03*
Y494500D02*
D03*
Y510500D02*
D03*
Y518500D02*
D03*
Y526500D02*
D03*
Y534500D02*
D03*
Y542500D02*
D03*
Y550500D02*
D03*
Y558500D02*
D03*
Y566500D02*
D03*
Y574500D02*
D03*
Y582500D02*
D03*
Y590500D02*
D03*
D25*
X352100Y646660D02*
D03*
X377500D02*
D03*
X402900D02*
D03*
Y753340D02*
D03*
X377500D02*
D03*
X352100D02*
D03*
X52100Y646660D02*
D03*
X77500D02*
D03*
X102900D02*
D03*
Y753340D02*
D03*
X77500D02*
D03*
X52100D02*
D03*
D26*
X227500Y730000D02*
D03*
M02*
