G04*
G04 #@! TF.GenerationSoftware,Altium Limited,Altium Designer,25.4.2 (15)*
G04*
G04 Layer_Physical_Order=2*
G04 Layer_Color=16711680*
%FSLAX44Y44*%
%MOMM*%
G71*
G04*
G04 #@! TF.SameCoordinates,8BB3DE61-D15D-4615-A688-D497E92F8216*
G04*
G04*
G04 #@! TF.FilePolarity,Positive*
G04*
G01*
G75*
%ADD10C,0.3000*%
%ADD27C,0.4000*%
%ADD28C,0.6000*%
%ADD29C,6.0000*%
%ADD30C,0.6000*%
G36*
X438202Y776097D02*
X441281Y775163D01*
X444118Y773646D01*
X446605Y771605D01*
X448646Y769118D01*
X450163Y766281D01*
X451097Y763202D01*
X451405Y760072D01*
X451390Y760000D01*
Y3609D01*
X3609D01*
Y760000D01*
X3595Y760072D01*
X3903Y763202D01*
X4837Y766281D01*
X6354Y769118D01*
X8395Y771605D01*
X10882Y773646D01*
X13719Y775163D01*
X16798Y776097D01*
X19928Y776405D01*
X20000Y776391D01*
X435000D01*
X435072Y776405D01*
X438202Y776097D01*
D02*
G37*
%LPC*%
G36*
X118102Y541540D02*
X115898D01*
X113862Y540697D01*
X112303Y539138D01*
X111460Y537102D01*
Y536286D01*
X109544Y534369D01*
X81846D01*
X81268Y534947D01*
X79232Y535790D01*
X77028D01*
X74992Y534947D01*
X73433Y533388D01*
X72590Y531352D01*
Y529148D01*
X73433Y527112D01*
X74466Y526080D01*
X74851Y525250D01*
X74466Y524420D01*
X73433Y523388D01*
X72590Y521352D01*
Y519148D01*
X73433Y517112D01*
X74161Y516384D01*
X74612Y515196D01*
X73053Y513638D01*
X72210Y511602D01*
Y509398D01*
X73053Y507362D01*
X74612Y505803D01*
X76648Y504960D01*
X78852D01*
X80888Y505803D01*
X80956Y505871D01*
X146333D01*
X152977Y499227D01*
X152977Y499227D01*
X154479Y498223D01*
X156250Y497871D01*
X156250Y497871D01*
X163044D01*
X163112Y497803D01*
X165148Y496960D01*
X167352D01*
X169388Y497803D01*
X170947Y499362D01*
X171790Y501398D01*
Y503602D01*
X170947Y505638D01*
X169388Y507197D01*
X167352Y508040D01*
X165148D01*
X163112Y507197D01*
X163044Y507129D01*
X158167D01*
X151523Y513773D01*
X150021Y514776D01*
X148250Y515129D01*
X148250Y515129D01*
X82640D01*
X82114Y516399D01*
X82827Y517112D01*
X83663Y519131D01*
X119035D01*
X119612Y518553D01*
X121648Y517710D01*
X123852D01*
X125888Y518553D01*
X127447Y520112D01*
X128290Y522148D01*
Y524352D01*
X127447Y526388D01*
X125888Y527947D01*
X123852Y528790D01*
X121648D01*
X119612Y527947D01*
X119035Y527369D01*
X115854D01*
X115368Y528543D01*
X117285Y530460D01*
X118102D01*
X120138Y531304D01*
X121697Y532862D01*
X122540Y534898D01*
Y537102D01*
X121697Y539138D01*
X120138Y540697D01*
X118102Y541540D01*
D02*
G37*
G36*
X77500Y610649D02*
X76954Y610540D01*
X76398D01*
X75884Y610327D01*
X75338Y610219D01*
X74876Y609910D01*
X74362Y609697D01*
X73969Y609303D01*
X73506Y608994D01*
X73506Y608994D01*
X30006Y565494D01*
X28781Y563661D01*
X28351Y561500D01*
X28351Y561500D01*
Y511250D01*
X28460Y510704D01*
Y510148D01*
X28673Y509634D01*
X28781Y509089D01*
X29090Y508626D01*
X29303Y508112D01*
X29697Y507719D01*
X30006Y507256D01*
X30468Y506947D01*
X30862Y506554D01*
X31376Y506341D01*
X31838Y506032D01*
X32384Y505923D01*
X32898Y505710D01*
X33454D01*
X34000Y505602D01*
X34546Y505710D01*
X35102D01*
X35616Y505923D01*
X36161Y506032D01*
X36624Y506341D01*
X37138Y506554D01*
X37531Y506947D01*
X37994Y507256D01*
X38303Y507719D01*
X38696Y508112D01*
X38909Y508626D01*
X39218Y509089D01*
X39327Y509634D01*
X39540Y510148D01*
Y510704D01*
X39648Y511250D01*
Y559160D01*
X79840Y599352D01*
X439250D01*
X439796Y599460D01*
X440352D01*
X440866Y599673D01*
X441412Y599781D01*
X441874Y600090D01*
X442388Y600303D01*
X442781Y600697D01*
X443244Y601006D01*
X443553Y601469D01*
X443947Y601862D01*
X444160Y602376D01*
X444469Y602838D01*
X444577Y603384D01*
X444790Y603898D01*
Y604454D01*
X444898Y605000D01*
X444790Y605546D01*
Y606102D01*
X444577Y606616D01*
X444469Y607162D01*
X444160Y607624D01*
X443947Y608138D01*
X443553Y608531D01*
X443244Y608994D01*
X442781Y609303D01*
X442388Y609697D01*
X441874Y609910D01*
X441412Y610219D01*
X440866Y610327D01*
X440352Y610540D01*
X439796D01*
X439250Y610648D01*
X77500D01*
X77500Y610649D01*
D02*
G37*
G36*
X128602Y504290D02*
X126398D01*
X124362Y503447D01*
X122803Y501888D01*
X121960Y499852D01*
Y499035D01*
X121414Y498489D01*
X81846D01*
X81268Y499067D01*
X79232Y499910D01*
X77028D01*
X74992Y499067D01*
X73433Y497508D01*
X72590Y495472D01*
Y493268D01*
X73304Y491544D01*
X71862Y490947D01*
X70303Y489388D01*
X69460Y487352D01*
Y485148D01*
X69981Y483889D01*
X69137Y482619D01*
X56716D01*
X56138Y483196D01*
X54102Y484040D01*
X51898D01*
X49862Y483196D01*
X48304Y481638D01*
X47460Y479602D01*
Y477398D01*
X47878Y476389D01*
X47029Y475119D01*
X40716D01*
X39888Y475947D01*
X37852Y476790D01*
X35648D01*
X33612Y475947D01*
X32053Y474388D01*
X31210Y472352D01*
Y470148D01*
X32053Y468112D01*
X33612Y466553D01*
X35648Y465710D01*
X37852D01*
X39888Y466553D01*
X40216Y466881D01*
X41499D01*
X41884Y465611D01*
X41587Y465413D01*
X34587Y458413D01*
X33694Y457076D01*
X33381Y455500D01*
Y439466D01*
X32803Y438888D01*
X31960Y436852D01*
Y434648D01*
X32803Y432612D01*
X34362Y431053D01*
X36398Y430210D01*
X38602D01*
X40638Y431053D01*
X42197Y432612D01*
X43040Y434648D01*
Y436852D01*
X42197Y438888D01*
X41619Y439466D01*
Y453794D01*
X46206Y458381D01*
X47034D01*
X47612Y457803D01*
X49648Y456960D01*
X51852D01*
X53888Y457803D01*
X55447Y459362D01*
X56290Y461398D01*
Y463602D01*
X55447Y465638D01*
X55377Y465708D01*
X55863Y466881D01*
X155119D01*
X163381Y458619D01*
Y458216D01*
X162803Y457638D01*
X161960Y455602D01*
Y453398D01*
X162803Y451362D01*
X164362Y449803D01*
X166398Y448960D01*
X168602D01*
X170638Y449803D01*
X172196Y451362D01*
X173040Y453398D01*
Y455602D01*
X172196Y457638D01*
X171619Y458216D01*
Y460325D01*
X171305Y461902D01*
X170413Y463238D01*
X169473Y464178D01*
X169720Y465423D01*
X170638Y465803D01*
X171215Y466381D01*
X174247D01*
X183881Y456747D01*
Y399750D01*
X184194Y398174D01*
X185087Y396837D01*
X190087Y391837D01*
X191424Y390944D01*
X193000Y390631D01*
X258794D01*
X273381Y376044D01*
Y348466D01*
X272803Y347888D01*
X271960Y345852D01*
Y343648D01*
X272803Y341612D01*
X274362Y340053D01*
X276398Y339210D01*
X278602D01*
X280638Y340053D01*
X282197Y341612D01*
X283040Y343648D01*
Y345852D01*
X282197Y347888D01*
X281619Y348466D01*
Y377750D01*
X281306Y379326D01*
X280413Y380663D01*
X264464Y396611D01*
X264991Y397881D01*
X269250D01*
X270826Y398194D01*
X272163Y399087D01*
X281913Y408837D01*
X282806Y410174D01*
X283119Y411750D01*
Y445784D01*
X283697Y446362D01*
X284540Y448398D01*
Y450602D01*
X283697Y452638D01*
X282138Y454197D01*
X280102Y455040D01*
X277898D01*
X275862Y454197D01*
X274303Y452638D01*
X273460Y450602D01*
Y448398D01*
X274303Y446362D01*
X274881Y445784D01*
Y413456D01*
X268183Y406759D01*
X267368Y406830D01*
X266571Y408120D01*
X266790Y408648D01*
Y410852D01*
X265947Y412888D01*
X264388Y414447D01*
X262352Y415290D01*
X260148D01*
X258112Y414447D01*
X257284Y413619D01*
X202956D01*
X198369Y418206D01*
Y460250D01*
X198056Y461826D01*
X197163Y463163D01*
X178913Y481413D01*
X177576Y482305D01*
X176000Y482619D01*
X139781D01*
X139301Y483889D01*
X140080Y485770D01*
Y487974D01*
X139236Y490010D01*
X137678Y491568D01*
X135642Y492412D01*
X133438D01*
X131402Y491568D01*
X130452Y490619D01*
X126990D01*
X126464Y491889D01*
X127785Y493210D01*
X128602D01*
X130638Y494053D01*
X132197Y495612D01*
X133040Y497648D01*
Y499852D01*
X132197Y501888D01*
X130638Y503447D01*
X128602Y504290D01*
D02*
G37*
G36*
X232602Y482790D02*
X230398D01*
X228362Y481947D01*
X226803Y480388D01*
X225960Y478352D01*
Y476148D01*
X226803Y474112D01*
X227381Y473534D01*
Y440206D01*
X217215Y430040D01*
X216398D01*
X214362Y429197D01*
X212804Y427638D01*
X211960Y425602D01*
Y423398D01*
X212804Y421362D01*
X214362Y419804D01*
X216398Y418960D01*
X218602D01*
X220638Y419804D01*
X222197Y421362D01*
X223040Y423398D01*
Y424215D01*
X234413Y435587D01*
X235306Y436923D01*
X235619Y438500D01*
Y473534D01*
X236197Y474112D01*
X237040Y476148D01*
Y478352D01*
X236197Y480388D01*
X234638Y481947D01*
X232602Y482790D01*
D02*
G37*
G36*
X51781Y451997D02*
X49577D01*
X47541Y451154D01*
X45983Y449595D01*
X45139Y447559D01*
Y445355D01*
X45983Y443319D01*
X47541Y441760D01*
X49044Y441138D01*
X48442Y439683D01*
Y437479D01*
X49285Y435443D01*
X50843Y433885D01*
X52880Y433041D01*
X55083D01*
X57120Y433885D01*
X57697Y434462D01*
X116713D01*
X152285Y398889D01*
X151759Y397619D01*
X145216D01*
X144638Y398197D01*
X142602Y399040D01*
X140398D01*
X138362Y398197D01*
X136803Y396638D01*
X135960Y394602D01*
Y392398D01*
X136803Y390362D01*
X138196Y388969D01*
X138316Y388348D01*
X138229Y387484D01*
X136883Y386138D01*
X136040Y384102D01*
Y381898D01*
X136883Y379862D01*
X138442Y378303D01*
X138654Y377238D01*
X137803Y376388D01*
X136960Y374352D01*
Y372148D01*
X137803Y370112D01*
X139362Y368553D01*
X141398Y367710D01*
X143602D01*
X145638Y368553D01*
X146216Y369131D01*
X152044D01*
X153126Y368049D01*
X152885Y367807D01*
X152041Y365771D01*
Y363567D01*
X152885Y361531D01*
X154443Y359972D01*
X156479Y359129D01*
X158683D01*
X160719Y359972D01*
X162111Y361364D01*
X162900Y361217D01*
X163381Y360974D01*
Y348466D01*
X162803Y347888D01*
X161960Y345852D01*
Y343648D01*
X162803Y341612D01*
X164362Y340053D01*
X166398Y339210D01*
X168602D01*
X170638Y340053D01*
X172196Y341612D01*
X173040Y343648D01*
Y345852D01*
X172196Y347888D01*
X171619Y348466D01*
Y361152D01*
X172482Y361487D01*
X172889Y361526D01*
X174362Y360053D01*
X176398Y359210D01*
X178602D01*
X180638Y360053D01*
X182196Y361612D01*
X183040Y363648D01*
Y365852D01*
X182696Y366683D01*
X183772Y367402D01*
X184587Y366587D01*
X185924Y365694D01*
X187500Y365381D01*
X228294D01*
X233462Y360212D01*
Y348384D01*
X232885Y347807D01*
X232041Y345771D01*
Y343567D01*
X232885Y341531D01*
X234443Y339972D01*
X236479Y339129D01*
X238683D01*
X240720Y339972D01*
X242278Y341531D01*
X243121Y343567D01*
Y345771D01*
X242278Y347807D01*
X241701Y348384D01*
Y361071D01*
X242564Y361406D01*
X242971Y361445D01*
X244443Y359972D01*
X246479Y359129D01*
X248683D01*
X250720Y359972D01*
X252278Y361531D01*
X253121Y363567D01*
Y365771D01*
X252278Y367807D01*
X250720Y369365D01*
X248683Y370209D01*
X247367D01*
X239413Y378163D01*
X238076Y379056D01*
X236500Y379369D01*
X192956D01*
X122831Y449494D01*
X121495Y450387D01*
X119919Y450700D01*
X54271D01*
X53818Y451154D01*
X51781Y451997D01*
D02*
G37*
G36*
X147422Y555369D02*
X73000D01*
X71424Y555056D01*
X70087Y554163D01*
X54544Y538619D01*
X50966D01*
X50388Y539196D01*
X48352Y540040D01*
X46148D01*
X44112Y539196D01*
X42554Y537638D01*
X41710Y535602D01*
Y533398D01*
X42554Y531362D01*
X44112Y529803D01*
X46148Y528960D01*
X48352D01*
X50388Y529803D01*
X50966Y530381D01*
X56250D01*
X57826Y530694D01*
X59163Y531587D01*
X74706Y547131D01*
X145716D01*
X193009Y499837D01*
X194346Y498944D01*
X195922Y498631D01*
X278044D01*
X315512Y461163D01*
Y404619D01*
X315825Y403043D01*
X316718Y401706D01*
X326960Y391465D01*
Y390648D01*
X327803Y388612D01*
X329362Y387053D01*
X331398Y386210D01*
X333602D01*
X335638Y387053D01*
X337197Y388612D01*
X338040Y390648D01*
Y392852D01*
X337197Y394888D01*
X335638Y396447D01*
X333602Y397290D01*
X332785D01*
X323750Y406325D01*
Y462869D01*
X323437Y464445D01*
X322544Y465782D01*
X282663Y505663D01*
X281326Y506556D01*
X279750Y506869D01*
X197628D01*
X150335Y554163D01*
X148998Y555056D01*
X147422Y555369D01*
D02*
G37*
G36*
X339852Y520363D02*
X337648D01*
X335612Y519520D01*
X334053Y517961D01*
X333210Y515925D01*
Y513721D01*
X334053Y511685D01*
X334631Y511107D01*
Y497956D01*
X333087Y496413D01*
X332194Y495076D01*
X331881Y493500D01*
Y413750D01*
X332194Y412174D01*
X333087Y410837D01*
X343381Y400544D01*
Y368466D01*
X342803Y367888D01*
X341960Y365852D01*
Y363648D01*
X342803Y361612D01*
X344362Y360053D01*
X346398Y359210D01*
X348602D01*
X350638Y360053D01*
X352197Y361612D01*
X353040Y363648D01*
Y365852D01*
X352197Y367888D01*
X351619Y368466D01*
Y402250D01*
X351306Y403826D01*
X350413Y405163D01*
X340119Y415456D01*
Y491794D01*
X341663Y493337D01*
X342556Y494674D01*
X342869Y496250D01*
Y511107D01*
X343447Y511685D01*
X344290Y513721D01*
Y515925D01*
X343447Y517961D01*
X341888Y519520D01*
X339852Y520363D01*
D02*
G37*
%LPD*%
D10*
X50804Y446581D02*
X119919D01*
X50679Y446457D02*
X50804Y446581D01*
X53981Y438581D02*
X118419D01*
X37500Y455500D02*
X44500Y462500D01*
X37500Y435757D02*
Y455500D01*
X187500Y369500D02*
X230000D01*
X237582Y344669D02*
Y361919D01*
X230000Y369500D02*
X237582Y361919D01*
X56250Y534500D02*
X73000Y551250D01*
X47250Y534500D02*
X56250D01*
X319631Y404619D02*
X332500Y391750D01*
X319631Y404619D02*
Y462869D01*
X279750Y502750D02*
X319631Y462869D01*
X195922Y502750D02*
X279750D01*
X73000Y551250D02*
X147422D01*
X217500Y424500D02*
X231500Y438500D01*
Y477250D01*
X279000Y411750D02*
Y449500D01*
X269250Y402000D02*
X279000Y411750D01*
X197500Y402000D02*
X269250D01*
X147422Y551250D02*
X195922Y502750D01*
X336000Y413750D02*
X347500Y402250D01*
Y364750D02*
Y402250D01*
X336000Y413750D02*
Y493500D01*
X338750Y496250D02*
Y514823D01*
X336000Y493500D02*
X338750Y496250D01*
X277500Y344750D02*
Y377750D01*
X193000Y394750D02*
X260500D01*
X277500Y377750D01*
X201250Y409500D02*
X261000D01*
X261250Y409750D01*
X81210Y523250D02*
X122750D01*
X78130Y520250D02*
X78210D01*
X81210Y523250D01*
X153750Y373250D02*
X157500Y369500D01*
X142500Y373250D02*
X153750D01*
X157500Y364750D02*
Y369500D01*
Y364750D02*
X157581Y364669D01*
X75250Y486500D02*
X134168D01*
X134540Y486872D01*
X78130Y530250D02*
X111250D01*
X117000Y536000D01*
X188000Y399750D02*
X193000Y394750D01*
X175953Y470500D02*
X188000Y458453D01*
Y399750D02*
Y458453D01*
X194250Y416500D02*
X201250Y409500D01*
X194250Y416500D02*
Y460250D01*
X167500Y454500D02*
Y460325D01*
X156825Y471000D02*
X167500Y460325D01*
X37000Y471000D02*
X156825D01*
X153750Y383000D02*
X167500Y369250D01*
X141500Y393500D02*
X153250D01*
X141580Y383000D02*
X153750D01*
X123120Y494370D02*
X127500Y498750D01*
X78130Y494370D02*
X123120D01*
X75000Y486250D02*
X75250Y486500D01*
X53000Y478500D02*
X176000D01*
X194250Y460250D01*
X44500Y462500D02*
X50750D01*
X36750Y471250D02*
X37000Y471000D01*
X236500Y375250D02*
X247081Y364669D01*
X119919Y446581D02*
X191250Y375250D01*
X236500D01*
X118419Y438581D02*
X187500Y369500D01*
X177447Y364803D02*
X177500Y364750D01*
X153250Y393500D02*
X177447Y369304D01*
Y364803D02*
Y369304D01*
X167500Y344750D02*
Y369250D01*
X247081Y364669D02*
X247581D01*
X167500Y470500D02*
X175953D01*
D27*
X156250Y502500D02*
X166250D01*
X148250Y510500D02*
X156250Y502500D01*
X77750Y510500D02*
X148250D01*
D28*
X77500Y605000D02*
X375000D01*
X439250D01*
X34000Y561500D02*
X77500Y605000D01*
X34000Y511250D02*
Y561500D01*
D29*
X227500Y730000D02*
D03*
D30*
X8750Y202500D02*
D03*
Y375750D02*
D03*
Y46000D02*
D03*
X232500Y594000D02*
D03*
X251000Y523000D02*
D03*
X312500Y570000D02*
D03*
X285750Y578000D02*
D03*
X304250Y502822D02*
D03*
X398750Y525250D02*
D03*
X304250Y514823D02*
D03*
X258750Y586250D02*
D03*
X346669Y416731D02*
D03*
X23540Y607331D02*
D03*
X204581Y520919D02*
D03*
X304250Y452118D02*
D03*
Y440118D02*
D03*
X34040Y501750D02*
D03*
X20000Y466000D02*
D03*
Y526000D02*
D03*
Y586000D02*
D03*
Y646000D02*
D03*
X35000Y676000D02*
D03*
X20000Y706000D02*
D03*
X35000Y736000D02*
D03*
X65000Y616000D02*
D03*
Y676000D02*
D03*
X50000Y706000D02*
D03*
X80000Y586000D02*
D03*
X95000Y616000D02*
D03*
Y676000D02*
D03*
X110000Y586000D02*
D03*
X125000Y676000D02*
D03*
X110000Y706000D02*
D03*
X125000Y736000D02*
D03*
X140000Y526000D02*
D03*
X155000Y556000D02*
D03*
X140000Y586000D02*
D03*
X155000Y676000D02*
D03*
Y736000D02*
D03*
X170000Y646000D02*
D03*
Y706000D02*
D03*
X185000Y736000D02*
D03*
X200000Y586000D02*
D03*
Y646000D02*
D03*
X230000D02*
D03*
X260000Y466000D02*
D03*
Y646000D02*
D03*
X275000Y736000D02*
D03*
X290000Y46000D02*
D03*
X305000Y76000D02*
D03*
X290000Y106000D02*
D03*
X305000Y136000D02*
D03*
X290000Y166000D02*
D03*
X305000Y196000D02*
D03*
X290000Y226000D02*
D03*
X305000Y256000D02*
D03*
X290000Y286000D02*
D03*
X305000Y316000D02*
D03*
X290000Y346000D02*
D03*
X305000Y376000D02*
D03*
X290000Y406000D02*
D03*
Y526000D02*
D03*
Y646000D02*
D03*
X305000Y676000D02*
D03*
X290000Y706000D02*
D03*
X305000Y736000D02*
D03*
X335000Y76000D02*
D03*
Y136000D02*
D03*
Y196000D02*
D03*
Y256000D02*
D03*
Y316000D02*
D03*
Y376000D02*
D03*
X320000Y526000D02*
D03*
Y586000D02*
D03*
Y646000D02*
D03*
X335000Y676000D02*
D03*
X320000Y706000D02*
D03*
X335000Y736000D02*
D03*
X365000Y76000D02*
D03*
Y136000D02*
D03*
Y196000D02*
D03*
Y256000D02*
D03*
Y316000D02*
D03*
Y376000D02*
D03*
X350000Y526000D02*
D03*
Y586000D02*
D03*
X365000Y616000D02*
D03*
Y676000D02*
D03*
X350000Y706000D02*
D03*
X380000Y46000D02*
D03*
X395000Y76000D02*
D03*
X380000Y106000D02*
D03*
X395000Y136000D02*
D03*
X380000Y166000D02*
D03*
X395000Y196000D02*
D03*
X380000Y226000D02*
D03*
X395000Y256000D02*
D03*
X380000Y286000D02*
D03*
X395000Y316000D02*
D03*
X380000Y346000D02*
D03*
X395000Y376000D02*
D03*
X380000Y406000D02*
D03*
X395000Y436000D02*
D03*
Y496000D02*
D03*
X380000Y586000D02*
D03*
X395000Y616000D02*
D03*
Y676000D02*
D03*
X410000Y46000D02*
D03*
X425000Y76000D02*
D03*
X410000Y106000D02*
D03*
X425000Y136000D02*
D03*
X410000Y166000D02*
D03*
X425000Y196000D02*
D03*
X410000Y226000D02*
D03*
X425000Y256000D02*
D03*
X410000Y286000D02*
D03*
X425000Y316000D02*
D03*
X410000Y346000D02*
D03*
X425000Y376000D02*
D03*
Y556000D02*
D03*
Y616000D02*
D03*
X410000Y706000D02*
D03*
X50679Y446457D02*
D03*
X53981Y438581D02*
D03*
X37500Y435750D02*
D03*
X77500Y605000D02*
D03*
X439250D02*
D03*
X375000D02*
D03*
X47250Y534500D02*
D03*
X332500Y391750D02*
D03*
X231500Y477250D02*
D03*
X279000Y449500D02*
D03*
X166250Y502500D02*
D03*
X77750Y510500D02*
D03*
X261250Y409750D02*
D03*
X78130Y520250D02*
D03*
X338750Y514823D02*
D03*
X134540Y486872D02*
D03*
X197500Y402000D02*
D03*
X141500Y393500D02*
D03*
X142500Y373250D02*
D03*
X141580Y383000D02*
D03*
X127500Y498750D02*
D03*
X75000Y486250D02*
D03*
X78130Y494370D02*
D03*
Y530250D02*
D03*
X50750Y462500D02*
D03*
X36750Y471250D02*
D03*
X247581Y364669D02*
D03*
X237582Y344669D02*
D03*
X117000Y536000D02*
D03*
X122750Y523250D02*
D03*
X157581Y364669D02*
D03*
X167500Y470500D02*
D03*
Y454500D02*
D03*
X53000Y478500D02*
D03*
X217500Y424500D02*
D03*
X177500Y364750D02*
D03*
X167500Y344750D02*
D03*
X277500D02*
D03*
X34000Y511250D02*
D03*
X347500Y364750D02*
D03*
M02*
