G04*
G04 #@! TF.GenerationSoftware,Altium Limited,Altium Designer,25.4.2 (15)*
G04*
G04 Layer_Color=128*
%FSLAX44Y44*%
%MOMM*%
G71*
G04*
G04 #@! TF.SameCoordinates,8BB3DE61-D15D-4615-A688-D497E92F8216*
G04*
G04*
G04 #@! TF.FilePolarity,Positive*
G04*
G01*
G75*
%ADD35C,0.1270*%
D35*
X211500Y730000D02*
X243500D01*
X227500Y714000D02*
Y746000D01*
X7250Y202500D02*
X10250D01*
X8750Y201000D02*
Y204000D01*
X7250Y375750D02*
X10250D01*
X8750Y374250D02*
Y377250D01*
X7250Y46000D02*
X10250D01*
X8750Y44500D02*
Y47500D01*
X231000Y594000D02*
X234000D01*
X232500Y592500D02*
Y595500D01*
X249500Y523000D02*
X252500D01*
X251000Y521500D02*
Y524500D01*
X311000Y570000D02*
X314000D01*
X312500Y568500D02*
Y571500D01*
X284250Y578000D02*
X287250D01*
X285750Y576500D02*
Y579500D01*
X302750Y502822D02*
X305750D01*
X304250Y501323D02*
Y504323D01*
X397250Y525250D02*
X400250D01*
X398750Y523750D02*
Y526750D01*
X302750Y514823D02*
X305750D01*
X304250Y513323D02*
Y516323D01*
X257250Y586250D02*
X260250D01*
X258750Y584750D02*
Y587750D01*
X345169Y416731D02*
X348169D01*
X346669Y415231D02*
Y418231D01*
X22040Y607331D02*
X25040D01*
X23540Y605831D02*
Y608831D01*
X203081Y520919D02*
X206081D01*
X204581Y519419D02*
Y522419D01*
X302750Y452118D02*
X305750D01*
X304250Y450617D02*
Y453618D01*
X302750Y440118D02*
X305750D01*
X304250Y438618D02*
Y441618D01*
X32540Y501750D02*
X35540D01*
X34040Y500250D02*
Y503250D01*
X18500Y466000D02*
X21500D01*
X20000Y464500D02*
Y467500D01*
X18500Y526000D02*
X21500D01*
X20000Y524500D02*
Y527500D01*
X18500Y586000D02*
X21500D01*
X20000Y584500D02*
Y587500D01*
X18500Y646000D02*
X21500D01*
X20000Y644500D02*
Y647500D01*
X33500Y676000D02*
X36500D01*
X35000Y674500D02*
Y677500D01*
X18500Y706000D02*
X21500D01*
X20000Y704500D02*
Y707500D01*
X33500Y736000D02*
X36500D01*
X35000Y734500D02*
Y737500D01*
X63500Y616000D02*
X66500D01*
X65000Y614500D02*
Y617500D01*
X63500Y676000D02*
X66500D01*
X65000Y674500D02*
Y677500D01*
X48500Y706000D02*
X51500D01*
X50000Y704500D02*
Y707500D01*
X78500Y586000D02*
X81500D01*
X80000Y584500D02*
Y587500D01*
X93500Y616000D02*
X96500D01*
X95000Y614500D02*
Y617500D01*
X93500Y676000D02*
X96500D01*
X95000Y674500D02*
Y677500D01*
X108500Y586000D02*
X111500D01*
X110000Y584500D02*
Y587500D01*
X123500Y676000D02*
X126500D01*
X125000Y674500D02*
Y677500D01*
X108500Y706000D02*
X111500D01*
X110000Y704500D02*
Y707500D01*
X123500Y736000D02*
X126500D01*
X125000Y734500D02*
Y737500D01*
X138500Y526000D02*
X141500D01*
X140000Y524500D02*
Y527500D01*
X153500Y556000D02*
X156500D01*
X155000Y554500D02*
Y557500D01*
X138500Y586000D02*
X141500D01*
X140000Y584500D02*
Y587500D01*
X153500Y676000D02*
X156500D01*
X155000Y674500D02*
Y677500D01*
X153500Y736000D02*
X156500D01*
X155000Y734500D02*
Y737500D01*
X168500Y646000D02*
X171500D01*
X170000Y644500D02*
Y647500D01*
X168500Y706000D02*
X171500D01*
X170000Y704500D02*
Y707500D01*
X183500Y736000D02*
X186500D01*
X185000Y734500D02*
Y737500D01*
X198500Y586000D02*
X201500D01*
X200000Y584500D02*
Y587500D01*
X198500Y646000D02*
X201500D01*
X200000Y644500D02*
Y647500D01*
X228500Y646000D02*
X231500D01*
X230000Y644500D02*
Y647500D01*
X258500Y466000D02*
X261500D01*
X260000Y464500D02*
Y467500D01*
X258500Y646000D02*
X261500D01*
X260000Y644500D02*
Y647500D01*
X273500Y736000D02*
X276500D01*
X275000Y734500D02*
Y737500D01*
X288500Y46000D02*
X291500D01*
X290000Y44500D02*
Y47500D01*
X303500Y76000D02*
X306500D01*
X305000Y74500D02*
Y77500D01*
X288500Y106000D02*
X291500D01*
X290000Y104500D02*
Y107500D01*
X303500Y136000D02*
X306500D01*
X305000Y134500D02*
Y137500D01*
X288500Y166000D02*
X291500D01*
X290000Y164500D02*
Y167500D01*
X303500Y196000D02*
X306500D01*
X305000Y194500D02*
Y197500D01*
X288500Y226000D02*
X291500D01*
X290000Y224500D02*
Y227500D01*
X303500Y256000D02*
X306500D01*
X305000Y254500D02*
Y257500D01*
X288500Y286000D02*
X291500D01*
X290000Y284500D02*
Y287500D01*
X303500Y316000D02*
X306500D01*
X305000Y314500D02*
Y317500D01*
X288500Y346000D02*
X291500D01*
X290000Y344500D02*
Y347500D01*
X303500Y376000D02*
X306500D01*
X305000Y374500D02*
Y377500D01*
X288500Y406000D02*
X291500D01*
X290000Y404500D02*
Y407500D01*
X288500Y526000D02*
X291500D01*
X290000Y524500D02*
Y527500D01*
X288500Y646000D02*
X291500D01*
X290000Y644500D02*
Y647500D01*
X303500Y676000D02*
X306500D01*
X305000Y674500D02*
Y677500D01*
X288500Y706000D02*
X291500D01*
X290000Y704500D02*
Y707500D01*
X303500Y736000D02*
X306500D01*
X305000Y734500D02*
Y737500D01*
X333500Y76000D02*
X336500D01*
X335000Y74500D02*
Y77500D01*
X333500Y136000D02*
X336500D01*
X335000Y134500D02*
Y137500D01*
X333500Y196000D02*
X336500D01*
X335000Y194500D02*
Y197500D01*
X333500Y256000D02*
X336500D01*
X335000Y254500D02*
Y257500D01*
X333500Y316000D02*
X336500D01*
X335000Y314500D02*
Y317500D01*
X333500Y376000D02*
X336500D01*
X335000Y374500D02*
Y377500D01*
X318500Y526000D02*
X321500D01*
X320000Y524500D02*
Y527500D01*
X318500Y586000D02*
X321500D01*
X320000Y584500D02*
Y587500D01*
X318500Y646000D02*
X321500D01*
X320000Y644500D02*
Y647500D01*
X333500Y676000D02*
X336500D01*
X335000Y674500D02*
Y677500D01*
X318500Y706000D02*
X321500D01*
X320000Y704500D02*
Y707500D01*
X333500Y736000D02*
X336500D01*
X335000Y734500D02*
Y737500D01*
X363500Y76000D02*
X366500D01*
X365000Y74500D02*
Y77500D01*
X363500Y136000D02*
X366500D01*
X365000Y134500D02*
Y137500D01*
X363500Y196000D02*
X366500D01*
X365000Y194500D02*
Y197500D01*
X363500Y256000D02*
X366500D01*
X365000Y254500D02*
Y257500D01*
X363500Y316000D02*
X366500D01*
X365000Y314500D02*
Y317500D01*
X363500Y376000D02*
X366500D01*
X365000Y374500D02*
Y377500D01*
X348500Y526000D02*
X351500D01*
X350000Y524500D02*
Y527500D01*
X348500Y586000D02*
X351500D01*
X350000Y584500D02*
Y587500D01*
X363500Y616000D02*
X366500D01*
X365000Y614500D02*
Y617500D01*
X363500Y676000D02*
X366500D01*
X365000Y674500D02*
Y677500D01*
X348500Y706000D02*
X351500D01*
X350000Y704500D02*
Y707500D01*
X378500Y46000D02*
X381500D01*
X380000Y44500D02*
Y47500D01*
X393500Y76000D02*
X396500D01*
X395000Y74500D02*
Y77500D01*
X378500Y106000D02*
X381500D01*
X380000Y104500D02*
Y107500D01*
X393500Y136000D02*
X396500D01*
X395000Y134500D02*
Y137500D01*
X378500Y166000D02*
X381500D01*
X380000Y164500D02*
Y167500D01*
X393500Y196000D02*
X396500D01*
X395000Y194500D02*
Y197500D01*
X378500Y226000D02*
X381500D01*
X380000Y224500D02*
Y227500D01*
X393500Y256000D02*
X396500D01*
X395000Y254500D02*
Y257500D01*
X378500Y286000D02*
X381500D01*
X380000Y284500D02*
Y287500D01*
X393500Y316000D02*
X396500D01*
X395000Y314500D02*
Y317500D01*
X378500Y346000D02*
X381500D01*
X380000Y344500D02*
Y347500D01*
X393500Y376000D02*
X396500D01*
X395000Y374500D02*
Y377500D01*
X378500Y406000D02*
X381500D01*
X380000Y404500D02*
Y407500D01*
X393500Y436000D02*
X396500D01*
X395000Y434500D02*
Y437500D01*
X393500Y496000D02*
X396500D01*
X395000Y494500D02*
Y497500D01*
X378500Y586000D02*
X381500D01*
X380000Y584500D02*
Y587500D01*
X393500Y616000D02*
X396500D01*
X395000Y614500D02*
Y617500D01*
X393500Y676000D02*
X396500D01*
X395000Y674500D02*
Y677500D01*
X408500Y46000D02*
X411500D01*
X410000Y44500D02*
Y47500D01*
X423500Y76000D02*
X426500D01*
X425000Y74500D02*
Y77500D01*
X408500Y106000D02*
X411500D01*
X410000Y104500D02*
Y107500D01*
X423500Y136000D02*
X426500D01*
X425000Y134500D02*
Y137500D01*
X408500Y166000D02*
X411500D01*
X410000Y164500D02*
Y167500D01*
X423500Y196000D02*
X426500D01*
X425000Y194500D02*
Y197500D01*
X408500Y226000D02*
X411500D01*
X410000Y224500D02*
Y227500D01*
X423500Y256000D02*
X426500D01*
X425000Y254500D02*
Y257500D01*
X408500Y286000D02*
X411500D01*
X410000Y284500D02*
Y287500D01*
X423500Y316000D02*
X426500D01*
X425000Y314500D02*
Y317500D01*
X408500Y346000D02*
X411500D01*
X410000Y344500D02*
Y347500D01*
X423500Y376000D02*
X426500D01*
X425000Y374500D02*
Y377500D01*
X423500Y556000D02*
X426500D01*
X425000Y554500D02*
Y557500D01*
X423500Y616000D02*
X426500D01*
X425000Y614500D02*
Y617500D01*
X408500Y706000D02*
X411500D01*
X410000Y704500D02*
Y707500D01*
X49180Y446457D02*
X52179D01*
X50679Y444957D02*
Y447957D01*
X52481Y438581D02*
X55482D01*
X53981Y437081D02*
Y440081D01*
X36000Y435750D02*
X39000D01*
X37500Y434250D02*
Y437250D01*
X76000Y605000D02*
X79000D01*
X77500Y603500D02*
Y606500D01*
X437750Y605000D02*
X440750D01*
X439250Y603500D02*
Y606500D01*
X373500Y605000D02*
X376500D01*
X375000Y603500D02*
Y606500D01*
X45750Y534500D02*
X48750D01*
X47250Y533000D02*
Y536000D01*
X331000Y391750D02*
X334000D01*
X332500Y390250D02*
Y393250D01*
X230000Y477250D02*
X233000D01*
X231500Y475750D02*
Y478750D01*
X277500Y449500D02*
X280500D01*
X279000Y448000D02*
Y451000D01*
X164750Y502500D02*
X167750D01*
X166250Y501000D02*
Y504000D01*
X76250Y510500D02*
X79250D01*
X77750Y509000D02*
Y512000D01*
X259750Y409750D02*
X262750D01*
X261250Y408250D02*
Y411250D01*
X76630Y520250D02*
X79630D01*
X78130Y518750D02*
Y521750D01*
X337250Y514823D02*
X340250D01*
X338750Y513323D02*
Y516323D01*
X133040Y486872D02*
X136040D01*
X134540Y485372D02*
Y488372D01*
X196000Y402000D02*
X199000D01*
X197500Y400500D02*
Y403500D01*
X140000Y393500D02*
X143000D01*
X141500Y392000D02*
Y395000D01*
X141000Y373250D02*
X144000D01*
X142500Y371750D02*
Y374750D01*
X140080Y383000D02*
X143080D01*
X141580Y381500D02*
Y384500D01*
X126000Y498750D02*
X129000D01*
X127500Y497250D02*
Y500250D01*
X73500Y486250D02*
X76500D01*
X75000Y484750D02*
Y487750D01*
X76630Y494370D02*
X79630D01*
X78130Y492870D02*
Y495870D01*
X76630Y530250D02*
X79630D01*
X78130Y528750D02*
Y531750D01*
X49250Y462500D02*
X52250D01*
X50750Y461000D02*
Y464000D01*
X35250Y471250D02*
X38250D01*
X36750Y469750D02*
Y472750D01*
X246081Y364669D02*
X249081D01*
X247581Y363169D02*
Y366169D01*
X236082Y344669D02*
X239081D01*
X237582Y343169D02*
Y346169D01*
X115500Y536000D02*
X118500D01*
X117000Y534500D02*
Y537500D01*
X121250Y523250D02*
X124250D01*
X122750Y521750D02*
Y524750D01*
X156081Y364669D02*
X159081D01*
X157581Y363169D02*
Y366169D01*
X166000Y470500D02*
X169000D01*
X167500Y469000D02*
Y472000D01*
X166000Y454500D02*
X169000D01*
X167500Y453000D02*
Y456000D01*
X51500Y478500D02*
X54500D01*
X53000Y477000D02*
Y480000D01*
X216000Y424500D02*
X219000D01*
X217500Y423000D02*
Y426000D01*
X176000Y364750D02*
X179000D01*
X177500Y363250D02*
Y366250D01*
X166000Y344750D02*
X169000D01*
X167500Y343250D02*
Y346250D01*
X276000Y344750D02*
X279000D01*
X277500Y343250D02*
Y346250D01*
X32500Y511250D02*
X35500D01*
X34000Y509750D02*
Y512750D01*
X346000Y364750D02*
X349000D01*
X347500Y363250D02*
Y366250D01*
M02*
