G04*
G04 #@! TF.GenerationSoftware,Altium Limited,Altium Designer,25.4.2 (15)*
G04*
G04 Layer_Color=15238730*
%FSLAX44Y44*%
%MOMM*%
G71*
G04*
G04 #@! TF.SameCoordinates,8BB3DE61-D15D-4615-A688-D497E92F8216*
G04*
G04*
G04 #@! TF.FilePolarity,Positive*
G04*
G01*
G75*
%ADD10C,0.3000*%
%ADD31C,0.0500*%
%ADD32C,0.2000*%
D10*
X422000Y532750D02*
Y541750D01*
X405000Y532750D02*
Y541750D01*
Y532750D02*
X422000D01*
X405000Y541750D02*
X422000D01*
X410750Y537250D02*
X416250D01*
X413500Y534500D02*
Y540000D01*
X246500Y546250D02*
X255500D01*
X246500Y529250D02*
X255500D01*
Y546250D01*
X246500Y529250D02*
Y546250D01*
X251000Y535000D02*
Y540500D01*
X248250Y537750D02*
X253750D01*
X45750Y602750D02*
Y611750D01*
X28750Y602750D02*
Y611750D01*
Y602750D02*
X45750D01*
X28750Y611750D02*
X45750D01*
X34500Y607250D02*
X40000D01*
X37250Y604500D02*
Y610000D01*
X319000Y449368D02*
Y454868D01*
X316250Y452118D02*
X321750D01*
X310500Y456618D02*
X327500D01*
X310500Y447618D02*
X327500D01*
X310500D02*
Y456618D01*
X327500Y447618D02*
Y456618D01*
X319000Y437368D02*
Y442867D01*
X316250Y440118D02*
X321750D01*
X310500Y435618D02*
X327500D01*
X310500Y444618D02*
X327500D01*
Y435618D02*
Y444618D01*
X310500Y435618D02*
Y444618D01*
X39250Y587250D02*
X44750D01*
X42000Y584500D02*
Y590000D01*
X46500Y578750D02*
Y595750D01*
X37500Y578750D02*
Y595750D01*
X46500D01*
X37500Y578750D02*
X46500D01*
X198500Y571750D02*
Y577250D01*
X195750Y574500D02*
X201250D01*
X190000Y579000D02*
X207000D01*
X190000Y570000D02*
X207000D01*
X190000D02*
Y579000D01*
X207000Y570000D02*
Y579000D01*
X217000Y564000D02*
Y569500D01*
X214250Y566750D02*
X219750D01*
X208500Y571250D02*
X225500D01*
X208500Y562250D02*
X225500D01*
X208500D02*
Y571250D01*
X225500Y562250D02*
Y571250D01*
X198500Y555750D02*
Y561250D01*
X195750Y558500D02*
X201250D01*
X190000Y563000D02*
X207000D01*
X190000Y554000D02*
X207000D01*
X190000D02*
Y563000D01*
X207000Y554000D02*
Y563000D01*
X217000Y547750D02*
Y553250D01*
X214250Y550500D02*
X219750D01*
X208500Y555000D02*
X225500D01*
X208500Y546000D02*
X225500D01*
X208500D02*
Y555000D01*
X225500Y546000D02*
Y555000D01*
X198500Y539750D02*
Y545250D01*
X195750Y542500D02*
X201250D01*
X190000Y547000D02*
X207000D01*
X190000Y538000D02*
X207000D01*
X190000D02*
Y547000D01*
X207000Y538000D02*
Y547000D01*
X256000Y571500D02*
X261500D01*
X258750Y568750D02*
Y574250D01*
X263250Y563000D02*
Y580000D01*
X254250Y563000D02*
Y580000D01*
X263250D01*
X254250Y563000D02*
X263250D01*
X14750Y350000D02*
X20250D01*
X17500Y347250D02*
Y352750D01*
X13000Y341500D02*
Y358500D01*
X22000Y341500D02*
Y358500D01*
X13000Y341500D02*
X22000D01*
X13000Y358500D02*
X22000D01*
X24750Y330000D02*
X30250D01*
X27500Y327250D02*
Y332750D01*
X23000Y321500D02*
Y338500D01*
X32000Y321500D02*
Y338500D01*
X23000Y321500D02*
X32000D01*
X23000Y338500D02*
X32000D01*
X34750Y350000D02*
X40250D01*
X37500Y347250D02*
Y352750D01*
X33000Y341500D02*
Y358500D01*
X42000Y341500D02*
Y358500D01*
X33000Y341500D02*
X42000D01*
X33000Y358500D02*
X42000D01*
X229750Y579250D02*
X235250D01*
X232500Y576500D02*
Y582000D01*
X237000Y570750D02*
Y587750D01*
X228000Y570750D02*
Y587750D01*
X237000D01*
X228000Y570750D02*
X237000D01*
X44750Y330000D02*
X50250D01*
X47500Y327250D02*
Y332750D01*
X43000Y321500D02*
Y338500D01*
X52000Y321500D02*
Y338500D01*
X43000Y321500D02*
X52000D01*
X43000Y338500D02*
X52000D01*
X54750Y350000D02*
X60250D01*
X57500Y347250D02*
Y352750D01*
X53000Y341500D02*
Y358500D01*
X62000Y341500D02*
Y358500D01*
X53000Y341500D02*
X62000D01*
X53000Y358500D02*
X62000D01*
X283000Y563250D02*
X288500D01*
X285750Y560500D02*
Y566000D01*
X290250Y554750D02*
Y571750D01*
X281250Y554750D02*
Y571750D01*
X290250D01*
X281250Y554750D02*
X290250D01*
X64750Y330000D02*
X70250D01*
X67500Y327250D02*
Y332750D01*
X63000Y321500D02*
Y338500D01*
X72000Y321500D02*
Y338500D01*
X63000Y321500D02*
X72000D01*
X63000Y338500D02*
X72000D01*
X309750Y555250D02*
X315250D01*
X312500Y552500D02*
Y558000D01*
X317000Y546750D02*
Y563750D01*
X308000Y546750D02*
Y563750D01*
X317000D01*
X308000Y546750D02*
X317000D01*
X74750Y350000D02*
X80250D01*
X77500Y347250D02*
Y352750D01*
X73000Y341500D02*
Y358500D01*
X82000Y341500D02*
Y358500D01*
X73000Y341500D02*
X82000D01*
X73000Y358500D02*
X82000D01*
X84750Y330000D02*
X90250D01*
X87500Y327250D02*
Y332750D01*
X83000Y321500D02*
Y338500D01*
X92000Y321500D02*
Y338500D01*
X83000Y321500D02*
X92000D01*
X83000Y338500D02*
X92000D01*
X94750Y350000D02*
X100250D01*
X97500Y347250D02*
Y352750D01*
X93000Y341500D02*
Y358500D01*
X102000Y341500D02*
Y358500D01*
X93000Y341500D02*
X102000D01*
X93000Y358500D02*
X102000D01*
X413500Y522500D02*
Y528000D01*
X410750Y525250D02*
X416250D01*
X405000Y520750D02*
X422000D01*
X405000Y529750D02*
X422000D01*
Y520750D02*
Y529750D01*
X405000Y520750D02*
Y529750D01*
X104750Y330000D02*
X110250D01*
X107500Y327250D02*
Y332750D01*
X103000Y321500D02*
Y338500D01*
X112000Y321500D02*
Y338500D01*
X103000Y321500D02*
X112000D01*
X103000Y338500D02*
X112000D01*
X114750Y350000D02*
X120250D01*
X117500Y347250D02*
Y352750D01*
X113000Y341500D02*
Y358500D01*
X122000Y341500D02*
Y358500D01*
X113000Y341500D02*
X122000D01*
X113000Y358500D02*
X122000D01*
X124750Y330000D02*
X130250D01*
X127500Y327250D02*
Y332750D01*
X123000Y321500D02*
Y338500D01*
X132000Y321500D02*
Y338500D01*
X123000Y321500D02*
X132000D01*
X123000Y338500D02*
X132000D01*
X134750Y350000D02*
X140250D01*
X137500Y347250D02*
Y352750D01*
X133000Y341500D02*
Y358500D01*
X142000Y341500D02*
Y358500D01*
X133000Y341500D02*
X142000D01*
X133000Y358500D02*
X142000D01*
X144750Y330000D02*
X150250D01*
X147500Y327250D02*
Y332750D01*
X143000Y321500D02*
Y338500D01*
X152000Y321500D02*
Y338500D01*
X143000Y321500D02*
X152000D01*
X143000Y338500D02*
X152000D01*
X154750Y350000D02*
X160250D01*
X157500Y347250D02*
Y352750D01*
X153000Y341500D02*
Y358500D01*
X162000Y341500D02*
Y358500D01*
X153000Y341500D02*
X162000D01*
X153000Y358500D02*
X162000D01*
X164750Y330000D02*
X170250D01*
X167500Y327250D02*
Y332750D01*
X163000Y321500D02*
Y338500D01*
X172000Y321500D02*
Y338500D01*
X163000Y321500D02*
X172000D01*
X163000Y338500D02*
X172000D01*
X174750Y350000D02*
X180250D01*
X177500Y347250D02*
Y352750D01*
X173000Y341500D02*
Y358500D01*
X182000Y341500D02*
Y358500D01*
X173000Y341500D02*
X182000D01*
X173000Y358500D02*
X182000D01*
X194750Y330000D02*
X200250D01*
X197500Y327250D02*
Y332750D01*
X193000Y321500D02*
Y338500D01*
X202000Y321500D02*
Y338500D01*
X193000Y321500D02*
X202000D01*
X193000Y338500D02*
X202000D01*
X204750Y350000D02*
X210250D01*
X207500Y347250D02*
Y352750D01*
X203000Y341500D02*
Y358500D01*
X212000Y341500D02*
Y358500D01*
X203000Y341500D02*
X212000D01*
X203000Y358500D02*
X212000D01*
X214750Y330000D02*
X220250D01*
X217500Y327250D02*
Y332750D01*
X213000Y321500D02*
Y338500D01*
X222000Y321500D02*
Y338500D01*
X213000Y321500D02*
X222000D01*
X213000Y338500D02*
X222000D01*
X224750Y350000D02*
X230250D01*
X227500Y347250D02*
Y352750D01*
X223000Y341500D02*
Y358500D01*
X232000Y341500D02*
Y358500D01*
X223000Y341500D02*
X232000D01*
X223000Y358500D02*
X232000D01*
X234750Y330000D02*
X240250D01*
X237500Y327250D02*
Y332750D01*
X233000Y321500D02*
Y338500D01*
X242000Y321500D02*
Y338500D01*
X233000Y321500D02*
X242000D01*
X233000Y338500D02*
X242000D01*
X244750Y350000D02*
X250250D01*
X247500Y347250D02*
Y352750D01*
X243000Y341500D02*
Y358500D01*
X252000Y341500D02*
Y358500D01*
X243000Y341500D02*
X252000D01*
X243000Y358500D02*
X252000D01*
X254750Y330000D02*
X260250D01*
X257500Y327250D02*
Y332750D01*
X253000Y321500D02*
Y338500D01*
X262000Y321500D02*
Y338500D01*
X253000Y321500D02*
X262000D01*
X253000Y338500D02*
X262000D01*
X264750Y350000D02*
X270250D01*
X267500Y347250D02*
Y352750D01*
X263000Y341500D02*
Y358500D01*
X272000Y341500D02*
Y358500D01*
X263000Y341500D02*
X272000D01*
X263000Y358500D02*
X272000D01*
X274750Y330000D02*
X280250D01*
X277500Y327250D02*
Y332750D01*
X273000Y321500D02*
Y338500D01*
X282000Y321500D02*
Y338500D01*
X273000Y321500D02*
X282000D01*
X273000Y338500D02*
X282000D01*
X314750Y350000D02*
X320250D01*
X317500Y347250D02*
Y352750D01*
X313000Y341500D02*
Y358500D01*
X322000Y341500D02*
Y358500D01*
X313000Y341500D02*
X322000D01*
X313000Y358500D02*
X322000D01*
X41250Y506500D02*
X46750D01*
X44000Y503750D02*
Y509250D01*
X48500Y498000D02*
Y515000D01*
X39500Y498000D02*
Y515000D01*
X48500D01*
X39500Y498000D02*
X48500D01*
X344750Y350000D02*
X350250D01*
X347500Y347250D02*
Y352750D01*
X343000Y341500D02*
Y358500D01*
X352000Y341500D02*
Y358500D01*
X343000Y341500D02*
X352000D01*
X343000Y358500D02*
X352000D01*
X319000Y500073D02*
Y505573D01*
X316250Y502822D02*
X321750D01*
X310500Y507323D02*
X327500D01*
X310500Y498323D02*
X327500D01*
X310500D02*
Y507323D01*
X327500Y498323D02*
Y507323D01*
X319000Y512073D02*
Y517573D01*
X316250Y514823D02*
X321750D01*
X310500Y510323D02*
X327500D01*
X310500Y519323D02*
X327500D01*
Y510323D02*
Y519323D01*
X310500Y510323D02*
Y519323D01*
X194500Y471500D02*
X214500D01*
Y517500D01*
X194500D02*
X214500D01*
X194500Y471500D02*
Y517500D01*
D31*
X329250Y651750D02*
X425750D01*
X329250D02*
Y748250D01*
X425750D01*
Y651750D02*
Y748250D01*
X29250Y651750D02*
X125750D01*
X29250D02*
Y748250D01*
X125750D01*
Y651750D02*
Y748250D01*
D32*
X369000Y700000D02*
X386000D01*
X377500Y691502D02*
Y708502D01*
X69000Y700000D02*
X86000D01*
X77500Y691502D02*
Y708502D01*
M02*
